<svg width="515" height="91" viewBox="0 0 515 91" fill="none" xmlns="http://www.w3.org/2000/svg">
<g clip-path="url(#clip0_5_701)">
<path d="M219.253 57.6583C215.713 57.6583 213.602 55.5746 213.602 52.1066V36.6903H225.427V23.8384H213.18V9.70434H209.729L196.343 23.8531H177.658L166.051 42.8102V6.36751H149.258V40.712C146.389 29.6087 136.952 22.2502 124.602 22.2502C120.684 22.221 116.824 23.1973 113.387 25.0769V22.4688L96.1146 22.5125V89.7298H112.717V70.6851C116.315 72.827 120.422 73.9345 124.602 73.9052C136.952 73.9052 146.389 66.5176 149.258 55.3997V72.2733H166.036V51.8008L178.241 72.2733H198.047L181.313 46.9339L188.042 36.7049H196.796V54.9772C196.796 65.7454 203.35 72.2733 214.127 72.2733H225.675V57.6583H219.253ZM123.378 59.13C117.087 59.13 112.47 54.4089 112.47 48.0559C112.47 41.6882 117.101 36.9817 123.378 36.9817C129.67 36.9817 134.287 41.7028 134.287 48.0559C134.287 54.4235 129.626 59.13 123.378 59.13Z" fill="#00052F"/>
<path fill-rule="evenodd" clip-rule="evenodd" d="M12.531 0.30603H0.850708V11.9048H12.531V0.30603ZM22.0268 20.1964H3.57423V38.527H22.0268V20.1964ZM31.2886 1.45782H43.8717V13.9454H31.2886V1.45782ZM25.1731 4.57602H18.8814V10.8271H25.1731V4.57602ZM81.0995 62.5692V22.5856H29.2227V74.0949H69.4776C71.0067 74.0949 72.5068 73.8036 73.9194 73.2206C75.3322 72.6525 76.6137 71.7926 77.6915 70.729C78.7692 69.6508 79.6285 68.383 80.2111 66.9843C80.7937 65.5854 81.0995 64.0846 81.0995 62.5692Z" fill="#3CADEF"/>
</g>
<path d="M254.157 40.9091L256.561 45.4858L259.024 40.9091H262.748L258.955 47.4545L262.85 54H259.143L256.561 49.4744L254.021 54H250.271L254.157 47.4545L250.407 40.9091H254.157Z" fill="#00052F"/>
<path d="M355.903 69.9532V21.0471H371.848C377.135 21.0471 381.117 22.1465 383.783 24.3454C386.45 26.5351 387.783 29.7875 387.783 34.1028C387.783 36.3841 387.144 38.418 385.838 40.168C384.55 41.9362 382.788 43.3013 380.551 44.2633C383.19 44.9963 385.272 46.4072 386.806 48.4686C388.34 50.5484 389.089 53.0129 389.089 55.8623C389.089 60.2508 387.674 63.6957 384.833 66.1969C382.003 68.7072 378.003 69.9532 372.825 69.9532H355.903ZM362.341 47.186V64.6577H372.944C375.939 64.6577 378.304 63.8881 380.03 62.3397C381.756 60.7914 382.624 58.6566 382.624 55.9539C382.624 50.1086 379.436 47.186 373.044 47.186H362.341ZM362.341 41.8904H372.04C374.852 41.8904 377.099 41.1758 378.797 39.7648C380.478 38.3539 381.327 36.4482 381.327 34.0295C381.327 31.3359 380.541 29.3844 378.98 28.1659C377.418 26.9382 375.035 26.3335 371.848 26.3335H362.341V41.8904ZM425.498 57.1632H405.061L400.476 69.9624H393.847L412.467 21.0471H418.092L436.739 69.9624H430.146L425.498 57.1632ZM407.015 51.8677H423.599L415.289 29.0088L407.015 51.8677ZM457.67 48.1571C452.163 46.5629 448.154 44.6023 445.634 42.2843C443.123 39.9664 441.863 37.0987 441.863 33.6997C441.863 29.8517 443.406 26.6633 446.465 24.1347C449.542 21.6151 453.524 20.3508 458.428 20.3508C461.779 20.3508 464.775 21.0013 467.386 22.3023C470.016 23.5941 472.034 25.3898 473.477 27.6803C474.92 29.9616 475.642 32.4628 475.642 35.1656H469.185C469.185 32.2063 468.245 29.8792 466.373 28.1842C464.501 26.4984 461.843 25.6464 458.428 25.6464C455.259 25.6464 452.793 26.3427 451.022 27.7444C449.241 29.1554 448.355 31.0885 448.355 33.5806C448.355 35.5778 449.186 37.2728 450.885 38.6471C452.565 40.0214 455.433 41.2857 459.487 42.4309C463.533 43.5762 466.711 44.8405 468.994 46.2148C471.277 47.5891 472.975 49.1924 474.08 51.0431C475.185 52.8755 475.733 55.0469 475.733 57.5297C475.733 61.4968 474.19 64.676 471.112 67.0581C468.026 69.4402 463.916 70.6312 458.757 70.6312C455.405 70.6312 452.273 69.9899 449.378 68.7072C446.483 67.4154 444.246 65.6472 442.666 63.4117C441.086 61.1762 440.31 58.6291 440.31 55.789H446.766C446.766 58.7391 447.853 61.0662 450.036 62.7703C452.209 64.4744 455.113 65.3356 458.757 65.3356C462.154 65.3356 464.747 64.6393 466.555 63.2467C468.373 61.8633 469.277 59.9668 469.277 57.5847C469.277 55.1843 468.427 53.3336 466.765 52.0234C465.112 50.7316 462.072 49.4306 457.67 48.1571ZM511.558 47.3875H490.435V64.6577H514.973V69.9532H484.006V21.0471H514.644V26.3427H490.435V42.0919H511.558V47.3875Z" fill="#00052F"/>
<path d="M315.741 74.7722C331.85 74.7722 344.918 61.6707 344.918 45.5C344.918 29.3384 331.859 16.2278 315.741 16.2278C300.464 16.2278 287.916 28.0283 286.674 43.0355H325.229V47.9554H286.674C287.916 62.9717 300.464 74.7722 315.741 74.7722Z" fill="#00052F"/>
<defs>
<clipPath id="clip0_5_701">
<rect width="224.824" height="91" fill="white" transform="translate(0.850708)"/>
</clipPath>
</defs>
</svg>
