<svg width="69" height="70" viewBox="0 0 69 70" fill="none" xmlns="http://www.w3.org/2000/svg">
<path d="M34.5 69.0863C53.5538 69.0863 69 53.6401 69 34.5863C69 15.5325 53.5538 0.0863037 34.5 0.0863037C15.4462 0.0863037 0 15.5325 0 34.5863C0 53.6401 15.4462 69.0863 34.5 69.0863Z" fill="#0052FF"/>
<path fill-rule="evenodd" clip-rule="evenodd" d="M10.3501 34.5864C10.3501 47.9264 21.1601 58.7364 34.5001 58.7364C47.8401 58.7364 58.6501 47.9264 58.6501 34.5864C58.6501 21.2464 47.8401 10.4364 34.5001 10.4364C21.1601 10.4364 10.3501 21.2464 10.3501 34.5864ZM28.3361 26.7971C27.4468 26.7971 26.7261 27.5178 26.7261 28.4071V40.7504C26.7261 41.6398 27.4468 42.3604 28.3361 42.3604H40.6794C41.5688 42.3604 42.2894 41.6398 42.2894 40.7504V28.4071C42.2894 27.5178 41.5688 26.7971 40.6794 26.7971H28.3361Z" fill="white"/>
</svg>
