<svg width="80" height="80" viewBox="0 0 80 80" fill="none" xmlns="http://www.w3.org/2000/svg">
<rect width="80" height="80" rx="15" fill="white"/>
<path d="M39.598 68.8692C54.8411 68.8692 67.198 56.5122 67.198 41.2692C67.198 26.0261 54.8411 13.6692 39.598 13.6692C24.355 13.6692 11.998 26.0261 11.998 41.2692C11.998 56.5122 24.355 68.8692 39.598 68.8692Z" fill="#0052FF"/>
<path fill-rule="evenodd" clip-rule="evenodd" d="M20.2769 41.2692C20.2769 51.9412 28.9249 60.5892 39.5969 60.5892C50.2689 60.5892 58.9169 51.9412 58.9169 41.2692C58.9169 30.5972 50.2689 21.9492 39.5969 21.9492C28.9249 21.9492 20.2769 30.5972 20.2769 41.2692ZM34.6657 35.0378C33.9542 35.0378 33.3777 35.6143 33.3777 36.3258V46.2004C33.3777 46.9119 33.9542 47.4884 34.6657 47.4884H44.5403C45.2518 47.4884 45.8283 46.9119 45.8283 46.2004V36.3258C45.8283 35.6143 45.2518 35.0378 44.5403 35.0378H34.6657Z" fill="white"/>
</svg>
