<svg width="133" height="27" viewBox="0 0 133 27" fill="none" xmlns="http://www.w3.org/2000/svg">
<mask id="mask0_361_2241" style="mask-type:alpha" maskUnits="userSpaceOnUse" x="0" y="0" width="133" height="27">
<g clip-path="url(#clip0_361_2241)">
<path d="M20.5905 17.6792L25.504 26.2906H15.5787L10.6133 17.6792H20.5905Z" fill="url(#paint0_linear_361_2241)"/>
<path d="M25.5014 26.2917L30.4586 17.6804L20.5359 0.453613H10.6133L25.5014 26.2917Z" fill="#FF414C"/>
<path d="M5.6527 9.0625H15.5754L5.65683 26.2893L0.691406 17.678L5.6527 9.0625Z" fill="#FF414C"/>
<path d="M54.9466 8.69838L54.6989 11.3599C53.6376 9.2937 51.1966 8.1731 48.5786 8.1731C43.6612 8.1731 40.3711 11.7101 40.3711 17.138C40.3711 22.531 43.3428 26.4531 48.5433 26.4531C51.3734 26.4531 53.4607 25.0874 54.5574 23.3014L54.8404 25.9978H58.8734V8.69838H54.9466ZM54.4867 17.3481C54.4867 20.4648 52.5409 22.601 49.5338 22.601C46.5267 22.601 44.6871 20.4298 44.6871 17.3481C44.6871 14.2664 46.5621 12.0602 49.5692 12.0602C52.5763 12.0602 54.4867 14.2314 54.4867 17.3481Z" fill="#232323"/>
<path d="M66.2162 25.9978V21.3403L68.7633 18.7139L73.327 25.9978H78.2799L71.7705 15.5622L78.4214 8.69843H73.0086L66.2162 15.9474V0.453125H61.9355V25.9978H66.2162Z" fill="#232323"/>
<path d="M92.7747 8.69838L92.5271 11.3599C91.4657 9.2937 89.0247 8.1731 86.4068 8.1731C81.4893 8.1731 78.1992 11.7101 78.1992 17.138C78.1992 22.531 81.1709 26.4531 86.3714 26.4531C89.2016 26.4531 91.2888 25.0874 92.3855 23.3014L92.6686 25.9978H96.7016V8.69838H92.7747ZM92.3148 17.3481C92.3148 20.4648 90.369 22.601 87.362 22.601C84.3549 22.601 82.5153 20.4298 82.5153 17.3481C82.5153 14.2664 84.3903 12.0602 87.3973 12.0602C90.4044 12.0602 92.3148 14.2314 92.3148 17.3481Z" fill="#232323"/>
<path d="M98.8848 20.745C98.8848 24.1418 101.644 26.4531 105.995 26.4531C110.311 26.4531 113.318 24.2819 113.318 20.78C113.318 18.1185 111.832 16.7878 108.896 16.1225L105.748 15.3871C104.262 15.0369 103.483 14.4065 103.483 13.426C103.483 12.1303 104.474 11.3599 106.172 11.3599C107.835 11.3599 108.825 12.3054 108.861 13.7762H112.965C112.929 10.4143 110.276 8.1731 106.349 8.1731C102.316 8.1731 99.4155 10.2042 99.4155 13.6011C99.4155 16.3676 100.936 17.8384 104.085 18.5388L107.233 19.2742C108.79 19.6244 109.25 20.2547 109.25 21.1302C109.25 22.3909 108.153 23.1963 106.137 23.1963C104.156 23.1963 103.023 22.2508 102.988 20.745H98.8848Z" fill="#232323"/>
<path d="M120.041 25.9978V16.5427C120.041 13.9513 121.633 12.0602 124.357 12.0602C126.55 12.0602 128.001 13.461 128.001 16.3676V25.9978H132.317V15.352C132.317 10.8696 130.053 8.17315 125.737 8.17315C123.225 8.17315 121.173 9.25875 120.076 10.9396V0.453125H115.725V25.9978H120.041Z" fill="#232323"/>
</g>
</mask>
<g mask="url(#mask0_361_2241)">
<rect x="-17.3086" y="-30.5469" width="170" height="92" fill="white"/>
</g>
<defs>
<linearGradient id="paint0_linear_361_2241" x1="19.5983" y1="23.6333" x2="23.2343" y2="19.27" gradientUnits="userSpaceOnUse">
<stop stop-color="#FF414C"/>
<stop offset="1" stop-color="#FF414C" stop-opacity="0"/>
</linearGradient>
<clipPath id="clip0_361_2241">
<rect width="132" height="26" fill="white" transform="translate(0.691406 0.453125)"/>
</clipPath>
</defs>
</svg>
