<?xml version="1.0" encoding="UTF-8"?><svg id="_Слой_2" xmlns="http://www.w3.org/2000/svg" xmlns:xlink="http://www.w3.org/1999/xlink" viewBox="0 0 132.13 26.5"><defs><style>.cls-1{fill:#fdfdfc;}.cls-1,.cls-2,.cls-3{stroke-width:0px;}.cls-2{fill:#fdfcf8;}.cls-3{fill:url(#_Безымянный_градиент_11);}</style><linearGradient id="_Безымянный_градиент_11" x1="14.5" y1="25.55" x2="20.75" y2="18.02" gradientUnits="userSpaceOnUse"><stop offset="0" stop-color="#fdfcf8"/><stop offset="1" stop-color="#fdfcf8" stop-opacity="0"/></linearGradient></defs><g id="_Слой_2-2"><g id="_Слой_1-2"><path class="cls-1" d="M131.88,15.15v10.65h-4.32v-9.63c0-2.91-1.45-4.31-3.64-4.31-2.73,0-4.32,1.89-4.32,4.48v9.46h-4.31V.25h4.35v10.49c1.09-1.68,3.15-2.77,5.66-2.77,4.31,0,6.58,2.7,6.58,7.18Z"/><path class="cls-1" d="M112.53,13.58h-4.11c-.03-1.47-1.02-2.42-2.69-2.42s-2.69.77-2.69,2.07c0,.98.78,1.61,2.27,1.96l3.15.73c2.93.67,4.42,2,4.42,4.66,0,3.5-3.01,5.67-7.32,5.67s-7.11-2.31-7.11-5.7h4.1c.03,1.5,1.17,2.45,3.15,2.45s3.11-.81,3.11-2.07c0-.88-.46-1.51-2.02-1.86l-3.14-.73c-3.15-.7-4.67-2.17-4.67-4.94,0-3.4,2.9-5.43,6.93-5.43s6.58,2.24,6.62,5.61Z"/><path class="cls-1" d="M96.26,8.5v17.3h-4.03l-.28-2.7c-1.1,1.79-3.19,3.15-6.02,3.15-5.2,0-8.17-3.92-8.17-9.31s3.29-8.97,8.21-8.97c2.62,0,5.06,1.12,6.12,3.19l.25-2.66h3.92ZM91.88,17.15c0-3.12-1.91-5.29-4.92-5.29s-4.88,2.21-4.88,5.29,1.84,5.25,4.84,5.25,4.96-2.13,4.96-5.25Z"/><polygon class="cls-1" points="77.98 8.5 71.33 15.36 77.84 25.8 72.89 25.8 68.32 18.51 65.78 21.14 65.78 25.8 61.5 25.8 61.5 .25 65.78 .25 65.78 15.75 72.57 8.5 77.98 8.5"/><path class="cls-1" d="M58.43,8.5v17.3h-4.03l-.28-2.7c-1.1,1.79-3.19,3.15-6.02,3.15-5.2,0-8.17-3.92-8.17-9.31s3.29-8.97,8.21-8.97c2.62,0,5.06,1.12,6.12,3.19l.25-2.66h3.92ZM54.05,17.15c0-3.12-1.91-5.29-4.92-5.29s-4.88,2.21-4.88,5.29,1.84,5.25,4.85,5.25,4.95-2.13,4.95-5.25Z"/><polygon class="cls-2" points="20.1 .25 30.02 17.48 25.07 26.08 20.15 17.48 20.1 17.48 15.14 8.87 15.14 8.86 15.13 8.86 10.17 .25 20.1 .25"/><polygon class="cls-2" points="25.07 26.08 25.06 26.09 20.1 17.48 20.15 17.48 25.07 26.08"/><polygon class="cls-3" points="20.1 17.48 25.06 26.09 15.14 26.09 10.17 17.49 10.18 17.48 20.1 17.48"/><polygon class="cls-2" points="15.14 8.86 15.14 8.87 15.13 8.86 15.14 8.86"/><polygon class="cls-2" points="15.14 8.87 10.18 17.48 10.17 17.49 5.22 26.09 .25 17.48 5.21 8.86 15.13 8.86 15.14 8.87"/></g></g></svg>