<svg width="89" height="25" viewBox="0 0 89 25" fill="none" xmlns="http://www.w3.org/2000/svg">
<path d="M12.6488 9.29292C12.0992 8.74329 11.4227 8.27821 10.5771 7.93998C9.73153 7.60174 8.71682 7.43262 7.61755 7.43262C6.43372 7.43262 5.29218 7.64402 4.19291 8.10909C3.09365 8.53189 2.07893 9.16608 1.23334 9.96939L3.60099 12.3371C4.1929 11.7874 4.7848 11.4492 5.37671 11.2378C5.96863 11.0264 6.51825 10.9418 7.11017 10.9418C8.25172 10.9418 9.13962 11.2378 9.73153 11.7874C10.3234 12.3371 10.6617 13.0981 10.6617 14.0282H8.37855C7.32156 14.0282 6.34913 14.1551 5.41898 14.3665C4.48883 14.5779 3.72782 14.9161 3.00907 15.3812C2.33259 15.8463 1.78294 16.3959 1.40242 17.0724C1.0219 17.7488 0.810547 18.5522 0.810547 19.44C0.810547 20.1588 0.937344 20.793 1.19102 21.3849C1.4447 21.9768 1.78294 22.4842 2.24801 22.907C2.71309 23.3298 3.26273 23.668 3.89693 23.9217C4.53112 24.1331 5.20759 24.2599 6.01091 24.2599C6.8565 24.2599 7.65984 24.1753 8.42088 23.9639C9.22419 23.7948 9.94291 23.4566 10.6617 22.9492V23.7948H14.636V14.9584C14.636 13.6054 14.5091 12.5062 14.2132 11.6183C13.8326 10.7727 13.3676 9.9694 12.6488 9.29292ZM10.5771 19.8205C9.98521 20.1588 9.39326 20.4547 8.80135 20.6239C8.20944 20.793 7.61754 20.9198 7.02563 20.9198C6.34915 20.9198 5.79952 20.7507 5.33444 20.4125C4.91165 20.0742 4.70025 19.6091 4.70025 19.0595C4.70025 18.679 4.82711 18.3408 5.03851 18.0448C5.24991 17.7488 5.54586 17.5374 5.8841 17.3683C6.26462 17.1992 6.68741 17.0724 7.15249 16.9878C7.65984 16.9033 8.16718 16.861 8.71681 16.861H10.5349V19.8205H10.5771Z" fill="white"/>
<path d="M30.2361 8.95497C29.6441 8.40533 29.0099 8.02482 28.2489 7.77114C27.4879 7.51746 26.7268 7.39062 25.9235 7.39062C25.543 7.39062 25.1625 7.43291 24.782 7.51747C24.4015 7.60202 23.9787 7.68658 23.6405 7.8557C23.2599 7.98254 22.8794 8.15166 22.5411 8.36306C22.2029 8.57446 21.907 8.78585 21.6533 9.03953L21.611 7.8557H17.6367V23.8374H21.611V12.2105C22.0761 11.7454 22.6257 11.4072 23.2177 11.1958C23.8096 10.9844 24.4015 10.8576 25.0356 10.8576C25.4584 10.8576 25.839 10.9421 26.2195 11.0689C26.6 11.1958 26.9383 11.4072 27.2342 11.7031C27.5302 11.9991 27.7838 12.3373 27.953 12.8024C28.1221 13.2252 28.2066 13.7326 28.2066 14.3245V23.8797H32.1809V14.1554C32.1809 13.0138 32.0118 11.9991 31.6736 11.1535C31.2931 10.1811 30.828 9.5046 30.2361 8.95497Z" fill="white"/>
<path d="M49.2212 9.80056C48.4602 9.03953 47.53 8.44762 46.5153 8.02482C45.4583 7.60202 44.3591 7.39062 43.1752 7.39062C42.0337 7.39062 40.9344 7.60202 39.8774 8.02482C38.8627 8.44762 37.9326 9.03953 37.1715 9.84284C36.4105 10.6039 35.7763 11.4917 35.3112 12.5065C34.8462 13.5212 34.6348 14.6204 34.6348 15.8043C34.6348 16.9881 34.8462 18.0874 35.3112 19.1021C35.734 20.1168 36.3682 21.0047 37.1292 21.7657C37.8903 22.5267 38.8204 23.1186 39.8351 23.5414C40.8498 23.9642 41.9914 24.1756 43.1752 24.1756C44.3591 24.1756 45.4583 23.9642 46.5153 23.5414C47.5723 23.1186 48.4602 22.5267 49.2212 21.7657C49.9823 21.0047 50.6164 20.1168 51.0392 19.1021C51.462 18.0874 51.7157 16.9881 51.7157 15.762C51.7157 14.5782 51.5043 13.4789 51.0392 12.4219C50.6164 11.4495 50.0245 10.5616 49.2212 9.80056ZM47.4032 17.7068C47.1495 18.2988 46.8535 18.8061 46.4307 19.2712C46.0079 19.694 45.5429 20.0745 44.9933 20.3282C44.4436 20.5819 43.8517 20.7087 43.2175 20.7087C42.5833 20.7087 41.9914 20.5819 41.4418 20.3282C40.8921 20.0745 40.4271 19.7363 40.0043 19.2712C39.5815 18.8484 39.2432 18.2988 39.0318 17.7068C38.7781 17.1149 38.6936 16.4807 38.6936 15.8043C38.6936 15.1278 38.8204 14.4936 39.0318 13.9017C39.2855 13.3098 39.5815 12.8024 40.0043 12.3373C40.4271 11.9145 40.8921 11.534 41.4418 11.2803C41.9914 11.0267 42.5833 10.8998 43.2175 10.8998C43.8517 10.8998 44.4436 11.0267 44.9933 11.2803C45.5429 11.534 46.0079 11.8723 46.4307 12.3373C46.8535 12.7601 47.1918 13.3098 47.4032 13.9017C47.6569 14.4936 47.7414 15.1278 47.7414 15.8043C47.7414 16.4807 47.6146 17.1149 47.4032 17.7068Z" fill="white"/>
<path d="M65.4996 8.21433C65.0345 7.8761 64.4849 7.62242 63.8507 7.4533C63.2165 7.28418 62.54 7.15734 61.8635 7.15734C60.8911 7.15734 59.9187 7.36874 59.0308 7.79154C58.1007 8.21433 57.2973 8.80625 56.5786 9.56728C55.8598 10.3283 55.2679 11.2162 54.8451 12.2309C54.4223 13.2456 54.2109 14.3449 54.2109 15.571C54.2109 16.7125 54.38 17.7695 54.7605 18.7842C55.1411 19.7989 55.6484 20.6868 56.3672 21.4478C57.0437 22.2089 57.847 22.8008 58.8194 23.2659C59.7496 23.7309 60.8065 23.9423 61.9058 23.9423C62.5823 23.9423 63.2165 23.8578 63.8507 23.6464C64.4426 23.435 65.0345 23.139 65.5418 22.7162V23.5618H69.6007V0.604004H65.5418V8.21433H65.4996ZM65.5418 19.3339C64.654 20.1372 63.6393 20.5177 62.5823 20.5177C61.9481 20.5177 61.3562 20.3909 60.8065 20.1372C60.2569 19.8835 59.7918 19.5453 59.4113 19.1225C59.0308 18.6997 58.7348 18.1923 58.4812 17.5581C58.2698 16.9662 58.1429 16.2897 58.1429 15.571C58.1429 14.8522 58.2698 14.1758 58.4812 13.5416C58.6926 12.9497 59.0308 12.4 59.4113 11.9772C59.8341 11.5544 60.2992 11.2162 60.8488 10.9625C61.3984 10.7511 61.9904 10.6243 62.6669 10.6243C62.8783 10.6243 63.0896 10.6666 63.3433 10.7088C63.597 10.7511 63.8507 10.8357 64.1044 10.9202C64.3581 11.0048 64.6117 11.0893 64.8654 11.2162C65.1191 11.343 65.3305 11.4699 65.4996 11.5967V19.3339H65.5418Z" fill="white"/>
<path d="M88.2033 12.3796C87.7383 11.3649 87.1041 10.477 86.343 9.75828C85.5397 9.03953 84.6518 8.44762 83.5948 8.02482C82.5801 7.60202 81.4809 7.39062 80.3393 7.39062C79.1555 7.39062 78.0562 7.60202 76.9992 8.06709C75.9845 8.48989 75.0544 9.12409 74.2933 9.88512C73.5323 10.6462 72.8981 11.534 72.4753 12.5487C72.0525 13.5634 71.7988 14.6627 71.7988 15.8465C71.7988 16.9881 72.0103 18.0874 72.4753 19.1444C72.8981 20.1591 73.5323 21.0469 74.2933 21.808C75.0544 22.569 75.9423 23.1609 76.9992 23.626C78.0562 24.0488 79.1555 24.3025 80.3393 24.3025C81.5232 24.3025 82.6224 24.1333 83.6794 23.7951C84.7364 23.4569 85.8357 22.865 86.9349 22.0194L84.3982 19.4826C83.9331 19.9054 83.2989 20.2436 82.5801 20.4973C81.8614 20.751 81.1426 20.8778 80.4239 20.8778C79.832 20.8778 79.2824 20.7933 78.8173 20.6241C78.3099 20.455 77.8871 20.2013 77.5066 19.9054C77.1261 19.6094 76.7879 19.2289 76.5342 18.8061C76.2805 18.3833 76.0691 17.9605 75.9 17.4954H88.6684C88.7107 17.1995 88.753 16.9035 88.753 16.6499C88.7953 16.3539 88.7953 16.1002 88.7953 15.8465C88.8798 14.5359 88.6261 13.3943 88.2033 12.3796ZM75.9423 14.2399C76.2382 13.2252 76.7879 12.4219 77.5912 11.7877C78.3945 11.1535 79.2823 10.8576 80.2547 10.8576C81.2695 10.8576 82.1573 11.1535 82.9607 11.7877C83.764 12.4219 84.3136 13.2252 84.6518 14.2399H75.9423Z" fill="white"/>
</svg>
