<?xml version="1.0" encoding="UTF-8"?><svg id="layer_1" xmlns="http://www.w3.org/2000/svg" viewBox="0 0 416.5 110.5"><defs><style>.cls-1{fill:#fff;stroke-width:0px;}</style></defs><g id="_Слой_1-2"><polygon class="cls-1" points="416.25 90.5 416.25 98.55 360.2 98.55 360.2 11.28 416.25 11.28 416.25 19.34 369.5 19.34 369.5 49.34 412.53 49.34 412.53 57.27 369.5 57.27 369.5 90.5 416.25 90.5"/><path class="cls-1" d="M344.99,33.35h-9.55c-.74-9.55-7.56-16.24-20.83-16.24s-20.83,7.19-20.83,16.61,6.45,13.51,16.12,15.12l12.65,2.11c14.26,2.36,23.68,9.17,23.68,23.55,0,15.5-12.52,25.79-31.62,25.79-20.46,0-31.87-10.91-32.61-25.79h9.42c.75,11.41,9.43,18.1,23.32,18.1s22.19-6.94,22.19-17.72c0-9.18-5.95-13.52-16.61-15.38l-12.78-1.98c-13.39-2.23-23.19-8.93-23.19-23.43,0-13.64,10.79-24.67,30.39-24.67s29.51,11.28,30.25,23.93Z"/><path class="cls-1" d="M246.45,11.28l29.02,87.27h-9.92l-7.44-23.67h-34.72l-7.44,23.67h-9.43l28.65-87.27h11.28ZM255.75,67.07l-14.51-46.24h-.74l-14.63,46.24h29.88Z"/><path class="cls-1" d="M182.76,53.18c10.91,2.11,17.6,9.55,17.6,21.2,0,15-11.03,24.17-26.53,24.17h-34.72V11.28h33.48c14.75,0,25.05,8.68,25.05,22.56,0,10.04-5.71,16.74-14.88,18.97v.37ZM191.06,74.63v-1.24c0-10.04-7.19-16.12-18.72-16.12h-23.93v33.35h24.05c11.54,0,18.6-6.32,18.6-15.99ZM188.34,34.96v-1.24c0-8.93-6.45-14.51-16.99-14.51h-22.94v30.38h22.94c10.54,0,16.99-5.71,16.99-14.63Z"/><path class="cls-1" d="M55.17.25c30.44,0,55.12,24.63,55.12,55s-24.68,55-55.12,55C26.3,110.25,2.61,88.09.25,59.88h72.85v-9.25H.25C2.61,22.42,26.3.25,55.17.25Z"/></g></svg>