<svg width="145" height="27" viewBox="0 0 145 27" fill="none" xmlns="http://www.w3.org/2000/svg">
<path d="M29.7371 7.71052C24.5131 7.71052 20.4257 11.718 20.4257 17.094C20.4257 22.4699 24.4163 26.453 29.7371 26.453C35.0821 26.453 39.1211 22.3966 39.1211 17.0695C39.1452 11.7425 35.1547 7.71052 29.7371 7.71052ZM29.7855 22.5677C26.8107 22.5677 24.634 20.2218 24.634 17.094C24.634 13.9173 26.7865 11.5959 29.7613 11.5959C32.7845 11.5959 34.9612 13.9662 34.9612 17.094C34.937 20.2218 32.7603 22.5677 29.7855 22.5677ZM40.282 11.7914H42.8698V26.0865H47.0297V8.05263H40.282V11.7914ZM9.97763 11.5714C12.1543 11.5714 13.8957 12.9398 14.5487 14.9436H18.9504C18.1523 10.6184 14.6212 7.68609 10.026 7.68609C4.77777 7.71052 0.69043 11.718 0.69043 17.094C0.69043 22.4699 4.68102 26.453 10.0018 26.453C14.5003 26.453 18.1039 23.5207 18.9021 19.171H14.5487C13.9199 21.1992 12.2027 22.5921 10.0018 22.5921C6.97864 22.5921 4.87451 20.2462 4.87451 17.1184C4.87451 13.9173 6.95445 11.5714 9.97763 11.5714ZM119.247 15.3346L116.2 14.8703C114.749 14.6504 113.709 14.1617 113.709 13.0132C113.709 11.7669 115.063 11.1316 116.901 11.1316C118.909 11.1316 120.191 12.0113 120.481 13.4286H124.496C124.036 9.81203 121.279 7.68609 117.022 7.68609C112.621 7.68609 109.718 9.95864 109.718 13.1598C109.718 16.2387 111.629 17.9981 115.474 18.5601L118.522 19.0244C120.021 19.2444 120.844 19.8308 120.844 20.9549C120.844 22.3966 119.392 22.9831 117.385 22.9831C114.918 22.9831 113.54 21.9812 113.322 20.4417H109.235C109.622 23.9605 112.355 26.4286 117.337 26.4286C121.884 26.4286 124.883 24.3271 124.883 20.735C124.858 17.5338 122.658 15.8722 119.247 15.3346ZM44.9498 0.624058C43.4261 0.624058 42.2894 1.74812 42.2894 3.26315C42.2894 4.80263 43.4261 5.90225 44.9498 5.90225C46.4734 5.90225 47.6101 4.77819 47.6101 3.26315C47.6101 1.74812 46.4734 0.624058 44.9498 0.624058ZM105.945 14.235C105.945 10.3252 103.599 7.71052 98.593 7.71052C93.8769 7.71052 91.2406 10.1297 90.7327 13.8195H94.8443C95.0619 12.3778 96.1503 11.2049 98.5205 11.2049C100.625 11.2049 101.665 12.1579 101.665 13.3064C101.665 14.797 99.7539 15.188 97.4079 15.4323C94.2155 15.7744 90.2732 16.8985 90.2732 21.0771C90.2732 24.3271 92.6676 26.4041 96.4647 26.4041C99.4395 26.4041 101.302 25.1579 102.245 23.1541C102.39 24.938 103.696 26.0865 105.534 26.0865H107.953V22.3477H105.897L105.945 14.235ZM101.858 18.7556C101.858 21.1748 99.7781 22.9342 97.2628 22.9342C95.7149 22.9342 94.3848 22.2744 94.3848 20.8816C94.3848 19.0977 96.4889 18.609 98.4479 18.4135C100.31 18.2425 101.35 17.8271 101.882 17.0207C101.858 17.0207 101.858 18.7556 101.858 18.7556ZM79.8009 7.71052C77.4791 7.71052 75.5443 8.68797 74.1657 10.3252V0.453003H70.0058V26.0865H74.0932V23.7162C75.4717 25.4267 77.455 26.4286 79.8009 26.4286C84.7831 26.4286 88.5561 22.4455 88.5561 17.0695C88.5561 11.6936 84.7106 7.71052 79.8009 7.71052ZM79.1721 22.5677C76.1973 22.5677 74.0206 20.2218 74.0206 17.094C74.0206 13.9662 76.2457 11.5959 79.2205 11.5959C82.2437 11.5959 84.3478 13.9417 84.3478 17.094C84.3236 20.2218 82.1469 22.5677 79.1721 22.5677ZM60.0415 7.71052C57.3327 7.71052 55.5672 8.83458 54.5272 10.3985V8.05263H50.4157V26.0865H54.5756V16.2876C54.5756 13.5263 56.3169 11.5714 58.8806 11.5714C61.2749 11.5714 62.7502 13.2819 62.7502 15.75V26.0865H66.9101V15.4568C66.9101 10.9117 64.5883 7.71052 60.0415 7.71052ZM144.666 16.4831C144.666 11.3271 140.917 7.68609 135.911 7.68609C130.566 7.68609 126.672 11.7425 126.672 17.0695C126.672 22.6898 130.856 26.4286 135.984 26.4286C140.313 26.4286 143.699 23.8383 144.57 20.1974H140.24C139.611 21.8101 138.088 22.7143 136.056 22.7143C133.396 22.7143 131.388 21.0282 130.929 18.1203H144.69L144.666 16.4831ZM131.147 15.0902C131.8 12.5733 133.686 11.3515 135.814 11.3515C138.16 11.3515 139.974 12.7199 140.385 15.0902H131.147Z" fill="white"/>
</svg>
