<svg width="89" height="25" viewBox="0 0 89 25" fill="none" xmlns="http://www.w3.org/2000/svg">
<path d="M12.6479 9.29292C12.0982 8.74329 11.4217 8.27821 10.5761 7.93998C9.73056 7.60174 8.71585 7.43262 7.61658 7.43262C6.43275 7.43262 5.29121 7.64402 4.19194 8.10909C3.09267 8.53189 2.07796 9.16608 1.23237 9.96939L3.60001 12.3371C4.19193 11.7874 4.78382 11.4492 5.37574 11.2378C5.96765 11.0264 6.51728 10.9418 7.10919 10.9418C8.25074 10.9418 9.13864 11.2378 9.73056 11.7874C10.3225 12.3371 10.6607 13.0981 10.6607 14.0282H8.37758C7.32059 14.0282 6.34816 14.1551 5.41801 14.3665C4.48785 14.5779 3.72684 14.9161 3.00809 15.3812C2.33162 15.8463 1.78196 16.3959 1.40144 17.0724C1.02093 17.7488 0.80957 18.5522 0.80957 19.44C0.80957 20.1588 0.936368 20.793 1.19005 21.3849C1.44372 21.9768 1.78196 22.4842 2.24704 22.907C2.71211 23.3298 3.26176 23.668 3.89595 23.9217C4.53014 24.1331 5.20662 24.2599 6.00993 24.2599C6.85552 24.2599 7.65887 24.1753 8.4199 23.9639C9.22321 23.7948 9.94193 23.4566 10.6607 22.9492V23.7948H14.635V14.9584C14.635 13.6054 14.5081 12.5062 14.2122 11.6183C13.8317 10.7727 13.3666 9.9694 12.6479 9.29292ZM10.5761 19.8205C9.98423 20.1588 9.39229 20.4547 8.80037 20.6239C8.20846 20.793 7.61657 20.9198 7.02465 20.9198C6.34818 20.9198 5.79854 20.7507 5.33347 20.4125C4.91067 20.0742 4.69927 19.6091 4.69927 19.0595C4.69927 18.679 4.82613 18.3408 5.03753 18.0448C5.24893 17.7488 5.54489 17.5374 5.88312 17.3683C6.26364 17.1992 6.68643 17.0724 7.15151 16.9878C7.65887 16.9033 8.1662 16.861 8.71584 16.861H10.5339V19.8205H10.5761Z" fill="white"/>
<path d="M30.2361 8.95497C29.6441 8.40533 29.0099 8.02482 28.2489 7.77114C27.4879 7.51746 26.7268 7.39062 25.9235 7.39062C25.543 7.39062 25.1625 7.43291 24.782 7.51747C24.4015 7.60202 23.9787 7.68658 23.6405 7.8557C23.2599 7.98254 22.8794 8.15166 22.5411 8.36306C22.2029 8.57446 21.907 8.78585 21.6533 9.03953L21.611 7.8557H17.6367V23.8374H21.611V12.2105C22.0761 11.7454 22.6257 11.4072 23.2177 11.1958C23.8096 10.9844 24.4015 10.8576 25.0356 10.8576C25.4584 10.8576 25.839 10.9421 26.2195 11.0689C26.6 11.1958 26.9383 11.4072 27.2342 11.7031C27.5302 11.9991 27.7838 12.3373 27.953 12.8024C28.1221 13.2252 28.2066 13.7326 28.2066 14.3245V23.8797H32.1809V14.1554C32.1809 13.0138 32.0118 11.9991 31.6736 11.1535C31.2931 10.1811 30.828 9.5046 30.2361 8.95497Z" fill="white"/>
<path d="M49.2203 9.80056C48.4592 9.03953 47.5291 8.44762 46.5143 8.02482C45.4574 7.60202 44.3581 7.39062 43.1742 7.39062C42.0327 7.39062 40.9334 7.60202 39.8764 8.02482C38.8617 8.44762 37.9316 9.03953 37.1706 9.84284C36.4095 10.6039 35.7753 11.4917 35.3103 12.5065C34.8452 13.5212 34.6338 14.6204 34.6338 15.8043C34.6338 16.9881 34.8452 18.0874 35.3103 19.1021C35.733 20.1168 36.3672 21.0047 37.1282 21.7657C37.8893 22.5267 38.8194 23.1186 39.8341 23.5414C40.8489 23.9642 41.9904 24.1756 43.1742 24.1756C44.3581 24.1756 45.4574 23.9642 46.5143 23.5414C47.5713 23.1186 48.4592 22.5267 49.2203 21.7657C49.9813 21.0047 50.6154 20.1168 51.0382 19.1021C51.461 18.0874 51.7147 16.9881 51.7147 15.762C51.7147 14.5782 51.5033 13.4789 51.0382 12.4219C50.6154 11.4495 50.0236 10.5616 49.2203 9.80056ZM47.4022 17.7068C47.1485 18.2988 46.8526 18.8061 46.4298 19.2712C46.007 19.694 45.5419 20.0745 44.9923 20.3282C44.4427 20.5819 43.8507 20.7087 43.2165 20.7087C42.5823 20.7087 41.9904 20.5819 41.4408 20.3282C40.8912 20.0745 40.4261 19.7363 40.0033 19.2712C39.5805 18.8484 39.2422 18.2988 39.0308 17.7068C38.7771 17.1149 38.6926 16.4807 38.6926 15.8043C38.6926 15.1278 38.8194 14.4936 39.0308 13.9017C39.2845 13.3098 39.5805 12.8024 40.0033 12.3373C40.4261 11.9145 40.8912 11.534 41.4408 11.2803C41.9904 11.0267 42.5823 10.8998 43.2165 10.8998C43.8507 10.8998 44.4427 11.0267 44.9923 11.2803C45.5419 11.534 46.007 11.8723 46.4298 12.3373C46.8526 12.7601 47.1908 13.3098 47.4022 13.9017C47.6559 14.4936 47.7405 15.1278 47.7405 15.8043C47.7405 16.4807 47.6136 17.1149 47.4022 17.7068Z" fill="white"/>
<path d="M65.4986 8.21433C65.0335 7.8761 64.4839 7.62242 63.8497 7.4533C63.2155 7.28418 62.539 7.15734 61.8626 7.15734C60.8901 7.15734 59.9177 7.36874 59.0298 7.79154C58.0997 8.21433 57.2964 8.80625 56.5776 9.56728C55.8589 10.3283 55.267 11.2162 54.8442 12.2309C54.4214 13.2456 54.21 14.3449 54.21 15.571C54.21 16.7125 54.379 17.7695 54.7596 18.7842C55.1401 19.7989 55.6475 20.6868 56.3662 21.4478C57.0427 22.2089 57.846 22.8008 58.8184 23.2659C59.7486 23.7309 60.8056 23.9423 61.9048 23.9423C62.5813 23.9423 63.2155 23.8578 63.8497 23.6464C64.4416 23.435 65.0335 23.139 65.5409 22.7162V23.5618H69.5997V0.604004H65.5409V8.21433H65.4986ZM65.5409 19.3339C64.653 20.1372 63.6383 20.5177 62.5813 20.5177C61.9471 20.5177 61.3552 20.3909 60.8056 20.1372C60.2559 19.8835 59.7908 19.5453 59.4103 19.1225C59.0298 18.6997 58.7339 18.1923 58.4802 17.5581C58.2688 16.9662 58.1419 16.2897 58.1419 15.571C58.1419 14.8522 58.2688 14.1758 58.4802 13.5416C58.6916 12.9497 59.0298 12.4 59.4103 11.9772C59.8331 11.5544 60.2982 11.2162 60.8478 10.9625C61.3975 10.7511 61.9894 10.6243 62.6659 10.6243C62.8773 10.6243 63.0887 10.6666 63.3423 10.7088C63.596 10.7511 63.8497 10.8357 64.1034 10.9202C64.3571 11.0048 64.6107 11.0893 64.8644 11.2162C65.1181 11.343 65.3295 11.4699 65.4986 11.5967V19.3339H65.5409Z" fill="white"/>
<path d="M88.2014 12.3796C87.7363 11.3649 87.1021 10.477 86.3411 9.75828C85.5378 9.03953 84.6499 8.44762 83.5929 8.02482C82.5782 7.60202 81.4789 7.39062 80.3374 7.39062C79.1536 7.39062 78.0543 7.60202 76.9973 8.06709C75.9826 8.48989 75.0524 9.12409 74.2914 9.88512C73.5303 10.6462 72.8962 11.534 72.4734 12.5487C72.0506 13.5634 71.7969 14.6627 71.7969 15.8465C71.7969 16.9881 72.0083 18.0874 72.4734 19.1444C72.8962 20.1591 73.5303 21.0469 74.2914 21.808C75.0524 22.569 75.9403 23.1609 76.9973 23.626C78.0543 24.0488 79.1536 24.3025 80.3374 24.3025C81.5212 24.3025 82.6205 24.1333 83.6775 23.7951C84.7345 23.4569 85.8337 22.865 86.933 22.0194L84.3962 19.4826C83.9311 19.9054 83.2969 20.2436 82.5782 20.4973C81.8594 20.751 81.1407 20.8778 80.4219 20.8778C79.83 20.8778 79.2804 20.7933 78.8153 20.6241C78.308 20.455 77.8851 20.2013 77.5046 19.9054C77.1241 19.6094 76.7859 19.2289 76.5322 18.8061C76.2785 18.3833 76.0671 17.9605 75.898 17.4954H88.6664C88.7087 17.1995 88.751 16.9035 88.751 16.6499C88.7933 16.3539 88.7933 16.1002 88.7933 15.8465C88.8779 14.5359 88.6242 13.3943 88.2014 12.3796ZM75.9403 14.2399C76.2363 13.2252 76.7859 12.4219 77.5892 11.7877C78.3925 11.1535 79.2804 10.8576 80.2528 10.8576C81.2675 10.8576 82.1554 11.1535 82.9587 11.7877C83.762 12.4219 84.3116 13.2252 84.6499 14.2399H75.9403Z" fill="white"/>
</svg>
