<svg width="133" height="27" viewBox="0 0 133 27" fill="none" xmlns="http://www.w3.org/2000/svg">
<mask id="mask0_1_762" style="mask-type:alpha" maskUnits="userSpaceOnUse" x="0" y="0" width="133" height="27">
<g clip-path="url(#clip0_1_762)">
<path d="M20.5895 17.679L25.503 26.2904H15.5777L10.6123 17.679H20.5895Z" fill="url(#paint0_linear_1_762)"/>
<path d="M25.5004 26.2916L30.4576 17.6803L20.5349 0.453491H10.6123L25.5004 26.2916Z" fill="#FF414C"/>
<path d="M5.65172 9.06238H15.5744L5.65585 26.2892L0.69043 17.6779L5.65172 9.06238Z" fill="#FF414C"/>
<path d="M54.9456 8.69825L54.6979 11.3597C53.6366 9.29357 51.1956 8.17297 48.5776 8.17297C43.6602 8.17297 40.3701 11.7099 40.3701 17.1378C40.3701 22.5308 43.3418 26.4529 48.5423 26.4529C51.3724 26.4529 53.4597 25.0872 54.5564 23.3012L54.8394 25.9976H58.8724V8.69825H54.9456ZM54.4857 17.3479C54.4857 20.4646 52.5399 22.6008 49.5328 22.6008C46.5257 22.6008 44.6861 20.4296 44.6861 17.3479C44.6861 14.2662 46.5611 12.06 49.5682 12.06C52.5753 12.06 54.4857 14.2312 54.4857 17.3479Z" fill="#232323"/>
<path d="M66.2162 25.9977V21.3402L68.7633 18.7138L73.327 25.9977H78.2799L71.7705 15.5621L78.4214 8.69831H73.0086L66.2162 15.9473V0.453003H61.9355V25.9977H66.2162Z" fill="#232323"/>
<path d="M92.7737 8.69825L92.5261 11.3597C91.4647 9.29357 89.0237 8.17297 86.4058 8.17297C81.4883 8.17297 78.1982 11.7099 78.1982 17.1378C78.1982 22.5308 81.1699 26.4529 86.3704 26.4529C89.2006 26.4529 91.2878 25.0872 92.3845 23.3012L92.6676 25.9976H96.7006V8.69825H92.7737ZM92.3138 17.3479C92.3138 20.4646 90.368 22.6008 87.361 22.6008C84.3539 22.6008 82.5143 20.4296 82.5143 17.3479C82.5143 14.2662 84.3893 12.06 87.3963 12.06C90.4034 12.06 92.3138 14.2312 92.3138 17.3479Z" fill="#232323"/>
<path d="M98.8848 20.7448C98.8848 24.1416 101.644 26.4529 105.995 26.4529C110.311 26.4529 113.318 24.2817 113.318 20.7798C113.318 18.1183 111.832 16.7876 108.896 16.1223L105.748 15.3869C104.262 15.0367 103.483 14.4063 103.483 13.4258C103.483 12.1301 104.474 11.3597 106.172 11.3597C107.835 11.3597 108.825 12.3052 108.861 13.776H112.965C112.929 10.4142 110.276 8.17297 106.349 8.17297C102.316 8.17297 99.4155 10.2041 99.4155 13.6009C99.4155 16.3674 100.936 17.8382 104.085 18.5386L107.233 19.274C108.79 19.6242 109.25 20.2545 109.25 21.13C109.25 22.3907 108.153 23.1961 106.137 23.1961C104.156 23.1961 103.023 22.2506 102.988 20.7448H98.8848Z" fill="#232323"/>
<path d="M120.04 25.9977V16.5426C120.04 13.9512 121.632 12.0601 124.356 12.0601C126.549 12.0601 128 13.4609 128 16.3675V25.9977H132.316V15.3519C132.316 10.8695 130.052 8.17303 125.736 8.17303C123.224 8.17303 121.172 9.25862 120.075 10.9395V0.453003H115.724V25.9977H120.04Z" fill="#232323"/>
</g>
</mask>
<g mask="url(#mask0_1_762)">
<rect x="-17.3096" y="-30.5469" width="170" height="92" fill="white"/>
</g>
<defs>
<linearGradient id="paint0_linear_1_762" x1="19.5973" y1="23.6331" x2="23.2333" y2="19.2698" gradientUnits="userSpaceOnUse">
<stop stop-color="#FF414C"/>
<stop offset="1" stop-color="#FF414C" stop-opacity="0"/>
</linearGradient>
<clipPath id="clip0_1_762">
<rect width="132" height="26" fill="white" transform="translate(0.69043 0.453003)"/>
</clipPath>
</defs>
</svg>
