<svg width="111" height="29" viewBox="0 0 111 29" fill="none" xmlns="http://www.w3.org/2000/svg">
<path d="M42.8747 28.1476C42.7627 28.1476 42.6719 28.057 42.6719 27.9452V13.3923C42.6719 13.2805 42.7627 13.1899 42.8747 13.1899H49.6275C51.876 13.1899 53.431 13.7773 54.4187 14.7843C55.2803 15.6234 55.7216 16.7562 55.7216 18.2038V18.2457C55.7216 20.3969 54.6215 21.8545 52.9207 22.6554C52.8052 22.7098 52.7623 22.8543 52.8339 22.9597L56.1454 27.8315C56.2368 27.9659 56.1403 28.1476 55.9776 28.1476H51.7623C51.6941 28.1476 51.6305 28.1134 51.593 28.0566L48.5949 23.5184C48.5574 23.4616 48.4938 23.4274 48.4256 23.4274H46.9514C46.8394 23.4274 46.7486 23.5181 46.7486 23.6298V27.9452C46.7486 28.057 46.6578 28.1476 46.5458 28.1476H42.8747ZM46.7486 20.0363C46.7486 20.1481 46.8394 20.2387 46.9514 20.2387H49.4384C50.8253 20.2387 51.6238 19.5674 51.6238 18.4975V18.4555C51.6238 17.3017 50.7833 16.7143 49.4174 16.7143H46.9514C46.8394 16.7143 46.7486 16.8049 46.7486 16.9167V20.0363Z" fill="white"/>
<path d="M63.1392 28.1476C59.5037 28.1476 56.877 25.4833 56.877 22.2526V22.2107C56.877 18.98 59.5248 16.2737 63.1812 16.2737C66.8166 16.2737 69.4433 18.938 69.4433 22.1687V22.2107C69.4433 25.4414 66.7956 28.1476 63.1392 28.1476ZM63.1812 24.77C64.6311 24.77 65.5558 23.6162 65.5558 22.2526V22.2107C65.5558 20.8261 64.5471 19.6513 63.1392 19.6513C61.6892 19.6513 60.7646 20.8051 60.7646 22.1687V22.2107C60.7646 23.5953 61.7732 24.77 63.1812 24.77Z" fill="white"/>
<path d="M74.9122 28.1266C72.4956 28.1266 71.0457 26.5322 71.0457 23.9519V16.7279C71.0457 16.6161 71.1365 16.5255 71.2485 16.5255H74.8355C74.9475 16.5255 75.0383 16.6161 75.0383 16.7279V22.6722C75.0383 23.9099 75.6898 24.5812 76.6564 24.5812C77.602 24.5812 78.3165 23.9099 78.3165 22.6722V16.7279C78.3165 16.6161 78.4073 16.5255 78.5193 16.5255H82.1064C82.2184 16.5255 82.3092 16.6161 82.3092 16.7279V27.9452C82.3092 28.057 82.2184 28.1476 82.1064 28.1476H78.5193C78.4073 28.1476 78.3165 28.057 78.3165 27.9452V26.9125C78.3165 26.7197 78.2925 26.7721 78.1602 26.9125C77.4528 27.6638 76.2682 28.1266 74.9122 28.1266Z" fill="white"/>
<path d="M88.9661 28.1056C86.5706 28.1056 85.1416 27.0567 85.1416 24.3505V19.9376C85.1416 19.8258 85.0508 19.7352 84.9388 19.7352H83.9995C83.8875 19.7352 83.7967 19.6446 83.7967 19.5328V16.7279C83.7967 16.6161 83.8875 16.5255 83.9995 16.5255H84.9388C85.0508 16.5255 85.1416 16.4349 85.1416 16.3231V13.8539C85.1416 13.7421 85.2324 13.6514 85.3444 13.6514H88.9315C89.0435 13.6514 89.1343 13.7421 89.1343 13.8539V16.3231C89.1343 16.4349 89.2251 16.5255 89.337 16.5255H91.5792C91.6912 16.5255 91.782 16.6161 91.782 16.7279V19.5328C91.782 19.6446 91.6912 19.7352 91.5792 19.7352H89.337C89.2251 19.7352 89.1343 19.8258 89.1343 19.9376V23.5743C89.1343 24.3715 89.4915 24.7071 90.227 24.7071C90.6465 24.7071 91.0526 24.6135 91.4452 24.4583C91.584 24.4034 91.74 24.5018 91.74 24.6507V27.3365C91.74 27.4099 91.7005 27.4778 91.6354 27.5117C90.9343 27.8775 90.0264 28.1056 88.9661 28.1056Z" fill="white"/>
<path d="M93.7009 15.4975C93.5889 15.4975 93.4981 15.4069 93.4981 15.2951V12.763C93.4981 12.6512 93.5889 12.5605 93.7009 12.5605H97.4561C97.5681 12.5605 97.6589 12.6512 97.6589 12.763V15.2951C97.6589 15.4069 97.5681 15.4975 97.4561 15.4975L93.7009 15.4975ZM93.785 28.1476C93.673 28.1476 93.5822 28.057 93.5822 27.9452V16.7279C93.5822 16.6161 93.673 16.5255 93.785 16.5255H97.372C97.484 16.5255 97.5748 16.6161 97.5748 16.7279V27.9452C97.5748 28.057 97.484 28.1476 97.372 28.1476H93.785Z" fill="white"/>
<path d="M105.43 28.1476C101.858 28.1476 99.3359 25.777 99.3359 22.2526V22.2107C99.3359 18.8961 101.71 16.2737 105.073 16.2737C109.002 16.2737 110.81 19.1478 110.81 22.4834C110.81 22.6783 110.81 22.8984 110.8 23.1144C110.795 23.2201 110.707 23.3016 110.601 23.3016H103.442C103.31 23.3016 103.213 23.4263 103.256 23.5512C103.624 24.6239 104.487 25.1686 105.64 25.1686C106.535 25.1686 107.26 24.8495 108.029 24.1402C108.106 24.07 108.222 24.0649 108.302 24.1309L110.216 25.7139C110.301 25.784 110.314 25.909 110.244 25.9933C109.157 27.2923 107.615 28.1476 105.43 28.1476ZM103.166 21.0316C103.137 21.1537 103.233 21.2666 103.358 21.2666H106.841C106.963 21.2666 107.057 21.1608 107.036 21.0417C106.831 19.9137 106.12 19.2107 105.094 19.2107C104.111 19.2107 103.422 19.9264 103.166 21.0316Z" fill="white"/>
<path d="M6.79278 14.8191L5.48745 8.18188L5.18303 1.2182C5.17301 0.988408 5.34611 0.794204 5.57711 0.776098L5.78154 0.760091C5.79252 0.759232 5.80362 0.758789 5.81451 0.758789C5.99973 0.758789 6.17257 0.886337 6.22551 1.06208L8.29645 7.93946L9.09261 14.8191H6.79278Z" fill="white"/>
<path d="M24.8145 14.8191L25.6107 7.93921L27.6816 1.06206C27.7345 0.886337 27.9074 0.758789 28.0927 0.758789C28.1036 0.758789 28.1146 0.759219 28.1253 0.760066L28.3884 0.780662L28.443 0.800171C28.6165 0.862074 28.7321 1.03401 28.7241 1.21828L28.4196 8.18183L27.1143 14.8191H24.8145L24.8145 14.8191Z" fill="white"/>
<path d="M7.2647 28.1475C6.0696 28.1475 4.89951 27.7369 3.96996 26.9913C3.04041 26.2457 2.39033 25.1963 2.13946 24.0365L0.912386 18.3006C0.618875 16.9285 0.960624 15.5165 1.85001 14.4265C2.7394 13.3366 4.05994 12.7114 5.47302 12.7114H28.4335C29.847 12.7114 31.1678 13.3368 32.0572 14.4273C32.9466 15.5177 33.2879 16.9301 32.9938 18.3024L31.7646 24.0368C31.5138 25.1963 30.8637 26.2457 29.9341 26.9913C29.0046 27.7369 27.8345 28.1475 26.6394 28.1475H7.2647V28.1475ZM5.47302 15.6975C4.78666 15.6975 4.37311 16.0787 4.1877 16.306C4.00228 16.5332 3.71251 17.0139 3.85508 17.6803L5.08064 23.4093C5.18761 23.9038 5.46463 24.351 5.86074 24.6687C6.25684 24.9864 6.75544 25.1614 7.2647 25.1614H26.6394C27.1487 25.1614 27.6473 24.9864 28.0434 24.6687C28.4395 24.351 28.7165 23.9038 28.8234 23.4096L30.0514 17.681C30.1942 17.0145 29.9045 16.5336 29.7191 16.3062C29.5337 16.0789 29.1201 15.6975 28.4336 15.6975H22.0589L22.0528 15.6979C21.6724 15.7257 21.341 15.9726 21.2085 16.3271L21.1312 16.5337C20.9552 17.0042 20.4973 17.3203 19.9917 17.3203H13.9146C13.409 17.3203 12.951 17.0042 12.7751 16.5337L12.6978 16.3271C12.5653 15.9726 12.2338 15.7257 11.8535 15.6979L11.8474 15.6975H5.47302Z" fill="white"/>
</svg>
