<?xml version="1.0" encoding="UTF-8"?><svg id="_Слой_2" xmlns="http://www.w3.org/2000/svg" viewBox="0 0 178.08 37.7"><defs><style>.cls-1{fill:#fff;stroke-width:0px;}</style></defs><g id="katman_1"><path class="cls-1" d="M170.45,13.95c-.9,0-2.6.1-2.7,1.3-.1.2-.1,1.7-.1,3.9v3.6l.4.2c.2.1.5.2.9.3,1.5.4,3.7.1,4.8-.9s1.1-2.6,1.1-3.7c-.1-1.6-.8-4.7-4.4-4.7ZM162.95,12.85q.1-.1.3-.1c.7,0,2.1-.2,3.2-.2h.3c1.2-.1,3.5-.2,5-.1,2.9.1,5,1.6,5.7,3.9.7,2.4.4,4.6-.6,6s-2.6,2.6-5.3,2.5c-2.2,0-2.8-.5-3.3-.8-.1-.1-.2-.1-.3-.2v3c0,2.1,0,3,.2,3.4.2.5.7.8,1.6,1,0,0,.4.1.5.2s.1.3.1.3c0,0,0,.2-.1.3s-.3.1-.3.1h-6.7s-.3,0-.4-.1-.1-.3-.1-.3c0,0,0-.2.1-.3s.5-.2.5-.2c1-.3,1.4-.6,1.6-1.1.2-.4.2-1.2.2-7.8s-.1-7.5-.2-7.8c-.2-.5-.7-.6-1.5-.8-.2,0-.3-.1-.5-.1,0,0-.3,0-.3-.1v-.4s0-.1.3-.3Z"/><path class="cls-1" d="M150.35,23.15h2.7s-.1-.3-.3-.7-.6-1.3-.9-2.1-.7-1.7-.8-2-.3-.9-.5-1.3c-.3-.7-.4-.8-.5-.8,0,.1-.2.6-.4,1.1-1.2,3.4-1.8,5-1.9,5.3,0,.2-.1.4-.1.4,0,.1,1,.1,2.7.1ZM144.35,27.05c.5-1.2,1-2.6,1.2-3,.6-1.5,1.2-2.9,2.1-5.1.5-1.2,1.2-3,1.6-4l.7-1.8.8-.4c.3-.1.5-.2.5-.2,0,0,.4-.2.5,0,0,.1.2.4.6,1.4.1.2.2.4.2.6.5,1.4,1.3,3.4,1.7,4.5s1.2,3.1,1.8,4.7c.6,1.5,1.3,3.4,1.7,4.3.3.9.8,1.7.9,1.9.1.1.1.2.2.3.3.4.6,1,1.3,1.1,0,0,.5.1.6.2s.1.2.1.2v.3s0,.1-.1.1c0,.1-.2,0-.2,0h-7.4c-.1,0-.1-.2-.1-.2v-.2s0-.2.1-.3.6-.2.6-.2c.9-.1,1.3-.8,1.4-1.2v-.1c.2-.4.1-.7-.8-2.8-.6-1.4-.8-1.8-.9-1.9h-6.7l-.2.5c-.6,1.6-1.1,3.1-1.1,3.5-.2.8.1,1.8,1.3,2,0,0,.5.1.6.2s.2.3.2.3v.2s0,.1-.1.2-.3,0-.3,0h-6.1s-.1,0-.2-.1-.1-.2-.1-.2v-.2s0-.1.2-.3.6-.2.6-.2c.8-.1,1.3-1,1.6-1.5,0,0,0-.1.1-.1.1-.2.6-1.3,1.1-2.5Z"/><path class="cls-1" d="M128.85,20.75c-.8-2-.8-2.1-1.1-1.5-.1.3-1.3,3.4-2.6,6.8l-2.3,6.2-.9-.1-.9-.1-3.3-8.7c-1.9-4.9-3.6-9-3.9-9.3s-.8-.6-1.1-.6c-.4,0-.6-.2-.7-.5-.2-.5-.1-.5,3.7-.3,3.5,0,3.7,0,3.7.5,0,.4-.1.5-.7.5-1.6,0-1.6.3.8,6.8,1.2,3.3,2.4,6.5,2.6,7l.4,1,1.9-5.1c2.3-6,2.6-7.1,2.2-8.2-.3-.7-1.3-1.5-2.1-1.5-.2,0-.4-.2-.4-.5,0-.5.2-.5,3.9-.5s3.9,0,3.9.5c0,.4-.2.5-.6.5-1.1,0-1.6.5-1.4,1.6.1,1.2,4.4,13.2,4.6,13,.3-.3,5.1-13.2,5.1-13.7,0-.6-.4-.9-1.4-.9-.4,0-.6-.1-.6-.5,0-.5.2-.5,3-.5,2.5,0,3,.1,3,.4,0,.2-.3.5-.7.6-.8.3-1,.6-2.1,3.4-.5,1.2-2,5-3.3,8.4-1.4,3.4-2.5,6.3-2.6,6.5s-.5.3-.9.3h-.8l-1.8-4.7c-1-2.6-2.2-5.6-2.6-6.8Z"/><path class="cls-1" d="M102.75,31.15c2,0,3.4-1,3.9-3,.2-.9.1-1.2-.3-2.1-.5-1.1-1.5-1.8-4.6-3.6-1.8-1-3-2.4-3.4-3.7-.9-3.1.6-5.7,3.9-6.5.9-.3,5.2-.2,5.9.1.3.1.4.5.4,1.3,0,.6.1,1.4.2,1.7.2.5.1.6-.4.6s-.7-.3-1.1-1.1c-.6-1.3-1.3-1.7-3-1.7-2.2,0-3.8,1.4-3.5,3.2.2,1.1,1.3,2.2,3.9,3.8,2.4,1.5,3.8,2.7,4.4,3.8,1.5,2.9.2,6-3.2,7.6-1.7.8-4.6.9-6.7.2l-1.3-.4v-2.1c0-1.9.1-2.1.5-2.1.3,0,.5.2.6,1,.4,1.9,1.8,3,3.8,3Z"/><path class="cls-1" d="M85.75,12.95c0-.5.2-.5,3.6-.5,3.6,0,3.8,0,3.8.5,0,.4-.1.5-.6.5-.3,0-.8.2-1.1.5-.5.5-.5.8-.4,8.4.1,7.4.1,7.9.6,8.2.3.2.8.4,1.1.4.4,0,.6.1.6.5,0,.5-.2.5-3.8.5s-3.8-.1-3.8-.5c0-.3.3-.5,1-.6,1.5-.2,1.6-.7,1.5-9.3-.1-6.9-.1-7.4-.6-7.7-.3-.2-.8-.4-1.2-.4-.5,0-.7-.1-.7-.5Z"/><path class="cls-1" d="M61.05,30.85c1.5-.3,1.6-.8,1.7-8.2,0-4.1,0-7-.2-7.6-.3-1.1-1-1.6-2.3-1.6-.5,0-.7-.1-.7-.5,0-.5.1-.5,2.7-.4h2.6l1.2,1.4c.7.8,2.9,3.2,4.9,5.4s4.3,4.8,5.1,5.7,1.6,1.7,1.7,1.7.1-2.6.1-6l-.1-6-.7-.6c-.4-.3-1-.6-1.3-.6-.4,0-.6-.1-.6-.5,0-.5.1-.5,3.4-.4,2.8,0,3.4.1,3.4.4,0,.2-.3.4-.8.5-.4.1-.9.3-1.1.5s-.3,2.8-.4,9.1l-.1,8.8h-.7c-.6,0-1.3-.8-5.3-5.1-2.6-2.7-5.5-6-6.6-7.3s-2.1-2.3-2.2-2.3c-.3-.1-.3,11.2.1,12.4.3.8.4.9,1.4,1.2.8.2,1.1.4,1.1.7,0,.4-.3.4-3.5.4s-3.5-.1-3.5-.5c0-.3.2-.5.7-.6Z"/><path class="cls-1" d="M38.95,28.85c-.5-1-.6-1.5-.7-7.8-.1-7.3-.2-7.6-1.4-7.6-.4,0-.6-.1-.6-.5,0-.5.2-.5,3.6-.4,3.1,0,3.5,0,3.4.4-.1.2-.5.5-1,.7l-.9.3-.1,6.4c-.1,4.3,0,6.7.2,7.4.5,2,2.3,3.1,4.7,3.1,1.7,0,2.7-.4,3.9-1.6,1.4-1.3,1.6-2.5,1.6-8.8s-.1-6.7-1.4-6.8c-.6-.1-.8-.2-.8-.6,0-.5.2-.5,3-.5s3,0,3,.5c0,.3-.1.5-.4.5-1.1,0-1.1.1-1.3,6.9-.1,7-.3,7.9-1.7,9.6-.4.5-1.4,1.2-2.2,1.6-1.2.6-1.7.7-3.9.7s-2.8-.1-3.8-.6c-1.5-.7-2.5-1.6-3.2-2.9Z"/><path class="cls-1" d="M29.35,18.55c3.5,2.2,3,6.4,1.8,8,.13-3.66-5.23-4.22-8.56-6.25-1.68-1.02-2.84-2.41-2.54-4.75,2,2.1,6.1,1,9.3,3Z"/><path class="cls-1" d="M27.15,12.85c-.08,0-.15-.06-.18-.13.03.04.1.06.18.13Z"/><path class="cls-1" d="M24.15,22.05c2,1.3,5.2,2.3,6.2,4.9,1.2,2.9-.2,6.6-3.1,7.8,2.9-4.8-4.8-8-3.1-12.7Z"/><path class="cls-1" d="M17.25,26.75c1.1-.2,2.3-.3,3.2-.7.5-.2.9-.4,1.3-.8.4-.3.6-.7.8-1.2s.2-1,.2-1.5c0-.6-.2-1.1-.4-1.6.4.4.7,1,.9,1.6s.2,1.2.1,1.8-.5,1.2-.9,1.7c-.4.4-1,.8-1.6,1s-1.2.3-1.8.4c-.6,0-1.1.1-1.7.1-1.1,0-2.2.2-3.3.6l1.5-.9c.5-.2,1.1-.4,1.7-.5Z"/><path class="cls-1" d="M12.75,13.15c-1.1-1.2-1.7-3-1.7-4.6,0-.1.1-.3.1-.5.2.03.4.06.6.11.58.16,1.12.44,1.5.89.5.6.7,1.4.9,2.1.1.6.2,1.2.4,1.7.1.3.3.5.4.7s.3.4.4.6v.2c-.3.3-1,0-1.3-.2-.38-.15-.69-.41-1-.7l-.3-.3Z"/><path class="cls-1" d="M13.75,7.65c.9.4,1.8.9,2.5,1.6.5.4.9.9,1.3,1.4,3.1-.6,5.5-.1,7.4,1,.6.3,1.2.7,1.7,1.2.1.1.2.1.2.2.4.4.8.8,1.1,1.2,1.4,1.3,2,2.8,2,3.7-.1-.2-.2-.4-.4-.6-.4-.6-1-1-1.7-1.1-.4-.1-.9-.2-1.4-.2s-.9-.1-1.4-.1c-1-.1-1.9-.2-2.9-.4-.2-.1-.5-.1-.7-.2-.1,0-.2-.1-.4-.1-.1-.1-.2-.1-.4-.2-.12-.05-.24-.11-.36-.18-.33-.21-.62-.49-.84-.72-.7-.7-1.3-1.5-1.9-2.2-.6-.8-1.1-1.5-1.8-2.2-.6-.7-1.4-1.3-2.2-1.7-.49-.24-1.05-.45-1.62-.59-.36-.1-.73-.17-1.08-.21,1-.1,2,0,2.9.4Z"/><path class="cls-1" d="M13.05,33.85c-.4-.5-.9-.8-1.5-1.1-.4-.2-.8-.3-1.2-.4-.2,0-.4-.1-.6-.1-.1,0-.6-.1-.6-.1.52-.45,1.05-.84,1.58-1.22.17-.13.34-.25.52-.38.8-.5,1.6-.8,2.5-1.1.14-.05.28-.09.43-.12.76-.18,1.53-.16,2.37-.08.5.1.9.2,1.4.4s.9.5,1.3.8c.4.4.7.8.9,1.2s.3.9.4,1.4c.3,1.4.2,3.6,2,3.9h.6c.2,0,.4,0,.6-.1.3,0,.7-.2,1.1-.4-.2.1-.3.3-.5.4l-.6.3c-.4.2-.9.3-1.4.3-1.3,0-2.2-1-2.7-2.1-.4-.7-.6-1.5-1-2.2-.6-1-1.7-1.8-2.9-1.7-.5.1-1,.3-1.2.7-.7,1.1.3,2.7,1.7,2.5.1,0,.2,0,.3-.1.1,0,.2-.1.3-.2.2-.2.3-.4.4-.6s.1-.5.1-.8c-.1-.3-.2-.5-.4-.6.3.1.5.3.6.6-.1.5-.1.8-.1,1.1-.1.3-.2.6-.4.8-.1.1-.2.2-.4.3-.1.1-.3.2-.4.2-.3.1-.6.1-.9.1-.4-.1-.9-.2-1.2-.5-.14-.11-.27-.24-.4-.38.11.11.24.2.4.28l-.9-.9c.12.16.22.3.32.42-.16-.19-.33-.38-.52-.52Z"/><path class="cls-1" d="M13.6,34.4c.05.06.1.12.15.17-.05-.06-.1-.11-.15-.17Z"/><path class="cls-1" d="M13.25,33.95l.9.9c-.16-.08-.29-.17-.4-.28-.05-.05-.1-.11-.15-.17l-.03-.03c-.1-.12-.2-.26-.32-.42Z"/><path class="cls-1" d="M12.65,17.65c.2-.2.6-.4.9-.4s.7,0,.9.2c.4.1.6.3.8.6.8,1.4-1,1.8-1.8,1.9-1.2.1-1.5-.6-1.3-1.5.1-.3.3-.6.5-.8Z"/><path class="cls-1" d="M8.75,17.35c-.2.2-.4.4-.4.7,0,.1-.1.3-.1.4,0,.4-.1.7-.1,1.2-.1.8-.3,1.5-.6,2.2-.4.9-.9,1.7-.8,2.7.1.7.4,1.2.9,1.6.8.9,2.7,1.3,2.3,3.4-.09.41-.36.81-.78,1.19-.91.84-2.53,1.57-4.52,1.91.3,0-.4-1.2-.4-1.3-.3-.5-.7-1-.9-1.5-.5-1-.7-2.3-.5-3.4.2-1.2,1.1-2.1,1.8-3.1.9-1.1,1.8-2.5,2-4,0-.3.1-.8.2-1.2.1-.5.2-.9.4-1.4.1-.3.3-.5.6-.8.1-.1.2-.3.2-.4,0-.2,0-.3-.1-.5L3.25,6.55l6.8,8.4c.1.1.2.2.3.2.1.1.2.1.4.1.1,0,.2,0,.4-.1.1-.1.2-.1.3-.2s.1-.2.1-.4c0-.1,0-.3-.1-.4-.4-.6-.9-1.1-1.4-1.7l-1.7-2.1-3.4-4.2L.25.25l5.1,5.5,3.6,4,1.8,2c.6.7,1.2,1.3,1.8,2.1l.1.1v.2c0,.4,0,.7-.1,1s-.2.5-.3.7c-.3.4-.7.7-1.1.9s-.8.3-1.3.3h-.3c-.3,0-.5.1-.8.3Z"/></g></svg>