<svg width="42" height="42" viewBox="0 0 42 42" fill="none" xmlns="http://www.w3.org/2000/svg">
<rect width="42" height="42" rx="21" fill="url(#paint0_linear_31_399)"/>
<path d="M22.0625 27.1094C22.0625 27.4616 21.9226 27.7994 21.6735 28.0485C21.4244 28.2976 21.0866 28.4375 20.7344 28.4375C20.3821 28.4375 20.0443 28.2976 19.7952 28.0485C19.5462 27.7994 19.4062 27.4616 19.4062 27.1094C19.4062 26.7571 19.5462 26.4193 19.7952 26.1702C20.0443 25.9212 20.3821 25.7812 20.7344 25.7812C21.0866 25.7812 21.4244 25.9212 21.6735 26.1702C21.9226 26.4193 22.0625 26.7571 22.0625 27.1094ZM20.7832 24.8367C20.0342 24.8367 19.4259 24.2752 19.4259 23.5829V22.1007C19.4259 21.1854 20.1356 20.4002 21.11 20.2339C21.9382 20.0932 22.5353 19.4222 22.5353 18.6423V17.9814C22.5353 17.0815 21.7692 16.333 20.8231 16.3117C20.3585 16.2977 19.9065 16.4637 19.5614 16.775C19.2235 17.0815 19.0375 17.4922 19.0375 17.9294C19.0375 18.6211 18.4293 19.1831 17.6802 19.1831C16.9311 19.1831 16.317 18.6211 16.317 17.9241C16.317 16.8063 16.7957 15.7555 17.6574 14.9756C18.5249 14.1947 19.6681 13.7739 20.8794 13.8C23.2897 13.8467 25.25 15.7242 25.25 17.9761V18.6423C25.25 20.4257 24.0159 21.9833 22.2362 22.5454C22.2087 22.5539 22.1845 22.5709 22.1673 22.594C22.1502 22.6172 22.1408 22.6452 22.1406 22.674V23.5782C22.1406 24.2752 21.5328 24.8367 20.7832 24.8367Z" fill="white"/>
<defs>
<linearGradient id="paint0_linear_31_399" x1="0" y1="21" x2="42" y2="21" gradientUnits="userSpaceOnUse">
<stop stop-color="#00052F"/>
<stop offset="1" stop-color="#0C46DD"/>
</linearGradient>
</defs>
</svg>
