<svg width="80" height="80" viewBox="0 0 80 80" fill="none" xmlns="http://www.w3.org/2000/svg">
<rect width="80" height="80" rx="15" fill="#FF9039"/>
<path d="M63.6198 23.7069L40.278 12.8627C40.1022 12.7791 39.9 12.7791 39.722 12.8627L27.7676 18.4158H27.6731V18.4598L16.3824 23.7069C16.167 23.8082 16.022 24.0195 16.0044 24.2572H16V43.9956H16.011C16.0483 44.2025 16.1802 44.3852 16.3736 44.4798L25.1877 48.7233L31.3408 51.6858L39.7154 55.718C39.8055 55.762 39.9022 55.784 40.0011 55.784C40.1 55.784 40.1967 55.762 40.2868 55.718L63.6264 44.4798C63.8572 44.3675 64 44.1364 64 43.8833V24.3034C64 24.0459 63.8506 23.8148 63.6198 23.7069ZM17.3185 25.3577L25.2537 29.1786L17.3185 32.8674V25.3577ZM25.2559 47.2904L25.1877 47.2574L18.2041 43.8943L25.1877 40.6501L25.2559 40.6193V47.2904ZM25.2559 39.16L25.1877 39.1908L17.3185 42.8511V34.954L25.2559 38.7749V39.1622V39.16ZM25.2559 37.3068L18.2041 33.9107L25.2559 30.6334V37.3068ZM27.6731 25.3533L25.2559 26.478V27.7105L18.2041 24.3166L27.6731 19.9147V25.3533ZM52.3994 19.9477L52.4653 19.9785L61.7981 24.3166L54.8166 27.6775V26.5726L52.3994 25.4479V19.9477ZM54.8166 30.6642L61.7981 33.9107L54.8166 37.2716V30.6642ZM28.9916 24.7392V19.305L29.0575 19.2742L39.2759 14.5223V19.9499L28.9916 24.7392ZM39.41 54.1069L39.3419 54.0739L31.4089 50.253V44.4534L39.41 48.1818V54.1069ZM40.0011 41.7462L31.4089 37.6193V30.4111L40.0363 26.4208L48.6636 30.5058V37.5555L40.0011 41.7462ZM51.0809 49.0556L51.0128 49.0886L40.7285 54.0409V48.1818L51.0809 43.1944V49.0556ZM51.0809 24.8338L40.5944 19.9499V14.4628L40.6604 14.4936L51.0809 19.338V24.836V24.8338ZM52.3994 48.4195V42.5583L54.8166 41.394V40.6479L61.7981 43.8943L52.3994 48.4195ZM62.6815 42.8489L54.8166 39.193V38.7374L62.6815 34.9518V42.8489ZM62.6815 32.8652L54.8166 29.2072V29.1434L62.6815 25.3577V32.8652Z" fill="#181B1F"/>
<path d="M43.7925 33.7237H39.2744V37.9188H43.7925V33.7237Z" fill="#181B1F"/>
<path d="M38.2844 30.5059H35.9551V32.6673H38.2844V30.5059Z" fill="#181B1F"/>
<path d="M38.1685 35.72V33.9702H36.4214V35.72H38.1685Z" fill="#181B1F"/>
<path d="M41.123 32.359V30.8139H39.5804V32.359H41.123Z" fill="#181B1F"/>
<path d="M25.2066 62.4626C25.2066 64.0467 24.015 65.2013 22.412 65.2013H21.2835V67.2879H19.2012V59.7336H22.412C24.015 59.7336 25.2066 60.8784 25.2066 62.4626ZM23.0709 62.4674C23.0709 61.931 22.7099 61.551 22.1636 61.551H21.2845V63.3839H22.1636C22.7109 63.3839 23.0709 63.0039 23.0709 62.4674Z" fill="#181B1F"/>
<path d="M30.6066 67.2879L28.4437 63.9505V67.2879H26.3662V59.7336H28.4437V62.9174L30.4377 59.7336H32.8471L30.4319 63.3927L33.0722 67.2879H30.6066Z" fill="#181B1F"/>
<path d="M39.5331 61.6073H37.4847V67.2879H35.3975V61.6073H33.3491V59.7336H39.5341V61.6073H39.5331Z" fill="#181B1F"/>
<path d="M39.6821 65.4229H41.6257V67.288H39.6821V65.4229Z" fill="#181B1F"/>
<path d="M49.8602 59.7336V67.2879H48.1417L45.1453 63.1886V67.2879H43.1318V59.7336H44.9503L47.8467 63.6969V59.7336H49.8602Z" fill="#181B1F"/>
<path d="M57.3446 64.3189C57.3446 64.4948 57.3291 64.6697 57.3029 64.8505H52.9829C53.1139 65.5191 53.538 65.8642 54.1706 65.8642C54.6383 65.8642 55.0304 65.6591 55.2225 65.318H57.2165C56.807 66.6475 55.63 67.4784 54.1706 67.4784C52.3551 67.4784 51.0103 66.1499 51.0103 64.3694C51.0103 62.5889 52.3445 61.2691 54.1706 61.2691C55.9968 61.2691 57.3446 62.6093 57.3446 64.3189ZM53.0188 63.7387H55.3709C55.1953 63.1565 54.7761 62.8416 54.1716 62.8416C53.5671 62.8416 53.1809 63.1594 53.0188 63.7387Z" fill="#181B1F"/>
<path d="M62.308 65.5298V67.2879H60.9291C59.6424 67.2879 58.8603 66.4998 58.8603 65.2052V63.0068H57.7949V62.5374L60.4022 59.7569H60.8136V61.4606H62.275V63.0068H60.8641V64.8612C60.8641 65.2781 61.1154 65.5298 61.5385 65.5298H62.308Z" fill="#181B1F"/>
</svg>
