<svg width="80" height="80" viewBox="0 0 80 80" fill="none" xmlns="http://www.w3.org/2000/svg">
<rect width="80" height="80" rx="13.3333" fill="white"/>
<g clip-path="url(#clip0_119_1063)">
<path d="M16 53.2463V39.5074L40.1554 25.7537L64.3108 39.5074V53.2463L40.1554 67L16 53.2463Z" fill="white"/>
<path d="M16 53.2463V39.5074L40.1554 53.2463V67L16 53.2463Z" fill="#D3D3D3"/>
<path d="M64.3107 53.2463V39.5074L40.1553 53.2463V67L64.3107 53.2463Z" fill="#E5E5E5"/>
<path d="M16 39.5074V25.7537L40.1554 12L64.3108 25.7537V39.5074L52.2331 46.3694L40.1554 39.5074L28.0777 46.3694L16 39.5074Z" fill="#14BFF4"/>
<path d="M28.0777 46.3694L16 39.5074V25.7537L28.0777 32.6306V46.3694ZM52.2331 46.3694L40.1554 39.5074V25.7537L52.2331 32.6306V46.3694Z" fill="#009ECE"/>
<path d="M28.0776 46.3694V32.6306L40.1553 25.7537V39.5074L28.0776 46.3694ZM52.233 46.3694V32.6306L64.3107 25.7537V39.5074L52.233 46.3694Z" fill="#00ADEE"/>
</g>
<defs>
<clipPath id="clip0_119_1063">
<rect width="48.3108" height="55" fill="white" transform="translate(16 12)"/>
</clipPath>
</defs>
</svg>
