<svg width="346" height="86" viewBox="0 0 346 86" fill="none" xmlns="http://www.w3.org/2000/svg">
<path d="M131.965 85.9227C131.614 85.9227 131.329 85.6383 131.329 85.2876V39.633C131.329 39.2823 131.614 38.9979 131.965 38.9979H153.15C160.204 38.9979 165.082 40.8407 168.181 43.9998C170.884 46.6323 172.268 50.1862 172.268 54.7273V54.8589C172.268 61.6076 168.817 66.1803 163.481 68.6928C163.119 68.8634 162.984 69.3166 163.209 69.6475L173.598 84.9311C173.884 85.3527 173.582 85.9227 173.071 85.9227H159.847C159.633 85.9227 159.434 85.8154 159.316 85.6372L149.911 71.4002C149.793 71.222 149.593 71.1147 149.379 71.1147H144.755C144.403 71.1147 144.118 71.399 144.118 71.7498V85.2876C144.118 85.6383 143.834 85.9227 143.482 85.9227H131.965ZM144.118 60.4761C144.118 60.8268 144.403 61.1111 144.755 61.1111H152.557C156.908 61.1111 159.413 59.0051 159.413 55.6487V55.517C159.413 51.8973 156.776 50.0546 152.491 50.0546H144.755C144.403 50.0546 144.118 50.3389 144.118 50.6896V60.4761Z" fill="#0D4AE7"/>
<path d="M195.538 85.9227C184.133 85.9227 175.893 77.5644 175.893 67.4292V67.2976C175.893 57.1624 184.199 48.6725 195.67 48.6725C207.075 48.6725 215.316 57.0307 215.316 67.1659V67.2976C215.316 77.4328 207.009 85.9227 195.538 85.9227ZM195.67 75.3268C200.219 75.3268 203.12 71.707 203.12 67.4292V67.2976C203.12 62.9539 199.955 59.2684 195.538 59.2684C190.99 59.2684 188.089 62.8881 188.089 67.1659V67.2976C188.089 71.6412 191.253 75.3268 195.67 75.3268Z" fill="#0D4AE7"/>
<path d="M232.472 85.8568C224.891 85.8568 220.342 80.8551 220.342 72.7601V50.0973C220.342 49.7466 220.627 49.4622 220.978 49.4622H232.232C232.583 49.4622 232.868 49.7466 232.868 50.0973V68.7454C232.868 72.6284 234.912 74.7344 237.944 74.7344C240.911 74.7344 243.152 72.6284 243.152 68.7454V50.0973C243.152 49.7466 243.437 49.4622 243.788 49.4622H255.042C255.393 49.4622 255.678 49.7466 255.678 50.0973V85.2876C255.678 85.6383 255.393 85.9227 255.042 85.9227H243.788C243.437 85.9227 243.152 85.6383 243.152 85.2876V82.048C243.152 81.4433 243.077 81.6074 242.662 82.048C240.442 84.4048 236.726 85.8568 232.472 85.8568Z" fill="#0D4AE7"/>
<path d="M276.562 85.791C269.046 85.791 264.564 82.5004 264.564 74.0105V60.1667C264.564 59.816 264.279 59.5316 263.927 59.5316H260.981C260.629 59.5316 260.344 59.2473 260.344 58.8966V50.0973C260.344 49.7466 260.629 49.4622 260.981 49.4622H263.927C264.279 49.4622 264.564 49.1779 264.564 48.8272V41.0809C264.564 40.7302 264.848 40.4458 265.2 40.4458H276.453C276.804 40.4458 277.089 40.7302 277.089 41.0809V48.8272C277.089 49.1779 277.374 49.4622 277.725 49.4622H284.759C285.111 49.4622 285.396 49.7466 285.396 50.0973V58.8966C285.396 59.2473 285.111 59.5316 284.759 59.5316H277.725C277.374 59.5316 277.089 59.816 277.089 60.1667V71.5754C277.089 74.0763 278.21 75.1293 280.517 75.1293C281.833 75.1293 283.107 74.8356 284.339 74.3487C284.774 74.1766 285.264 74.4852 285.264 74.9524V83.3783C285.264 83.6083 285.14 83.8213 284.936 83.9279C282.736 85.0754 279.888 85.791 276.562 85.791Z" fill="#0D4AE7"/>
<path d="M291.415 46.2374C291.064 46.2374 290.779 45.9531 290.779 45.6023V37.6586C290.779 37.3079 291.064 37.0236 291.415 37.0236H303.196C303.547 37.0236 303.832 37.3079 303.832 37.6586V45.6023C303.832 45.953 303.547 46.2374 303.196 46.2374L291.415 46.2374ZM291.679 85.9227C291.328 85.9227 291.043 85.6383 291.043 85.2876V50.0973C291.043 49.7466 291.328 49.4622 291.679 49.4622H302.932C303.284 49.4622 303.569 49.7466 303.569 50.0973V85.2876C303.569 85.6383 303.284 85.9227 302.932 85.9227H291.679Z" fill="#0D4AE7"/>
<path d="M328.211 85.9227C317.004 85.9227 309.093 78.4858 309.093 67.4292V67.2976C309.093 56.8991 316.543 48.6725 327.091 48.6725C339.419 48.6725 345.088 57.6889 345.088 68.1531C345.088 68.7647 345.088 69.4551 345.057 70.1329C345.042 70.4644 344.765 70.7199 344.433 70.7199H321.976C321.561 70.7199 321.256 71.1113 321.391 71.5031C322.546 74.8682 325.252 76.5772 328.871 76.5772C331.677 76.5772 333.952 75.5761 336.366 73.3509C336.605 73.1307 336.971 73.1146 337.222 73.3217L343.226 78.2879C343.492 78.5078 343.534 78.9 343.313 79.1645C339.903 83.2395 335.065 85.9227 328.211 85.9227ZM321.107 63.5987C321.018 63.9817 321.319 64.336 321.713 64.336H332.639C333.019 64.336 333.316 64.004 333.249 63.6302C332.606 60.0916 330.376 57.8863 327.157 57.8863C324.074 57.8863 321.914 60.1314 321.107 63.5987Z" fill="#0D4AE7"/>
<path d="M18.7686 44.1094L14.6736 23.2874L13.7186 1.44126C13.6871 0.720351 14.2302 0.111101 14.9549 0.054301L15.5962 0.00408547C15.6307 0.00138827 15.6655 0 15.6996 0C16.2807 0 16.8229 0.400138 16.989 0.951478L23.4859 22.5269L25.9836 44.1094H18.7686Z" fill="#0D4AE7"/>
<path d="M75.3057 44.1095L77.8036 22.5262L84.3005 0.951398C84.4664 0.400138 85.0088 0 85.5901 0C85.6244 0 85.6588 0.0013486 85.6923 0.00400614L86.5176 0.06862L86.6891 0.129823C87.2334 0.324021 87.5959 0.863422 87.5708 1.4415L86.6156 23.2873L82.5206 44.1095H75.3057L75.3057 44.1095Z" fill="#0D4AE7"/>
<path d="M20.2508 85.9227C16.5016 85.9227 12.8308 84.6345 9.91466 82.2955C6.99852 79.9563 4.95909 76.6643 4.17208 73.0258L0.322551 55.0313C-0.598243 50.727 0.473879 46.2971 3.26403 42.8778C6.05419 39.4583 10.1969 37.4972 14.63 37.4972H86.6609C91.0952 37.4972 95.2386 39.4592 98.0288 42.8801C100.819 46.3009 101.89 50.732 100.967 55.0371L97.1109 73.0267C96.3241 76.6644 94.2846 79.9564 91.3685 82.2955C88.4524 84.6345 84.7816 85.9227 81.0324 85.9227H20.2508V85.9227ZM14.63 46.865C12.4768 46.865 11.1794 48.0609 10.5977 48.7738C10.016 49.4868 9.10699 50.9949 9.55427 53.0855L13.399 71.058C13.7346 72.6096 14.6037 74.0124 15.8463 75.0092C17.089 76.0059 18.6532 76.5549 20.2508 76.5549H81.0324C82.63 76.5549 84.1943 76.0059 85.4369 75.0092C86.6795 74.0125 87.5486 72.6096 87.884 71.0592L91.7363 53.0875C92.1845 50.9966 91.2756 49.4878 90.6939 48.7746C90.1122 48.0615 88.8147 46.865 86.6609 46.865H66.6625L66.6434 46.8664C65.4502 46.9533 64.4104 47.7281 63.9946 48.8402L63.7522 49.4883C63.2002 50.9644 61.7636 51.9561 60.1774 51.9561H41.1126C39.5264 51.9561 38.0898 50.9644 37.5378 49.4883L37.2954 48.8401C36.8795 47.7281 35.8398 46.9533 34.6466 46.8664L34.6276 46.865H14.63Z" fill="#0D4AE7"/>
</svg>
