<svg width="163" height="80" viewBox="0 0 163 80" fill="none" xmlns="http://www.w3.org/2000/svg">
<path fill-rule="evenodd" clip-rule="evenodd" d="M43.8767 79.6426C57.8688 79.6426 69.2397 70.1159 69.2397 56.1222H69.2355C69.2355 48.0005 66.9562 40.8446 58.526 36.7275C62.5451 33.4927 64.9154 28.2439 64.9154 22.7304C64.9154 10.8967 55.2499 0 43.4211 0H0V79.6426L43.8767 79.6426ZM43.5345 31.5385H14.2147V14.2207H43.5345C47.5167 14.2207 50.8141 18.9567 50.8141 22.9405C50.8141 26.9244 47.5167 31.5385 43.5345 31.5385ZM55.0208 55.4834C55.0208 61.6272 50.0179 65.4261 43.8767 65.4261H14.2147V45.7634H43.8767C50.0179 45.7634 55.0208 49.3396 55.0208 55.4834ZM78.8399 0V79.6426H93.0546V0H78.8399ZM149.619 62.878V79.6429H163V26.1314L162.987 25.9202L162.986 25.9128L162.986 25.905L162.985 25.8878L162.982 25.848C162.98 25.8189 162.977 25.7849 162.974 25.7461C162.968 25.6686 162.959 25.5718 162.948 25.4569C162.925 25.2275 162.89 24.925 162.838 24.5597C162.735 23.8312 162.562 22.8407 162.274 21.6737C161.704 19.3635 160.651 16.2236 158.693 13.03C154.565 6.29828 146.781 0.0211523 133.478 0.0211523C120.175 0.0211523 112.389 6.2977 108.258 13.0274C106.298 16.2203 105.243 19.3597 104.672 21.6697C104.384 22.8367 104.21 23.827 104.106 24.5555C104.054 24.9208 104.019 25.2233 103.996 25.4527C103.984 25.5675 103.976 25.6643 103.97 25.7419C103.966 25.7806 103.964 25.8146 103.962 25.8437L103.959 25.8835L103.958 25.9007L103.957 25.9085C103.957 25.9091 103.958 25.8949 103.96 25.8712L103.957 25.9159L103.943 26.1293V79.6429H117.324V62.878L149.619 62.878ZM149.619 48.6633V26.6622C149.612 26.6027 149.603 26.5281 149.59 26.4395C149.541 26.0944 149.448 25.5511 149.282 24.8777C148.944 23.507 148.337 21.739 147.286 20.0246C145.395 16.9406 141.763 13.4019 133.478 13.4019C125.192 13.4019 121.556 16.9411 119.662 20.0273C118.609 21.7422 118.001 23.5107 117.662 24.8816C117.495 25.5551 117.402 26.0985 117.353 26.4436C117.34 26.5314 117.331 26.6056 117.324 26.6648V48.6633H149.619ZM103.996 25.4527C104.006 25.3562 103.972 25.7462 103.96 25.8712L103.996 25.4527Z" fill="white"/>
</svg>
