<svg width="244" height="54" viewBox="0 0 244 54" fill="none" xmlns="http://www.w3.org/2000/svg">
<path d="M13.9728 53.0902H0V0.0473633H22.2423C28.2772 0.0473633 32.8991 1.5947 36.108 4.69134C39.3154 7.78595 40.9191 12.1485 40.9191 17.7757C40.9191 23.4028 39.3154 27.7655 36.108 30.8601C32.8991 33.9567 28.2757 35.5041 22.2423 35.5041H13.9728V53.0901L13.9728 53.0902ZM13.9728 24.3896H18.6065C23.739 24.3896 26.3052 22.1843 26.3052 17.7757C26.3052 13.3671 23.739 11.1639 18.6065 11.1639H13.9728V24.3896Z" fill="#181B1F"/>
<path d="M59.4948 21.9261L76.5313 0.0475505H93.7834L72.4699 25.1622L95.7789 53.0903H77.6728L59.4948 30.0872V53.0903H45.522V0.0474854H59.4948V21.9261L59.4948 21.9261Z" fill="#181B1F"/>
<path d="M124.175 11.7582V53.0915H110.204V11.7582L96.7378 11.7583V0.0456543H137.642V11.7582H124.175Z" fill="#181B1F"/>
<path d="M183.745 24.4974C182.617 26.6729 181.093 28.4936 179.171 29.9579C177.249 31.4262 175.009 32.5252 172.447 33.2573C169.883 33.9912 167.168 34.3583 164.3 34.3583H151.234V53.0924H145.161V0H165.298C168.321 0 171.074 0.39192 173.56 1.17552C176.045 1.95895 178.172 3.07268 179.94 4.51179C181.708 5.95328 183.064 7.7246 184.013 9.82165C184.961 11.9207 185.435 14.2839 185.435 16.913C185.435 19.7956 184.871 22.3239 183.745 24.4974ZM175.394 8.45649C172.747 6.50982 169.241 5.53669 164.874 5.53669H151.234V28.8979H164.565C166.776 28.8979 168.792 28.6196 170.617 28.0627C172.438 27.5059 174.005 26.7103 175.315 25.6728C176.626 24.6376 177.628 23.3984 178.323 21.9569C179.017 20.5154 179.363 18.9111 179.363 17.1398C179.363 13.2982 178.04 10.403 175.396 8.45625L175.394 8.45655V8.45649Z" fill="#181B1F"/>
<path d="M238.083 53.0924V0H244V53.0924H238.083Z" fill="#181B1F"/>
<path d="M224.651 14.0501V18.998C222.822 17.1897 220.658 15.7481 218.155 14.6739C215.619 13.5871 212.865 13.0427 209.894 13.0427C206.87 13.0427 204.089 13.5871 201.554 14.6739C199.019 15.7626 196.827 17.2411 194.985 19.1113C193.139 20.9818 191.703 23.1698 190.679 25.671C189.653 28.1746 189.141 30.816 189.141 33.5977C189.141 36.3793 189.653 39.0086 190.679 41.485C191.703 43.9639 193.139 46.1247 194.985 47.9704C196.826 49.816 199.004 51.282 201.515 52.3688C204.025 53.4556 206.772 54 209.74 54C212.708 54 215.477 53.4557 218.041 52.3688C220.601 51.2823 222.805 49.8038 224.649 47.9334C224.65 47.9329 224.65 47.9324 224.651 47.9319V53.0909H230.568V14.0501H224.651ZM223.42 39.4973C222.702 41.3409 221.703 42.9408 220.423 44.3018C219.141 45.665 217.604 46.7373 215.811 47.5189C214.018 48.3003 212.044 48.6902 209.892 48.6902C207.792 48.6902 205.845 48.288 204.053 47.4817C202.257 46.6735 200.71 45.589 199.402 44.2279C198.095 42.8669 197.069 41.2523 196.328 39.386C195.584 37.5198 195.213 35.5258 195.213 33.408C195.213 31.2901 195.571 29.3109 196.29 27.4694C197.006 25.6279 197.994 24.0133 199.249 22.6275C200.502 21.2419 202.028 20.1571 203.82 19.3737C205.613 18.5921 207.588 18.2002 209.74 18.2002C211.841 18.2002 213.786 18.6044 215.581 19.4127C217.374 20.219 218.937 21.316 220.27 22.7039C221.601 24.0897 222.638 25.7165 223.381 27.5827C224.123 29.449 224.497 31.4429 224.497 33.5607C224.497 35.6784 224.138 37.6578 223.42 39.4973H223.42Z" fill="#181B1F"/>
</svg>
