<svg width="5355" height="3177" viewBox="0 0 5355 3177" fill="none" xmlns="http://www.w3.org/2000/svg">
<rect x="14.6382" y="14.2961" width="5325.85" height="3148.41" rx="68.3178" fill="#FBFBFB" stroke="black" stroke-width="28.3487"/>
<rect x="28.8125" y="356.618" width="5297.5" height="263.997" fill="#0D4AE7"/>
<path d="M28.8125 951.979H5326.49V3095.69C5326.49 3124.87 5302.83 3148.53 5273.65 3148.53H81.6566C52.4716 3148.53 28.8125 3124.87 28.8125 3095.69V951.979Z" fill="black"/>
<path d="M1725.97 275.649V136.931H1785.42C1820.5 136.931 1843.09 154.964 1843.09 185.68V186.076C1843.09 218.774 1817.92 236.015 1783.44 236.015H1764.42V275.649H1725.97ZM1764.42 205.893H1782.65C1796.32 205.893 1804.64 198.759 1804.64 187.86V187.464C1804.64 175.574 1796.32 169.232 1782.45 169.232H1764.42V205.893ZM1857.13 275.649V168.439H1894.78V190.04C1900.92 175.375 1910.83 165.863 1928.67 166.656V206.29H1925.5C1905.88 206.29 1894.78 217.585 1894.78 242.356V275.649H1857.13ZM1994.65 278.225C1960.37 278.225 1935.6 253.057 1935.6 222.539V222.143C1935.6 191.625 1960.57 166.061 1995.05 166.061C2029.33 166.061 2054.1 191.229 2054.1 221.747V222.143C2054.1 252.661 2029.13 278.225 1994.65 278.225ZM1995.05 246.32C2008.72 246.32 2017.44 235.42 2017.44 222.539V222.143C2017.44 209.064 2007.93 197.967 1994.65 197.967C1980.98 197.967 1972.26 208.866 1972.26 221.747V222.143C1972.26 235.222 1981.77 246.32 1995.05 246.32ZM2070.01 158.729V130.986H2109.24V158.729H2070.01ZM2070.2 307.95C2064.26 307.95 2059.3 307.157 2054.75 306.563V281.594C2056.33 281.792 2058.12 281.792 2059.7 281.792C2067.03 281.792 2070.8 278.621 2070.8 269.307V168.439H2108.45V270.893C2108.45 298.042 2094.58 307.95 2070.2 307.95ZM2182.91 278.225C2149.22 278.225 2125.44 255.832 2125.44 222.539V222.143C2125.44 190.832 2147.84 166.061 2179.54 166.061C2216.6 166.061 2233.64 193.211 2233.64 224.719C2233.64 227.097 2233.64 229.872 2233.45 232.448H2161.71C2164.68 244.14 2173.2 250.085 2184.89 250.085C2193.81 250.085 2200.95 246.716 2208.68 239.186L2229.48 256.426C2219.18 269.505 2204.32 278.225 2182.91 278.225ZM2161.11 213.226H2198.37C2196.98 201.335 2190.05 193.805 2179.74 193.805C2169.83 193.805 2163.1 201.534 2161.11 213.226ZM2301.51 278.225C2269.21 278.225 2245.43 252.859 2245.43 222.539V222.143C2245.43 191.823 2269.01 166.26 2302.9 166.26C2324.89 166.26 2339.56 175.772 2348.67 190.238L2323.11 209.262C2317.96 202.128 2312.21 197.967 2303.1 197.967C2291.01 197.967 2282.09 208.668 2282.09 221.747V222.143C2282.09 236.015 2290.81 246.518 2303.49 246.518C2312.41 246.518 2318.16 242.356 2324.1 235.42L2349.27 253.652C2339.36 268.316 2325.09 278.225 2301.51 278.225ZM2405.22 277.828C2382.63 277.828 2369.15 267.92 2369.15 242.356V198.759H2356.47V168.439H2369.15V141.29H2406.8V168.439H2431.77V198.759H2406.8V235.024C2406.8 242.554 2410.17 245.725 2417.11 245.725C2422.06 245.725 2426.82 244.338 2431.38 242.158V271.685C2424.64 275.45 2415.72 277.828 2405.22 277.828ZM2575.84 278.423C2532.64 278.423 2500.34 248.698 2500.34 206.686V206.29C2500.34 165.863 2532.05 134.156 2575.05 134.156C2599.43 134.156 2616.67 141.687 2631.33 154.37L2608.74 181.519C2598.83 173.196 2588.92 168.439 2575.25 168.439C2555.23 168.439 2539.78 185.284 2539.78 206.488V206.884C2539.78 229.277 2555.43 245.329 2577.43 245.329C2586.74 245.329 2593.88 243.347 2599.62 239.582V222.738H2572.28V194.598H2636.09V257.021C2621.42 269.109 2601.01 278.423 2575.84 278.423ZM2709.92 278.225C2675.63 278.225 2650.86 253.057 2650.86 222.539V222.143C2650.86 191.625 2675.83 166.061 2710.31 166.061C2744.6 166.061 2769.37 191.229 2769.37 221.747V222.143C2769.37 252.661 2744.4 278.225 2709.92 278.225ZM2710.31 246.32C2723.99 246.32 2732.71 235.42 2732.71 222.539V222.143C2732.71 209.064 2723.19 197.967 2709.92 197.967C2696.24 197.967 2687.52 208.866 2687.52 221.747V222.143C2687.52 235.222 2697.03 246.32 2710.31 246.32ZM2839.96 278.225C2805.68 278.225 2780.91 253.057 2780.91 222.539V222.143C2780.91 191.625 2805.88 166.061 2840.36 166.061C2874.64 166.061 2899.41 191.229 2899.41 221.747V222.143C2899.41 252.661 2874.44 278.225 2839.96 278.225ZM2840.36 246.32C2854.03 246.32 2862.75 235.42 2862.75 222.539V222.143C2862.75 209.064 2853.24 197.967 2839.96 197.967C2826.29 197.967 2817.57 208.866 2817.57 221.747V222.143C2817.57 235.222 2827.08 246.32 2840.36 246.32ZM2958.72 278.027C2933.35 278.027 2911.35 256.823 2911.35 222.539V222.143C2911.35 187.265 2933.15 166.061 2958.52 166.061C2974.77 166.061 2984.28 173.394 2991.41 181.519V130.986H3029.07V275.649H2991.41V261.38C2984.08 270.298 2974.77 278.027 2958.72 278.027ZM2970.21 246.518C2982.3 246.518 2992.01 236.411 2992.01 222.143V221.747C2992.01 207.677 2982.3 197.57 2970.21 197.57C2958.12 197.57 2948.21 207.479 2948.21 221.747V222.143C2948.21 236.411 2958.12 246.518 2970.21 246.518ZM3106.38 275.649V136.931H3142.24L3199.32 210.253V136.931H3237.37V275.649H3203.68L3144.42 199.552V275.649H3106.38ZM3312.9 278.225C3279.21 278.225 3255.43 255.832 3255.43 222.539V222.143C3255.43 190.832 3277.82 166.061 3309.53 166.061C3346.59 166.061 3363.63 193.211 3363.63 224.719C3363.63 227.097 3363.63 229.872 3363.43 232.448H3291.69C3294.67 244.14 3303.19 250.085 3314.88 250.085C3323.8 250.085 3330.93 246.716 3338.66 239.186L3359.47 256.426C3349.16 269.505 3334.3 278.225 3312.9 278.225ZM3291.1 213.226H3328.36C3326.97 201.335 3320.03 193.805 3309.73 193.805C3299.82 193.805 3293.08 201.534 3291.1 213.226ZM3399.71 276.441L3367.01 168.439H3403.87L3417.94 222.341L3434.39 168.043H3465.5L3482.15 222.738L3496.62 168.439H3532.88L3499.79 276.441H3467.29L3449.85 220.756L3432.01 276.441H3399.71ZM3585.13 278.027C3567.1 278.027 3549.27 272.874 3534.4 262.173L3548.47 239.384C3560.76 247.509 3574.23 251.67 3585.33 251.67C3591.87 251.67 3594.84 249.689 3594.84 245.923V245.527C3594.84 241.365 3588.9 239.582 3577.6 236.411C3556.4 230.863 3539.56 223.728 3539.56 202.128V201.732C3539.56 178.942 3557.79 166.26 3582.56 166.26C3598.21 166.26 3614.46 170.817 3626.75 178.744L3613.87 202.524C3602.77 196.381 3590.68 192.616 3582.16 192.616C3576.41 192.616 3573.44 194.796 3573.44 197.768V198.165C3573.44 202.326 3579.59 204.308 3590.88 207.677C3612.08 213.622 3628.93 220.954 3628.93 241.762V242.158C3628.93 265.74 3611.29 278.027 3585.13 278.027Z" fill="#040404"/>
<path d="M2275.34 542.626V443.616H2322.16C2337.29 443.616 2347.76 447.577 2354.41 454.366C2360.2 460.024 2363.18 467.662 2363.18 477.421V477.704C2363.18 492.838 2355.11 502.881 2342.81 508.114L2366.43 542.626H2334.75L2314.8 512.64H2314.52H2302.78V542.626H2275.34ZM2302.78 491.141H2320.88C2330.22 491.141 2335.59 486.615 2335.59 479.401V479.118C2335.59 471.339 2329.94 467.379 2320.74 467.379H2302.78V491.141ZM2435.28 544.606C2404.72 544.606 2382.09 521.834 2382.09 493.404V493.121C2382.09 464.691 2405.01 441.636 2435.56 441.636C2466.11 441.636 2488.74 464.408 2488.74 492.838V493.121C2488.74 521.551 2465.83 544.606 2435.28 544.606ZM2435.56 519.854C2450.69 519.854 2460.74 507.69 2460.74 493.404V493.121C2460.74 478.836 2450.41 466.389 2435.28 466.389C2420.28 466.389 2410.24 478.553 2410.24 492.838V493.121C2410.24 507.407 2420.57 519.854 2435.56 519.854ZM2497.25 542.626L2539.4 442.909H2565.85L2608 542.626H2578.58L2571.36 524.946H2533.17L2526.1 542.626H2497.25ZM2541.23 503.588H2563.44L2552.41 475.441L2541.23 503.588ZM2626.09 542.626V443.616H2664.28C2699.64 443.616 2720.15 463.984 2720.15 492.556V492.838C2720.15 521.41 2699.36 542.626 2663.71 542.626H2626.09ZM2653.53 518.298H2664.7C2681.11 518.298 2692 509.246 2692 493.263V492.98C2692 477.138 2681.11 467.945 2664.7 467.945H2653.53V518.298ZM2742.73 542.626V443.616H2771.72L2795.35 481.947L2818.97 443.616H2847.96V542.626H2820.66V485.766L2795.35 524.521H2794.78L2769.6 486.049V542.626H2742.73ZM2866.09 542.626L2908.24 442.909H2934.69L2976.84 542.626H2947.42L2940.21 524.946H2902.02L2894.94 542.626H2866.09ZM2910.08 503.588H2932.28L2921.25 475.441L2910.08 503.588ZM2994.93 542.626V443.616H3037.37C3062.4 443.616 3078.53 456.488 3078.53 478.411V478.694C3078.53 502.032 3060.56 514.338 3035.95 514.338H3022.37V542.626H2994.93ZM3022.37 492.838H3035.39C3045.14 492.838 3051.09 487.746 3051.09 479.967V479.684C3051.09 471.198 3045.14 466.672 3035.24 466.672H3022.37V492.838Z" fill="white"/>
<path d="M398.624 812.503H385.93L385.827 764.616L362.09 804.246H356.104L332.367 765.235V812.503H319.57V740.26H330.613L359.303 788.147L387.478 740.26H398.521L398.624 812.503ZM437.953 756.772C453.847 756.772 463.032 764.306 463.032 780.2V812.503H450.854V805.794C447.758 810.542 441.772 813.225 433.515 813.225C420.925 813.225 412.978 806.31 412.978 796.712C412.978 787.527 419.17 780.303 435.889 780.303H450.131V779.477C450.131 771.943 445.59 767.506 436.405 767.506C430.213 767.506 423.814 769.57 419.686 772.975L414.629 763.584C420.512 759.043 429.078 756.772 437.953 756.772ZM436.199 803.834C442.494 803.834 447.964 800.944 450.131 795.268V788.869H436.818C428.046 788.869 425.672 792.171 425.672 796.196C425.672 800.841 429.594 803.834 436.199 803.834ZM517.798 757.392H530.182L504.381 816.941C499.324 829.428 492.306 833.247 483.121 833.247C477.651 833.247 471.872 831.389 468.363 828.19L473.523 818.695C476 821.069 479.509 822.514 483.018 822.514C487.559 822.514 490.242 820.346 492.719 814.876L493.648 812.709L469.602 757.392H483.018L500.356 798.157L517.798 757.392ZM581.113 801.15H615.17V812.503H561.917V803.524L590.608 776.278C597.626 769.57 598.864 765.338 598.864 761.313C598.864 754.708 594.323 750.89 585.448 750.89C578.43 750.89 572.547 753.263 568.522 758.424L559.131 751.199C564.704 743.665 574.714 739.228 586.583 739.228C602.27 739.228 612.384 747.174 612.384 759.972C612.384 766.99 610.423 773.388 600.412 782.78L581.113 801.15ZM685.802 784.741V796.093H673.004V812.503H660.001V796.093H620.37V786.805L655.976 740.26H670.321L636.78 784.741H660.413V770.189H673.004V784.741H685.802Z" fill="black"/>
<path d="M1014.82 813.535C1005.74 813.535 997.484 809.819 992.53 803.111L1000.17 793.926C1004.09 799.293 1008.84 802.182 1014.51 802.182C1021.94 802.182 1025.76 797.745 1025.76 788.869V751.509H1000.06V740.26H1039.18V788.147C1039.18 805.175 1030.72 813.535 1014.82 813.535ZM1097.21 757.392H1110.12V812.503H1097.83V805.485C1093.71 810.542 1087.2 813.225 1080.08 813.225C1065.94 813.225 1056.35 805.485 1056.35 788.869V757.392H1069.25V787.114C1069.25 797.125 1073.99 801.873 1082.15 801.873C1091.13 801.873 1097.21 796.3 1097.21 785.257V757.392ZM1158.28 756.772C1171.49 756.772 1181.29 764.306 1181.29 780.922V812.503H1168.39V782.573C1168.39 772.769 1163.54 768.022 1155.28 768.022C1146.1 768.022 1139.91 773.595 1139.91 784.638V812.503H1127.01V757.392H1139.29V764.513C1143.52 759.456 1150.23 756.772 1158.28 756.772ZM1249.97 785.257C1249.97 786.289 1249.87 787.837 1249.76 789.075H1206.52C1208.07 797.125 1214.78 802.286 1224.37 802.286C1230.57 802.286 1235.42 800.325 1239.34 796.3L1246.25 804.246C1241.3 810.129 1233.56 813.225 1224.06 813.225C1205.59 813.225 1193.62 801.357 1193.62 784.947C1193.62 768.538 1205.69 756.772 1222.1 756.772C1238.2 756.772 1249.97 768.022 1249.97 785.257ZM1222.1 767.093C1213.74 767.093 1207.66 772.459 1206.42 780.509H1237.69C1236.66 772.563 1230.57 767.093 1222.1 767.093ZM1283.25 740.26H1311.94V812.503H1298.52V751.509H1283.25V740.26ZM1344.53 801.15H1378.59V812.503H1325.34V803.524L1354.03 776.278C1361.05 769.57 1362.29 765.338 1362.29 761.313C1362.29 754.708 1357.75 750.89 1348.87 750.89C1341.85 750.89 1335.97 753.263 1331.94 758.424L1322.55 751.199C1328.13 743.665 1338.14 739.228 1350 739.228C1365.69 739.228 1375.81 747.174 1375.81 759.972C1375.81 766.99 1373.84 773.388 1363.83 782.78L1344.53 801.15Z" fill="black"/>
<path d="M1691.72 799.535C1682.64 799.535 1674.38 795.819 1669.43 789.111L1677.06 779.926C1680.99 785.293 1685.73 788.182 1691.41 788.182C1698.84 788.182 1702.66 783.745 1702.66 774.869V737.509H1676.96V726.26H1716.08V774.147C1716.08 791.175 1707.61 799.535 1691.72 799.535ZM1774.11 743.392H1787.01V798.503H1774.73V791.485C1770.6 796.542 1764.1 799.225 1756.98 799.225C1742.84 799.225 1733.24 791.485 1733.24 774.869V743.392H1746.14V773.115C1746.14 783.125 1750.89 787.873 1759.04 787.873C1768.02 787.873 1774.11 782.3 1774.11 771.257V743.392ZM1835.17 742.772C1848.38 742.772 1858.19 750.306 1858.19 766.922V798.503H1845.29V768.574C1845.29 758.769 1840.44 754.022 1832.18 754.022C1823 754.022 1816.8 759.595 1816.8 770.638V798.503H1803.9V743.392H1816.18V750.513C1820.42 745.456 1827.12 742.772 1835.17 742.772ZM1926.87 771.257C1926.87 772.289 1926.76 773.837 1926.66 775.075H1883.42C1884.97 783.125 1891.67 788.286 1901.27 788.286C1907.46 788.286 1912.31 786.325 1916.24 782.3L1923.15 790.246C1918.2 796.129 1910.46 799.225 1900.96 799.225C1882.49 799.225 1870.52 787.357 1870.52 770.947C1870.52 754.538 1882.59 742.772 1899 742.772C1915.1 742.772 1926.87 754.022 1926.87 771.257ZM1899 753.093C1890.64 753.093 1884.55 758.46 1883.31 766.509H1914.59C1913.55 758.563 1907.46 753.093 1899 753.093ZM1982.13 787.15H2016.18V798.503H1962.93V789.524L1991.62 762.278C1998.64 755.57 1999.88 751.338 1999.88 747.313C1999.88 740.708 1995.34 736.89 1986.46 736.89C1979.44 736.89 1973.56 739.263 1969.54 744.424L1960.14 737.199C1965.72 729.665 1975.73 725.228 1987.6 725.228C2003.28 725.228 2013.4 733.174 2013.4 745.972C2013.4 752.99 2011.44 759.388 2001.43 768.78L1982.13 787.15ZM2056.44 753.919C2070.69 753.919 2081.32 762.588 2081.32 776.107C2081.32 790.453 2069.65 799.535 2054.9 799.535C2035.18 799.535 2023.62 786.841 2023.62 763.62C2023.62 738.851 2038.07 725.228 2059.02 725.228C2066.25 725.228 2073.16 726.776 2078.01 729.872L2073.06 739.986C2069.14 737.406 2064.39 736.477 2059.33 736.477C2045.71 736.477 2037.14 744.94 2037.14 761.349V761.452C2041.48 756.395 2048.39 753.919 2056.44 753.919ZM2054.17 789.008C2062.53 789.008 2068.31 784.261 2068.31 776.727C2068.31 769.193 2062.64 764.445 2053.86 764.445C2045.19 764.445 2039.21 769.709 2039.21 776.83C2039.21 783.641 2044.58 789.008 2054.17 789.008Z" fill="black"/>
<path d="M2411.95 813.535C2402.87 813.535 2394.61 809.819 2389.66 803.111L2397.3 793.926C2401.22 799.293 2405.97 802.182 2411.64 802.182C2419.07 802.182 2422.89 797.745 2422.89 788.869V751.509H2397.19V740.26H2436.31V788.147C2436.31 805.175 2427.85 813.535 2411.95 813.535ZM2494.35 757.392H2507.25V812.503H2494.96V805.485C2490.84 810.542 2484.33 813.225 2477.21 813.225C2463.07 813.225 2453.48 805.485 2453.48 788.869V757.392H2466.38V787.114C2466.38 797.125 2471.12 801.873 2479.28 801.873C2488.26 801.873 2494.35 796.3 2494.35 785.257V757.392ZM2524.14 812.503V735.925H2537.04V812.503H2524.14ZM2593.19 757.392H2605.57L2579.77 816.941C2574.71 829.428 2567.7 833.247 2558.51 833.247C2553.04 833.247 2547.26 831.389 2543.75 828.19L2548.91 818.695C2551.39 821.069 2554.9 822.514 2558.41 822.514C2562.95 822.514 2565.63 820.346 2568.11 814.876L2569.04 812.709L2544.99 757.392H2558.41L2575.75 798.157L2593.19 757.392ZM2634.52 740.26H2663.21V812.503H2649.79V751.509H2634.52V740.26ZM2707.68 813.535C2690.54 813.535 2677.54 800.118 2677.54 776.381C2677.54 752.644 2690.54 739.228 2707.68 739.228C2724.91 739.228 2737.92 752.644 2737.92 776.381C2737.92 800.118 2724.91 813.535 2707.68 813.535ZM2707.68 801.873C2717.58 801.873 2724.4 793.823 2724.4 776.381C2724.4 758.94 2717.58 750.89 2707.68 750.89C2697.87 750.89 2691.06 758.94 2691.06 776.381C2691.06 793.823 2697.87 801.873 2707.68 801.873Z" fill="black"/>
<path d="M3091.47 813.535C3082.39 813.535 3074.13 809.819 3069.18 803.111L3076.82 793.926C3080.74 799.293 3085.49 802.182 3091.16 802.182C3098.59 802.182 3102.41 797.745 3102.41 788.869V751.509H3076.71V740.26H3115.83V788.147C3115.83 805.175 3107.37 813.535 3091.47 813.535ZM3173.87 757.392H3186.77V812.503H3174.48V805.485C3170.36 810.542 3163.85 813.225 3156.73 813.225C3142.59 813.225 3133 805.485 3133 788.869V757.392H3145.9V787.114C3145.9 797.125 3150.64 801.873 3158.8 801.873C3167.78 801.873 3173.87 796.3 3173.87 785.257V757.392ZM3203.66 812.503V735.925H3216.56V812.503H3203.66ZM3272.71 757.392H3285.09L3259.29 816.941C3254.23 829.428 3247.22 833.247 3238.03 833.247C3232.56 833.247 3226.78 831.389 3223.27 828.19L3228.43 818.695C3230.91 821.069 3234.42 822.514 3237.93 822.514C3242.47 822.514 3245.15 820.346 3247.63 814.876L3248.56 812.709L3224.51 757.392H3237.93L3255.27 798.157L3272.71 757.392ZM3336.02 801.15H3370.08V812.503H3316.83V803.524L3345.52 776.278C3352.53 769.57 3353.77 765.338 3353.77 761.313C3353.77 754.708 3349.23 750.89 3340.36 750.89C3333.34 750.89 3327.46 753.263 3323.43 758.424L3314.04 751.199C3319.61 743.665 3329.62 739.228 3341.49 739.228C3357.18 739.228 3367.29 747.174 3367.29 759.972C3367.29 766.99 3365.33 773.388 3355.32 782.78L3336.02 801.15ZM3440.71 784.741V796.093H3427.91V812.503H3414.91V796.093H3375.28V786.805L3410.88 740.26H3425.23L3391.69 784.741H3415.32V770.189H3427.91V784.741H3440.71Z" fill="black"/>
<path d="M3791.09 812.503L3783.86 795.784H3747.74L3740.62 812.503H3726.79L3759.3 740.26H3772.51L3805.12 812.503H3791.09ZM3752.28 785.257H3779.42L3765.8 753.676L3752.28 785.257ZM3852.52 757.392H3865.42V812.503H3853.14V805.485C3849.01 810.542 3842.51 813.225 3835.39 813.225C3821.25 813.225 3811.65 805.485 3811.65 788.869V757.392H3824.55V787.114C3824.55 797.125 3829.3 801.873 3837.45 801.873C3846.43 801.873 3852.52 796.3 3852.52 785.257V757.392ZM3924.73 757.392H3937.01V804.143C3937.01 824.165 3926.59 833.247 3907.29 833.247C3896.97 833.247 3886.75 830.564 3880.45 825.403L3886.23 815.702C3891.08 819.727 3898.93 822.307 3906.56 822.307C3918.74 822.307 3924.11 816.734 3924.11 805.588V802.698C3919.57 807.652 3913.07 810.026 3905.63 810.026C3889.84 810.026 3877.77 799.293 3877.77 783.296C3877.77 767.299 3889.84 756.772 3905.63 756.772C3913.38 756.772 3920.19 759.249 3924.73 764.719V757.392ZM3907.6 799.086C3917.3 799.086 3924.31 792.688 3924.31 783.296C3924.31 774.008 3917.3 767.712 3907.6 767.712C3897.79 767.712 3890.77 774.008 3890.77 783.296C3890.77 792.688 3897.79 799.086 3907.6 799.086ZM3994.43 757.392H4007.33V812.503H3995.04V805.485C3990.92 810.542 3984.41 813.225 3977.29 813.225C3963.15 813.225 3953.56 805.485 3953.56 788.869V757.392H3966.46V787.114C3966.46 797.125 3971.2 801.873 3979.36 801.873C3988.34 801.873 3994.43 796.3 3994.43 785.257V757.392ZM4041.25 813.225C4032.06 813.225 4022.87 810.542 4017.92 807.033L4022.87 797.228C4027.73 800.428 4035.16 802.698 4042.07 802.698C4050.22 802.698 4053.63 800.428 4053.63 796.609C4053.63 786.082 4019.57 795.99 4019.57 774.008C4019.57 763.584 4028.96 756.772 4043.83 756.772C4051.15 756.772 4059.51 758.527 4064.47 761.52L4059.51 771.324C4054.25 768.228 4048.99 767.196 4043.72 767.196C4035.88 767.196 4032.16 769.776 4032.16 773.388C4032.16 784.534 4066.22 774.627 4066.22 796.196C4066.22 806.517 4056.73 813.225 4041.25 813.225ZM4106.85 800.325L4110.46 809.51C4107.36 811.987 4102.72 813.225 4098.07 813.225C4086 813.225 4079.08 806.827 4079.08 794.648V768.125H4070V757.804H4079.08V745.213H4091.99V757.804H4106.74V768.125H4091.99V794.339C4091.99 799.705 4094.67 802.595 4099.62 802.595C4102.31 802.595 4104.89 801.873 4106.85 800.325ZM4144.02 740.26H4200.16V749.238L4172.09 812.503H4157.75L4184.89 751.612H4156.51V763.893H4144.02V740.26Z" fill="black"/>
<path d="M4470.5 812.503L4463.28 795.784H4427.16L4420.03 812.503H4406.2L4438.71 740.26H4451.92L4484.54 812.503H4470.5ZM4431.7 785.257H4458.84L4445.22 753.676L4431.7 785.257ZM4531.93 757.392H4544.83V812.503H4532.55V805.485C4528.43 810.542 4521.92 813.225 4514.8 813.225C4500.66 813.225 4491.07 805.485 4491.07 788.869V757.392H4503.97V787.114C4503.97 797.125 4508.71 801.873 4516.87 801.873C4525.85 801.873 4531.93 796.3 4531.93 785.257V757.392ZM4604.14 757.392H4616.42V804.143C4616.42 824.165 4606 833.247 4586.7 833.247C4576.38 833.247 4566.16 830.564 4559.87 825.403L4565.65 815.702C4570.5 819.727 4578.34 822.307 4585.98 822.307C4598.16 822.307 4603.52 816.734 4603.52 805.588V802.698C4598.98 807.652 4592.48 810.026 4585.05 810.026C4569.26 810.026 4557.18 799.293 4557.18 783.296C4557.18 767.299 4569.26 756.772 4585.05 756.772C4592.79 756.772 4599.6 759.249 4604.14 764.719V757.392ZM4587.01 799.086C4596.71 799.086 4603.73 792.688 4603.73 783.296C4603.73 774.008 4596.71 767.712 4587.01 767.712C4577.21 767.712 4570.19 774.008 4570.19 783.296C4570.19 792.688 4577.21 799.086 4587.01 799.086ZM4673.84 757.392H4686.74V812.503H4674.46V805.485C4670.33 810.542 4663.83 813.225 4656.71 813.225C4642.57 813.225 4632.97 805.485 4632.97 788.869V757.392H4645.87V787.114C4645.87 797.125 4650.62 801.873 4658.77 801.873C4667.75 801.873 4673.84 796.3 4673.84 785.257V757.392ZM4720.66 813.225C4711.48 813.225 4702.29 810.542 4697.34 807.033L4702.29 797.228C4707.14 800.428 4714.57 802.698 4721.49 802.698C4729.64 802.698 4733.05 800.428 4733.05 796.609C4733.05 786.082 4698.99 795.99 4698.99 774.008C4698.99 763.584 4708.38 756.772 4723.24 756.772C4730.57 756.772 4738.93 758.527 4743.88 761.52L4738.93 771.324C4733.66 768.228 4728.4 767.196 4723.14 767.196C4715.29 767.196 4711.58 769.776 4711.58 773.388C4711.58 784.534 4745.64 774.627 4745.64 796.196C4745.64 806.517 4736.14 813.225 4720.66 813.225ZM4786.26 800.325L4789.87 809.51C4786.78 811.987 4782.13 813.225 4777.49 813.225C4765.41 813.225 4758.5 806.827 4758.5 794.648V768.125H4749.42V757.804H4758.5V745.213H4771.4V757.804H4786.16V768.125H4771.4V794.339C4771.4 799.705 4774.08 802.595 4779.04 802.595C4781.72 802.595 4784.3 801.873 4786.26 800.325ZM4843.35 801.15H4877.41V812.503H4824.16V803.524L4852.85 776.278C4859.87 769.57 4861.11 765.338 4861.11 761.313C4861.11 754.708 4856.56 750.89 4847.69 750.89C4840.67 750.89 4834.79 753.263 4830.76 758.424L4821.37 751.199C4826.94 743.665 4836.96 739.228 4848.82 739.228C4864.51 739.228 4874.63 747.174 4874.63 759.972C4874.63 766.99 4872.66 773.388 4862.65 782.78L4843.35 801.15ZM4914.99 813.535C4897.86 813.535 4884.85 800.118 4884.85 776.381C4884.85 752.644 4897.86 739.228 4914.99 739.228C4932.22 739.228 4945.23 752.644 4945.23 776.381C4945.23 800.118 4932.22 813.535 4914.99 813.535ZM4914.99 801.873C4924.9 801.873 4931.71 793.823 4931.71 776.381C4931.71 758.94 4924.9 750.89 4914.99 750.89C4905.18 750.89 4898.37 758.94 4898.37 776.381C4898.37 793.823 4905.18 801.873 4914.99 801.873ZM4972.06 801.15H5006.11V812.503H4952.86V803.524L4981.55 776.278C4988.57 769.57 4989.81 765.338 4989.81 761.313C4989.81 754.708 4985.27 750.89 4976.39 750.89C4969.37 750.89 4963.49 753.263 4959.47 758.424L4950.07 751.199C4955.65 743.665 4965.66 739.228 4977.53 739.228C4993.21 739.228 5003.33 747.174 5003.33 759.972C5003.33 766.99 5001.37 773.388 4991.36 782.78L4972.06 801.15ZM5076.75 784.741V796.093H5063.95V812.503H5050.95V796.093H5011.31V786.805L5046.92 740.26H5061.27L5027.72 784.741H5051.36V770.189H5063.95V784.741H5076.75Z" fill="black"/>
<path d="M429.517 1311.81L548.663 1320.58L557.306 1348.85L465.705 1430.18L456.092 1398.74L472.418 1384.59L459.939 1343.78L438.945 1342.65L429.517 1311.81ZM485.143 1344.62L492.399 1368.36L518.538 1346.33L485.143 1344.62ZM469.769 1443.47L574.395 1407.45L582.76 1434.81L540.768 1497.39L596.071 1478.35L604.945 1507.37L500.318 1543.4L492.461 1517.7L536.037 1452.73L478.642 1472.5L469.769 1443.47ZM506.981 1565.19L611.607 1529.16L619.973 1556.53L577.981 1619.1L633.283 1600.06L642.157 1629.09L537.531 1665.11L529.674 1639.41L573.25 1574.45L515.855 1594.21L506.981 1565.19ZM558.369 1740.84C548.386 1708.19 565.056 1675.71 595.098 1665.37L595.397 1665.26C625.44 1654.92 657.29 1671.02 667.273 1703.67C677.256 1736.33 660.587 1768.8 630.544 1779.14L630.245 1779.25C600.203 1789.59 568.352 1773.49 558.369 1740.84ZM584.618 1732.13C589.564 1748.31 605.699 1754.62 620.795 1749.42L621.094 1749.32C636.19 1744.12 645.969 1728.55 641.024 1712.38C636.125 1696.35 619.99 1690.05 604.893 1695.24L604.595 1695.35C589.498 1700.55 579.719 1716.11 584.618 1732.13ZM596.143 1863.85C586.945 1833.77 596.264 1809.67 628.997 1798.4L687.737 1778.17L696.842 1807.95L638.7 1827.97C623.604 1833.17 618.787 1843.35 622.392 1855.14C625.997 1866.94 635.229 1872.28 649.877 1867.23L708.766 1846.96L717.871 1876.74L659.878 1896.71C626.099 1908.34 605.34 1893.93 596.143 1863.85ZM619.476 1933.14L724.102 1897.12L732.467 1924.48L690.476 1987.06L745.778 1968.02L754.652 1997.04L650.026 2033.07L642.169 2007.37L685.744 1942.41L628.35 1962.17L619.476 1933.14ZM670.171 2106.52C660.927 2076.29 676.355 2044.08 707.593 2033.32L707.892 2033.22C738.383 2022.72 769.554 2038.22 779.352 2070.27C785.961 2091.88 781.245 2108.88 771.257 2122.68L747.619 2106.42C753.244 2097.8 755.901 2089.2 752.804 2079.07C748.275 2064.26 732.68 2058.1 717.435 2063.35L717.136 2063.45C701.442 2068.86 692.374 2083.51 696.904 2098.32C700.278 2109.36 707.347 2114.11 716.911 2117.83L708.114 2145.26C691.462 2139.96 677.335 2129.96 670.171 2106.52ZM691.373 2168.31L795.999 2132.28L822.02 2217.39L797.358 2225.88L780.211 2169.8L764.368 2175.25L779.897 2226.05L757.029 2233.92L741.499 2183.13L724.909 2188.84L742.287 2245.68L717.625 2254.17L691.373 2168.31ZM723.124 2272.16L827.75 2236.14L837.225 2267.13L804.438 2306.32L852.662 2317.62L862.136 2348.61L757.51 2384.63L748.59 2355.46L808.675 2334.77L759.449 2321.81L759.264 2321.21L791.692 2280.3L731.906 2300.88L723.124 2272.16ZM764.173 2406.43L868.799 2370.4L894.82 2455.51L870.158 2464L853.011 2407.92L837.168 2413.37L852.697 2464.17L829.829 2472.04L814.299 2421.25L797.709 2426.96L815.087 2483.8L790.425 2492.29L764.173 2406.43ZM795.924 2510.28L900.55 2474.25L908.916 2501.62L866.924 2564.2L922.227 2545.15L931.1 2574.18L826.474 2610.2L818.617 2584.5L862.193 2519.54L804.798 2539.3L795.924 2510.28ZM841.04 2657.85L920.257 2630.57L910.551 2598.82L935.96 2590.07L964.338 2682.89L938.929 2691.64L929.223 2659.9L850.006 2687.17L841.04 2657.85Z" fill="white"/>
<path d="M1190.55 1478.61C1181.31 1448.37 1196.73 1416.16 1227.97 1405.41L1228.27 1405.3C1258.76 1394.8 1289.93 1410.3 1299.73 1442.35C1306.34 1463.97 1301.62 1480.96 1291.64 1494.76L1268 1478.51C1273.62 1469.89 1276.28 1461.29 1273.18 1451.16C1268.65 1436.34 1253.06 1430.18 1237.81 1435.43L1237.52 1435.54C1221.82 1440.94 1212.75 1455.59 1217.28 1470.41C1220.66 1481.44 1227.73 1486.19 1237.29 1489.92L1228.49 1517.34C1211.84 1512.05 1197.71 1502.04 1190.55 1478.61ZM1225.03 1591.37C1215.04 1558.72 1231.71 1526.25 1261.75 1515.9L1262.05 1515.8C1292.1 1505.45 1323.95 1521.56 1333.93 1554.21C1343.91 1586.86 1327.24 1619.33 1297.2 1629.68L1296.9 1629.78C1266.86 1640.13 1235.01 1624.03 1225.03 1591.37ZM1251.27 1582.67C1256.22 1598.84 1272.36 1605.15 1287.45 1599.95L1287.75 1599.85C1302.85 1594.65 1312.63 1579.09 1307.68 1562.91C1302.78 1546.89 1286.65 1540.58 1271.55 1545.78L1271.25 1545.88C1256.15 1551.08 1246.38 1566.64 1251.27 1582.67ZM1250.18 1666.09L1354.81 1630.07L1364.28 1661.06L1331.5 1700.25L1379.72 1711.55L1389.2 1742.54L1284.57 1778.57L1275.65 1749.39L1335.73 1728.7L1286.51 1715.74L1286.32 1715.14L1318.75 1674.23L1258.96 1694.82L1250.18 1666.09ZM1291.23 1800.36L1395.86 1764.33L1405.33 1795.32L1372.55 1834.52L1420.77 1845.82L1430.24 1876.81L1325.62 1912.83L1316.7 1883.65L1376.78 1862.97L1327.56 1850.01L1327.37 1849.4L1359.8 1808.5L1300.01 1829.08L1291.23 1800.36ZM1332.28 1934.62L1436.91 1898.6L1462.93 1983.71L1438.27 1992.2L1421.12 1936.12L1405.28 1941.57L1420.81 1992.36L1397.94 2000.24L1382.41 1949.44L1365.82 1955.16L1383.19 2012L1358.53 2020.49L1332.28 1934.62ZM1364.03 2038.48L1468.66 2002.45L1477.02 2029.81L1435.03 2092.39L1490.33 2073.35L1499.21 2102.38L1394.58 2138.4L1386.73 2112.7L1430.3 2047.74L1372.91 2067.5L1364.03 2038.48ZM1414.73 2211.86C1405.48 2181.62 1420.91 2149.41 1452.15 2138.66L1452.45 2138.55C1482.94 2128.05 1514.11 2143.55 1523.91 2175.6C1530.52 2197.22 1525.8 2214.21 1515.81 2228.01L1492.18 2211.76C1497.8 2203.14 1500.46 2194.54 1497.36 2184.41C1492.83 2169.59 1477.24 2163.43 1461.99 2168.68L1461.69 2168.79C1446 2174.19 1436.93 2188.84 1441.46 2203.66C1444.83 2214.69 1451.9 2219.44 1461.47 2223.17L1452.67 2250.59C1436.02 2245.3 1421.89 2235.29 1414.73 2211.86ZM1435.93 2273.64L1540.56 2237.62L1566.58 2322.73L1541.91 2331.22L1524.77 2275.13L1508.92 2280.59L1524.45 2331.38L1501.59 2339.26L1486.06 2288.46L1469.47 2294.18L1486.84 2351.02L1462.18 2359.51L1435.93 2273.64ZM1467.68 2377.5L1572.31 2341.47L1581.78 2372.46L1548.99 2411.65L1597.22 2422.95L1606.69 2453.94L1502.07 2489.97L1493.15 2460.79L1553.23 2440.1L1504.01 2427.14L1503.82 2426.54L1536.25 2385.63L1476.46 2406.22L1467.68 2377.5ZM1508.73 2511.76L1613.36 2475.74L1639.38 2560.84L1614.71 2569.34L1597.57 2513.25L1581.72 2518.71L1597.25 2569.5L1574.39 2577.38L1558.86 2526.58L1542.27 2532.29L1559.64 2589.13L1534.98 2597.63L1508.73 2511.76ZM1540.48 2615.61L1645.11 2579.59L1653.47 2606.95L1611.48 2669.53L1666.78 2650.49L1675.66 2679.51L1571.03 2715.54L1563.17 2689.84L1606.75 2624.88L1549.35 2644.64L1540.48 2615.61ZM1585.6 2763.18L1664.81 2735.9L1655.11 2704.16L1680.52 2695.41L1708.89 2788.23L1683.49 2796.98L1673.78 2765.23L1594.56 2792.51L1585.6 2763.18Z" fill="white"/>
<path d="M1885.95 1487.65L1990.58 1451.63L2000.05 1482.62L1967.27 1521.81L2015.49 1533.11L2024.96 1564.1L1920.34 1600.12L1911.42 1570.95L1971.5 1550.26L1922.28 1537.3L1922.09 1536.7L1954.52 1495.79L1894.73 1516.37L1885.95 1487.65ZM1927.18 1622.52L2031.81 1586.5L2040.82 1615.97L1936.2 1652L1927.18 1622.52ZM1943.04 1674.4L2047.67 1638.37L2056.64 1667.7L1977.42 1694.97L1993.09 1746.22L1967.68 1754.97L1943.04 1674.4ZM1972.45 1770.57L2077.07 1734.55L2103.1 1819.66L2078.43 1828.15L2061.29 1772.06L2045.44 1777.52L2060.97 1828.31L2038.1 1836.19L2022.58 1785.39L2005.98 1791.11L2023.36 1847.95L1998.7 1856.44L1972.45 1770.57ZM2015.12 1916.62C2009.39 1897.87 2009.76 1878.02 2017.29 1861.06L2041.57 1870.75C2036.54 1884.01 2035.76 1897.14 2039.5 1909.39C2041.91 1917.25 2045.89 1920.55 2050.38 1919.01L2050.67 1918.91C2055.01 1917.42 2056.34 1913.11 2055.23 1897.62C2053.43 1873.35 2054.39 1853.8 2075.92 1846.39L2076.21 1846.29C2095.65 1839.6 2114.46 1850.33 2122.22 1875.73C2127.72 1893.72 2127.24 1909.42 2121.63 1924.05L2096.67 1916.44C2100.44 1904.45 2100.79 1892.63 2097.93 1883.26C2095.75 1876.15 2091.7 1873.7 2087.96 1874.99L2087.66 1875.09C2082.88 1876.74 2081.9 1881.09 2083.09 1896.88C2085.3 1923.02 2082.15 1940.82 2062.57 1947.56L2062.27 1947.66C2040.9 1955.02 2022.97 1942.31 2015.12 1916.62ZM2042.27 1998.96L2121.49 1971.69L2111.79 1939.94L2137.19 1931.19L2165.57 2024.01L2140.16 2032.76L2130.46 2001.01L2051.24 2028.29L2042.27 1998.96ZM2078.58 2125.29C2068.6 2092.64 2085.27 2060.16 2115.31 2049.82L2115.61 2049.71C2145.65 2039.37 2177.5 2055.47 2187.49 2088.12C2197.47 2120.78 2180.8 2153.25 2150.76 2163.59L2150.46 2163.7C2120.42 2174.04 2088.57 2157.94 2078.58 2125.29ZM2104.83 2116.58C2109.78 2132.76 2125.91 2139.07 2141.01 2133.87L2141.31 2133.77C2156.4 2128.57 2166.18 2113 2161.24 2096.83C2156.34 2080.8 2140.2 2074.5 2125.11 2079.69L2124.81 2079.8C2109.71 2085 2099.93 2100.56 2104.83 2116.58ZM2103.74 2200.01L2208.37 2163.98L2216.73 2191.35L2174.74 2253.93L2230.04 2234.88L2238.92 2263.91L2134.29 2299.93L2126.43 2274.24L2170.01 2209.27L2112.61 2229.03L2103.74 2200.01ZM2140.95 2321.73L2245.58 2285.7L2271.6 2370.81L2246.94 2379.3L2229.79 2323.22L2213.95 2328.67L2229.48 2379.47L2206.61 2387.34L2191.08 2336.55L2174.49 2342.26L2191.87 2399.1L2167.21 2407.59L2140.95 2321.73ZM2196.09 2509.65C2189.85 2489.24 2192.79 2472.36 2200.85 2458.22L2224.73 2470.38C2219.42 2480.56 2217.53 2490.07 2220.49 2499.74C2223.03 2508.06 2228.83 2511.91 2235.26 2509.7L2235.56 2509.59C2242.29 2507.28 2244.43 2499.69 2241.05 2488.65L2237.26 2476.26L2251.06 2466.83L2280.18 2483.7L2267.79 2443.19L2291.26 2435.11L2314.64 2511.6L2293.87 2518.75L2264.78 2500.87C2266.11 2517.12 2261.48 2532.24 2243.7 2538.37L2243.4 2538.47C2222.17 2545.78 2203.3 2533.23 2196.09 2509.65Z" fill="white"/>
<path d="M2593.24 1482.48L2697.86 1446.46L2707.34 1477.45L2674.55 1516.64L2722.78 1527.94L2732.25 1558.93L2627.62 1594.96L2618.7 1565.78L2678.79 1545.09L2629.56 1532.13L2629.38 1531.53L2661.81 1490.62L2602.02 1511.21L2593.24 1482.48ZM2634.47 1617.35L2739.1 1581.33L2748.11 1610.81L2643.48 1646.83L2634.47 1617.35ZM2650.33 1669.23L2754.96 1633.2L2763.92 1662.53L2684.71 1689.81L2700.38 1741.05L2674.97 1749.8L2650.33 1669.23ZM2679.74 1765.41L2784.36 1729.38L2810.38 1814.49L2785.72 1822.98L2768.57 1766.9L2752.73 1772.35L2768.26 1823.14L2745.39 1831.02L2729.86 1780.23L2713.27 1785.94L2730.65 1842.78L2705.99 1851.27L2679.74 1765.41ZM2722.4 1911.45C2716.67 1892.7 2717.05 1872.86 2724.58 1855.89L2748.85 1865.58C2743.82 1878.84 2743.05 1891.98 2746.79 1904.22C2749.19 1912.08 2753.18 1915.39 2757.66 1913.84L2757.96 1913.74C2762.3 1912.25 2763.62 1907.95 2762.52 1892.45C2760.72 1868.18 2761.68 1848.63 2783.2 1841.22L2783.5 1841.12C2802.93 1834.43 2821.74 1845.16 2829.51 1870.56C2835.01 1888.55 2834.52 1904.25 2828.92 1918.88L2803.96 1911.27C2807.73 1899.28 2808.08 1887.46 2805.21 1878.09C2803.04 1870.98 2798.99 1868.54 2795.25 1869.82L2794.95 1869.93C2790.17 1871.57 2789.19 1875.92 2790.38 1891.72C2792.59 1917.86 2789.44 1935.65 2769.86 1942.39L2769.56 1942.5C2748.19 1949.85 2730.26 1937.15 2722.4 1911.45ZM2749.56 1993.8L2828.78 1966.52L2819.07 1934.77L2844.48 1926.02L2872.86 2018.84L2847.45 2027.59L2837.75 1995.85L2758.53 2023.12L2749.56 1993.8ZM2785.87 2120.12C2775.89 2087.47 2792.56 2054.99 2822.6 2044.65L2822.9 2044.55C2852.94 2034.2 2884.79 2050.3 2894.77 2082.96C2904.76 2115.61 2888.09 2148.08 2858.05 2158.43L2857.75 2158.53C2827.7 2168.87 2795.85 2152.77 2785.87 2120.12ZM2812.12 2111.42C2817.07 2127.59 2833.2 2133.9 2848.3 2128.7L2848.6 2128.6C2863.69 2123.4 2873.47 2107.84 2868.53 2091.66C2863.63 2075.64 2847.49 2069.33 2832.39 2074.53L2832.1 2074.63C2817 2079.83 2807.22 2095.39 2812.12 2111.42ZM2811.03 2194.84L2915.65 2158.82L2924.02 2186.18L2882.03 2248.76L2937.33 2229.72L2946.2 2258.74L2841.58 2294.77L2833.72 2269.07L2877.3 2204.11L2819.9 2223.87L2811.03 2194.84ZM2848.24 2316.56L2952.87 2280.53L2978.89 2365.64L2954.23 2374.13L2937.08 2318.05L2921.24 2323.51L2936.76 2374.3L2913.9 2382.17L2898.37 2331.38L2881.78 2337.09L2899.15 2393.93L2874.49 2402.42L2848.24 2316.56ZM2908.62 2514.04L2928.94 2507.04L2913.28 2455.79L2932.27 2443.91L3013.62 2476.55L3022.68 2506.18L2959.31 2528L2963.42 2541.45L2941.75 2548.91L2937.63 2535.46L2917.31 2542.46L2908.62 2514.04ZM2942.75 2474.38L2950.47 2499.63L2980.51 2489.28L2942.75 2474.38Z" fill="white"/>
<path d="M3307.89 1486.99L3412.51 1450.96L3421.99 1481.95L3389.2 1521.14L3437.43 1532.44L3446.9 1563.43L3342.27 1599.46L3333.35 1570.28L3393.44 1549.59L3344.21 1536.64L3344.03 1536.03L3376.46 1495.12L3316.67 1515.71L3307.89 1486.99ZM3349.12 1621.86L3453.75 1585.83L3462.76 1615.31L3358.13 1651.34L3349.12 1621.86ZM3364.98 1673.73L3469.61 1637.71L3478.57 1667.03L3399.36 1694.31L3415.03 1745.56L3389.62 1754.31L3364.98 1673.73ZM3394.39 1769.91L3499.01 1733.88L3525.03 1818.99L3500.37 1827.48L3483.22 1771.4L3467.38 1776.85L3482.91 1827.65L3460.04 1835.52L3444.51 1784.73L3427.92 1790.44L3445.3 1847.28L3420.64 1855.77L3394.39 1769.91ZM3437.05 1915.95C3431.32 1897.21 3431.7 1877.36 3439.23 1860.4L3463.5 1870.08C3458.47 1883.35 3457.7 1896.48 3461.44 1908.72C3463.84 1916.58 3467.83 1919.89 3472.31 1918.35L3472.61 1918.24C3476.95 1916.75 3478.27 1912.45 3477.17 1896.96C3475.37 1872.68 3476.33 1853.14 3497.85 1845.73L3498.15 1845.62C3517.58 1838.93 3536.39 1849.66 3544.16 1875.06C3549.66 1893.05 3549.17 1908.76 3543.57 1923.39L3518.61 1915.77C3522.38 1903.78 3522.73 1891.96 3519.86 1882.59C3517.69 1875.49 3513.64 1873.04 3509.9 1874.33L3509.6 1874.43C3504.82 1876.08 3503.84 1880.42 3505.03 1896.22C3507.24 1922.36 3504.09 1940.15 3484.51 1946.9L3484.21 1947C3462.84 1954.36 3444.91 1941.65 3437.05 1915.95ZM3464.21 1998.3L3543.43 1971.02L3533.72 1939.28L3559.13 1930.53L3587.51 2023.35L3562.1 2032.09L3552.4 2000.35L3473.18 2027.62L3464.21 1998.3ZM3500.52 2124.62C3490.54 2091.97 3507.21 2059.5 3537.25 2049.15L3537.55 2049.05C3567.59 2038.71 3599.44 2054.81 3609.42 2087.46C3619.41 2120.11 3602.74 2152.59 3572.7 2162.93L3572.4 2163.03C3542.35 2173.38 3510.5 2157.28 3500.52 2124.62ZM3526.77 2115.92C3531.72 2132.09 3547.85 2138.4 3562.95 2133.2L3563.25 2133.1C3578.34 2127.9 3588.12 2112.34 3583.18 2096.16C3578.28 2080.14 3562.14 2073.83 3547.04 2079.03L3546.75 2079.13C3531.65 2084.33 3521.87 2099.9 3526.77 2115.92ZM3525.68 2199.35L3630.3 2163.32L3638.67 2190.68L3596.68 2253.26L3651.98 2234.22L3660.85 2263.24L3556.23 2299.27L3548.37 2273.57L3591.95 2208.61L3534.55 2228.37L3525.68 2199.35ZM3562.89 2321.06L3667.52 2285.04L3693.54 2370.15L3668.88 2378.64L3651.73 2322.55L3635.89 2328.01L3651.41 2378.8L3628.55 2386.68L3613.02 2335.88L3596.43 2341.6L3613.8 2398.44L3589.14 2406.93L3562.89 2321.06ZM3617.43 2507.02C3611.7 2488.27 3614.11 2472.91 3620.9 2458.37L3645.46 2468.46C3640.92 2479.55 3639.23 2489.15 3641.95 2498.07C3644.91 2507.75 3651.5 2512 3658.97 2509.42L3659.27 2509.32C3666.74 2506.75 3669.43 2498.8 3666.62 2489.58C3664.63 2483.08 3660.72 2478.41 3656.21 2474.45L3660.46 2453.77L3714.44 2438.53L3736.07 2509.27L3712.16 2517.51L3697.6 2469.89L3681.48 2474.44C3685.2 2478.5 3688.22 2482.98 3690.39 2490.08C3696.22 2509.13 3691.02 2529.97 3668.3 2537.79L3668 2537.89C3644.69 2545.92 3625.29 2532.72 3617.43 2507.02Z" fill="white"/>
<path d="M3982.12 1484.55L4086.75 1448.53L4096.23 1479.52L4063.44 1518.71L4111.66 1530.01L4121.14 1561L4016.51 1597.02L4007.59 1567.85L4067.68 1547.16L4018.45 1534.2L4018.26 1533.6L4050.69 1492.69L3990.91 1513.27L3982.12 1484.55ZM4023.36 1619.42L4127.98 1583.4L4137 1612.87L4032.37 1648.9L4023.36 1619.42ZM4039.22 1671.3L4143.84 1635.27L4152.81 1664.6L4073.59 1691.87L4089.26 1743.12L4063.85 1751.87L4039.22 1671.3ZM4068.62 1767.47L4173.25 1731.45L4199.27 1816.56L4174.61 1825.05L4157.46 1768.96L4141.62 1774.42L4157.15 1825.21L4134.28 1833.09L4118.75 1782.29L4102.16 1788L4119.54 1844.85L4094.87 1853.34L4068.62 1767.47ZM4111.29 1913.51C4105.56 1894.77 4105.93 1874.92 4113.47 1857.96L4137.74 1867.65C4132.71 1880.91 4131.93 1894.04 4135.68 1906.29C4138.08 1914.15 4142.06 1917.45 4146.55 1915.91L4146.85 1915.81C4151.18 1914.32 4152.51 1910.01 4151.41 1894.52C4149.6 1870.25 4150.57 1850.7 4172.09 1843.29L4172.39 1843.19C4191.82 1836.5 4210.63 1847.23 4218.39 1872.63C4223.89 1890.62 4223.41 1906.32 4217.8 1920.95L4192.84 1913.34C4196.61 1901.35 4196.96 1889.53 4194.1 1880.16C4191.93 1873.05 4187.87 1870.6 4184.14 1871.89L4183.84 1871.99C4179.06 1873.64 4178.07 1877.99 4179.27 1893.78C4181.48 1919.92 4178.33 1937.72 4158.75 1944.46L4158.45 1944.56C4137.07 1951.92 4119.15 1939.21 4111.29 1913.51ZM4138.45 1995.86L4217.66 1968.59L4207.96 1936.84L4233.37 1928.09L4261.75 2020.91L4236.34 2029.66L4226.63 1997.91L4147.41 2025.19L4138.45 1995.86ZM4174.76 2122.19C4164.77 2089.53 4181.44 2057.06 4211.49 2046.72L4211.78 2046.61C4241.83 2036.27 4273.68 2052.37 4283.66 2085.02C4293.64 2117.68 4276.97 2150.15 4246.93 2160.49L4246.63 2160.6C4216.59 2170.94 4184.74 2154.84 4174.76 2122.19ZM4201.01 2113.48C4205.95 2129.66 4222.09 2135.97 4237.18 2130.77L4237.48 2130.67C4252.58 2125.47 4262.36 2109.9 4257.41 2093.73C4252.51 2077.7 4236.38 2071.4 4221.28 2076.59L4220.98 2076.7C4205.89 2081.9 4196.11 2097.46 4201.01 2113.48ZM4199.91 2196.91L4304.54 2160.88L4312.91 2188.25L4270.91 2250.83L4326.22 2231.78L4335.09 2260.81L4230.46 2296.83L4222.61 2271.13L4266.18 2206.17L4208.79 2225.93L4199.91 2196.91ZM4237.13 2318.63L4341.75 2282.6L4367.77 2367.71L4343.11 2376.2L4325.96 2320.12L4310.12 2325.57L4325.65 2376.37L4302.78 2384.24L4287.25 2333.45L4270.66 2339.16L4288.04 2396L4263.38 2404.49L4237.13 2318.63ZM4293.42 2510.33C4288.85 2495.36 4290.33 2483.99 4295.49 2473.86C4300.86 2463.32 4311.09 2454.12 4330.67 2447.37L4330.97 2447.27C4363.56 2436.05 4393.27 2443.53 4403.39 2476.64C4407.92 2491.45 4407.03 2503.12 4402.65 2515.82L4377.97 2509.12C4380.76 2500.97 4382.05 2493.84 4379.46 2485.38C4375.67 2472.98 4364.66 2469.92 4351.09 2473.09C4356.99 2477.24 4362.95 2482.71 4366.14 2493.14C4371.83 2511.73 4365.16 2532.07 4344.24 2539.28L4343.94 2539.38C4320.47 2547.46 4300.49 2533.46 4293.42 2510.33ZM4315.62 2501.35C4318.44 2510.57 4325.93 2514 4333.56 2511.38L4333.86 2511.27C4341.33 2508.7 4345.55 2500.9 4342.73 2491.68C4339.91 2482.46 4332.42 2479.02 4324.95 2481.59L4324.65 2481.7C4317.03 2484.32 4312.8 2492.12 4315.62 2501.35Z" fill="white"/>
<path d="M4604.99 1429.45L4709.61 1393.43L4735.5 1478.08L4710.09 1486.83L4693.17 1431.5L4675.38 1437.63L4690.68 1487.66L4666.62 1495.95L4651.32 1445.91L4613.95 1458.78L4604.99 1429.45ZM4636.07 1531.1L4740.69 1495.08L4749.7 1524.56L4645.08 1560.58L4636.07 1531.1ZM4651.93 1582.98L4756.55 1546.95L4764.92 1574.31L4722.93 1636.89L4778.23 1617.85L4787.1 1646.88L4682.48 1682.9L4674.62 1657.2L4718.19 1592.24L4660.8 1612L4651.93 1582.98ZM4686.55 1696.23L4805.7 1704.99L4814.34 1733.26L4722.74 1814.6L4713.12 1783.15L4729.45 1769.01L4716.97 1728.19L4695.98 1727.07L4686.55 1696.23ZM4742.18 1729.04L4749.43 1752.77L4775.57 1730.74L4742.18 1729.04ZM4726.8 1827.89L4831.43 1791.86L4840.39 1821.19L4761.18 1848.47L4776.84 1899.71L4751.44 1908.46L4726.8 1827.89ZM4769.95 1969.01L4874.57 1932.99L4889.87 1983.03C4894.82 1999.2 4894.05 2011.83 4889.05 2021.4C4884.97 2029.66 4877.87 2035.61 4867.55 2039.17L4867.25 2039.27C4851.26 2044.78 4838.02 2039.81 4828.46 2028.56L4799.71 2066.37L4789.36 2032.51L4814.53 2000.28L4814.44 1999.98L4810.6 1987.43L4778.91 1998.34L4769.95 1969.01ZM4833.32 1979.61L4839.24 1998.96C4842.29 2008.93 4848.83 2013.03 4856.45 2010.41L4856.75 2010.3C4864.97 2007.47 4867.3 1999.99 4864.3 1990.16L4858.43 1970.96L4833.32 1979.61ZM4804.09 2080.69L4908.72 2044.67L4934.74 2129.77L4910.08 2138.27L4892.93 2082.18L4877.09 2087.64L4892.62 2138.43L4869.75 2146.31L4854.22 2095.51L4837.63 2101.22L4855.01 2158.06L4830.34 2166.56L4804.09 2080.69ZM4845.63 2219.27L4937.88 2140.05L4947.91 2172.86L4889.05 2219.69L4962.61 2220.93L4972.45 2253.13L4853.95 2246.48L4845.63 2219.27ZM4871.88 2302.42L4976.51 2266.4L5002.53 2351.51L4977.87 2360L4960.72 2303.91L4944.88 2309.37L4960.41 2360.16L4937.54 2368.04L4922.01 2317.24L4905.42 2322.96L4922.8 2379.8L4898.13 2388.29L4871.88 2302.42ZM4901.04 2397.81L5020.19 2406.58L5028.83 2434.85L4937.23 2516.18L4927.62 2484.73L4943.95 2470.59L4931.47 2429.77L4910.47 2428.65L4901.04 2397.81ZM4956.67 2430.62L4963.93 2454.35L4990.07 2432.32L4956.67 2430.62ZM4941.3 2529.47L5045.92 2493.44L5054.89 2522.77L4975.67 2550.05L4991.34 2601.29L4965.93 2610.04L4941.3 2529.47Z" fill="white"/>
<path d="M28.8125 1145.36V1145.36C67.8428 1145.36 102.348 1170.72 114.008 1207.97L574.28 2678.31C617.599 2816.69 745.793 2910.89 890.798 2910.89V2910.89C1114.02 2910.89 1273.5 2694.83 1207.74 2481.51L927.76 1573.33C861.294 1357.74 1022.48 1139.37 1248.09 1139.37V1139.37C1394.67 1139.37 1524.24 1234.61 1568.01 1374.5L1975 2675.42C2018.82 2815.52 2148.59 2910.89 2295.38 2910.89V2910.89C2522.07 2910.89 2683.59 2690.83 2615.63 2474.57L2332.02 1571.93C2264.65 1357.53 2424.77 1139.37 2649.51 1139.37V1139.37C2794.24 1139.37 2922.38 1232.92 2966.48 1370.77L3384.38 2677.16C3428.93 2816.4 3558.36 2910.89 3704.55 2910.89V2910.89C3931.86 2910.89 4093.64 2689.96 4025.01 2473.25L3738.7 1569.23C3671.29 1356.37 3830.19 1139.37 4053.46 1139.37V1139.37C4197.74 1139.37 4325.31 1233.05 4368.49 1370.71L4773.04 2660.19C4819.84 2809.37 4958.08 2910.89 5114.43 2910.89H5326.77" stroke="#575757" stroke-width="149.725"/>
<path d="M28.8125 1145.36V1145.36C67.8428 1145.36 102.348 1170.72 114.008 1207.97L574.28 2678.31C617.599 2816.69 745.793 2910.89 890.798 2910.89V2910.89C1114.02 2910.89 1273.5 2694.83 1207.74 2481.51L927.759 1573.33C861.294 1357.74 1022.48 1139.37 1248.09 1139.37V1139.37C1394.67 1139.37 1524.24 1234.61 1568.01 1374.5L1975 2675.42C2018.82 2815.52 2148.59 2910.89 2295.38 2910.89V2910.89C2522.07 2910.89 2683.59 2690.83 2615.63 2474.57L2332.02 1571.93C2264.65 1357.53 2424.77 1139.37 2649.51 1139.37V1139.37C2794.24 1139.37 2922.38 1232.92 2966.48 1370.77L3384.38 2677.16C3428.93 2816.4 3558.36 2910.89 3704.55 2910.89V2910.89C3931.86 2910.89 4093.64 2689.96 4025.01 2473.25L3738.7 1569.23C3671.29 1356.37 3830.19 1139.37 4053.46 1139.37V1139.37C4197.74 1139.37 4325.3 1233.05 4368.49 1370.71L4773.04 2660.19C4819.84 2809.37 4958.08 2910.89 5114.43 2910.89H5326.31" stroke="white" stroke-width="7.98167" stroke-dasharray="55.32 55.32"/>
</svg>
