<svg width="1022" height="611" viewBox="0 0 1022 611" fill="none" xmlns="http://www.w3.org/2000/svg">
<path d="M11.0901 21.5604C11.0901 15.9167 15.6652 11.3417 21.3088 11.3417H1000.69C1006.33 11.3417 1010.91 15.9167 1010.91 21.5604V589.985C1010.91 595.628 1006.33 600.203 1000.69 600.203H21.3088C15.6652 600.203 11.0901 595.628 11.0901 589.985V21.5604Z" fill="#FBFBFB"/>
<path fill-rule="evenodd" clip-rule="evenodd" d="M21.3088 0.772583H1000.69C1012.17 0.772583 1021.48 10.0796 1021.48 21.5604V589.985C1021.48 601.466 1012.17 610.773 1000.69 610.773H21.3089C9.8281 610.773 0.520996 601.466 0.520996 589.985V21.5604C0.520996 10.0796 9.82805 0.772583 21.3088 0.772583ZM21.3088 11.3417C15.6652 11.3417 11.0901 15.9167 11.0901 21.5604V589.985C11.0901 595.628 15.6652 600.203 21.3089 600.203H1000.69C1006.33 600.203 1010.91 595.628 1010.91 589.985V21.5604C1010.91 15.9168 1006.33 11.3417 1000.69 11.3417H21.3088Z" fill="black"/>
<path d="M11.0901 73.2743H1010.91V123.1H11.0901V73.2743Z" fill="#0D4AE7"/>
<path d="M4.08057 182.733H1017.95V596.081C1017.95 601.708 1013.42 606.27 1007.84 606.27H14.1939C8.60846 606.27 4.08057 601.708 4.08057 596.081V182.733Z" fill="black"/>
<path d="M682.289 58.4415C678.886 58.4415 675.52 57.4691 672.715 55.4494L675.37 51.1483C677.689 52.6818 680.232 53.4672 682.327 53.4672C683.561 53.4672 684.122 53.0932 684.122 52.3826V52.3077C684.122 51.5223 683 51.1857 680.868 50.5873C676.866 49.5401 673.687 48.1936 673.687 44.1169V44.0421C673.687 39.741 677.128 37.3473 681.803 37.3473C684.758 37.3473 687.825 38.2075 690.144 39.7036L687.712 44.1917C685.618 43.0323 683.337 42.3216 681.728 42.3216C680.644 42.3216 680.083 42.7331 680.083 43.2941V43.3689C680.083 44.1543 681.242 44.5283 683.374 45.1641C687.376 46.2862 690.555 47.67 690.555 51.5971V51.6719C690.555 56.1227 687.226 58.4415 682.289 58.4415Z" fill="#040404"/>
<path d="M647.294 58.1423L641.123 37.7586H648.079L650.735 47.9318L653.839 37.6838H659.711L662.853 48.0066L665.583 37.7586H672.427L666.181 58.1423H660.048L656.756 47.6325L653.39 58.1423H647.294Z" fill="#040404"/>
<path d="M630.909 58.4789C624.551 58.4789 620.063 54.2525 620.063 47.9691V47.8943C620.063 41.985 624.289 37.3098 630.274 37.3098C637.268 37.3098 640.484 42.4338 640.484 48.3806C640.484 48.8294 640.484 49.353 640.447 49.8392H626.907C627.468 52.0459 629.077 53.1679 631.283 53.1679C632.966 53.1679 634.313 52.5321 635.771 51.1108L639.699 54.3647C637.754 56.8332 634.949 58.4789 630.909 58.4789ZM626.795 46.2113H633.827C633.565 43.9672 632.256 42.546 630.311 42.546C628.441 42.546 627.169 44.0046 626.795 46.2113Z" fill="#040404"/>
<path d="M591.932 57.9927V31.8119H598.701L609.473 45.6503V31.8119H616.654V57.9927H610.296L599.113 43.6307V57.9927H591.932Z" fill="#040404"/>
<path d="M564.063 58.4416C559.276 58.4416 555.124 54.4397 555.124 47.9693V47.8945C555.124 41.3119 559.238 37.3099 564.025 37.3099C567.092 37.3099 568.888 38.6938 570.234 40.2272V30.6899H577.34V57.9928H570.234V55.2999C568.85 56.9829 567.092 58.4416 564.063 58.4416ZM566.232 52.4948C568.514 52.4948 570.346 50.5873 570.346 47.8945V47.8197C570.346 45.1642 568.514 43.2567 566.232 43.2567C563.951 43.2567 562.081 45.1268 562.081 47.8197V47.8945C562.081 50.5873 563.951 52.4948 566.232 52.4948Z" fill="#040404"/>
<path d="M541.65 58.4789C535.18 58.4789 530.505 53.7289 530.505 47.9691V47.8943C530.505 42.1346 535.217 37.3098 541.725 37.3098C548.196 37.3098 552.871 42.0598 552.871 47.8195V47.8943C552.871 53.6541 548.158 58.4789 541.65 58.4789ZM541.725 52.4573C544.306 52.4573 545.952 50.4002 545.952 47.9691V47.8943C545.952 45.4259 544.156 43.3314 541.65 43.3314C539.07 43.3314 537.424 45.3885 537.424 47.8195V47.8943C537.424 50.3628 539.219 52.4573 541.725 52.4573Z" fill="#040404"/>
<path d="M517.106 58.4789C510.635 58.4789 505.96 53.7289 505.96 47.9691V47.8943C505.96 42.1346 510.673 37.3098 517.181 37.3098C523.651 37.3098 528.326 42.0598 528.326 47.8195V47.8943C528.326 53.6541 523.614 58.4789 517.106 58.4789ZM517.181 52.4573C519.761 52.4573 521.407 50.4002 521.407 47.9691V47.8943C521.407 45.4259 519.612 43.3314 517.106 43.3314C514.525 43.3314 512.879 45.3885 512.879 47.8195V47.8943C512.879 50.3628 514.675 52.4573 517.181 52.4573Z" fill="#040404"/>
<path d="M491.802 58.5164C483.648 58.5164 477.552 52.9062 477.552 44.9771V44.9023C477.552 37.2725 483.536 31.2883 491.652 31.2883C496.253 31.2883 499.506 32.7096 502.274 35.1032L498.01 40.2272C496.14 38.6564 494.27 37.7587 491.69 37.7587C487.912 37.7587 484.995 40.9378 484.995 44.9397V45.0146C484.995 49.2409 487.95 52.2704 492.101 52.2704C493.859 52.2704 495.205 51.8964 496.29 51.1857V48.0066H491.129V42.6957H503.172V54.477C500.404 56.7585 496.552 58.5164 491.802 58.5164Z" fill="#040404"/>
<path d="M459.599 58.4042C455.335 58.4042 452.792 56.5341 452.792 51.7093V43.4811H450.398V37.7587H452.792V32.6348H459.898V37.7587H464.611V43.4811H459.898V50.3255C459.898 51.7467 460.534 52.3452 461.843 52.3452C462.778 52.3452 463.676 52.0834 464.536 51.6719V57.2447C463.264 57.9553 461.581 58.4042 459.599 58.4042Z" fill="#040404"/>
<path d="M440.026 58.4789C433.93 58.4789 429.441 53.6916 429.441 47.9692V47.8944C429.441 42.172 433.892 37.3473 440.288 37.3473C444.439 37.3473 447.207 39.1425 448.927 41.8728L444.103 45.4633C443.13 44.1169 442.046 43.3315 440.325 43.3315C438.044 43.3315 436.361 45.3511 436.361 47.8196V47.8944C436.361 50.5125 438.006 52.4948 440.4 52.4948C442.083 52.4948 443.168 51.7093 444.29 50.4003L449.04 53.8412C447.17 56.6089 444.477 58.4789 440.026 58.4789Z" fill="#040404"/>
<path d="M417.642 58.4789C411.284 58.4789 406.796 54.2525 406.796 47.9691V47.8943C406.796 41.985 411.022 37.3098 417.007 37.3098C424.001 37.3098 427.217 42.4338 427.217 48.3806C427.217 48.8294 427.217 49.353 427.18 49.8392H413.641C414.202 52.0459 415.81 53.1679 418.016 53.1679C419.7 53.1679 421.046 52.5321 422.505 51.1108L426.432 54.3647C424.487 56.8332 421.682 58.4789 417.642 58.4789ZM413.528 46.2113H420.56C420.298 43.9672 418.989 42.546 417.044 42.546C415.174 42.546 413.902 44.0046 413.528 46.2113Z" fill="#040404"/>
<path d="M396.333 35.9261V30.6899H403.738V35.9261H396.333ZM396.37 64.0892C395.248 64.0892 394.313 63.9396 393.453 63.8274V59.1148C393.752 59.1522 394.089 59.1522 394.388 59.1522C395.772 59.1522 396.482 58.5538 396.482 56.7959V37.7588H403.589V57.0951C403.589 62.2191 400.971 64.0892 396.37 64.0892Z" fill="#040404"/>
<path d="M382.111 58.4789C375.641 58.4789 370.966 53.7289 370.966 47.9691V47.8943C370.966 42.1346 375.678 37.3098 382.186 37.3098C388.656 37.3098 393.331 42.0598 393.331 47.8195V47.8943C393.331 53.6541 388.619 58.4789 382.111 58.4789ZM382.186 52.4573C384.767 52.4573 386.412 50.4002 386.412 47.9691V47.8943C386.412 45.4259 384.617 43.3314 382.111 43.3314C379.53 43.3314 377.885 45.3885 377.885 47.8195V47.8943C377.885 50.3628 379.68 52.4573 382.186 52.4573Z" fill="#040404"/>
<path d="M356.156 57.9928V37.7587H363.262V41.8355C364.421 39.0678 366.291 37.2725 369.658 37.4221V44.9024H369.059C365.356 44.9024 363.262 47.0342 363.262 51.7094V57.9928H356.156Z" fill="#040404"/>
<path d="M331.402 57.9927V31.8119H342.622C349.242 31.8119 353.506 35.2154 353.506 41.0126V41.0874C353.506 47.2586 348.756 50.5125 342.248 50.5125H338.658V57.9927H331.402ZM338.658 44.8275H342.099C344.679 44.8275 346.25 43.481 346.25 41.424V41.3492C346.25 39.1051 344.679 37.9083 342.061 37.9083H338.658V44.8275Z" fill="#040404"/>
<path d="M570.898 108.38V89.694H578.907C583.632 89.694 586.675 92.1232 586.675 96.2609V96.3143C586.675 100.719 583.285 103.041 578.64 103.041H576.077V108.38H570.898ZM576.077 98.9838H578.533C580.375 98.9838 581.496 98.0228 581.496 96.5546V96.5012C581.496 94.8995 580.375 94.0453 578.506 94.0453H576.077V98.9838Z" fill="white"/>
<path d="M546.581 108.381L554.536 89.5605H559.528L567.483 108.381H561.931L560.569 105.044H553.362L552.027 108.381H546.581ZM554.883 101.013H559.075L556.992 95.7004L554.883 101.013Z" fill="white"/>
<path d="M523.299 108.38V89.694H528.771L533.229 96.9283L537.687 89.694H543.16V108.38H538.008V97.6491L533.229 104.964H533.123L528.371 97.7025V108.38H523.299Z" fill="white"/>
<path d="M501.285 108.38V89.694H508.493C515.166 89.694 519.037 93.538 519.037 98.9304V98.9838C519.037 104.376 515.113 108.38 508.386 108.38H501.285ZM506.464 103.789H508.573C511.669 103.789 513.725 102.08 513.725 99.0639V99.0105C513.725 96.0207 511.669 94.2855 508.573 94.2855H506.464V103.789Z" fill="white"/>
<path d="M476.968 108.381L484.923 89.5605H489.915L497.87 108.381H492.317L490.956 105.044H483.748L482.414 108.381H476.968ZM485.27 101.013H489.461L487.379 95.7004L485.27 101.013Z" fill="white"/>
<path d="M465.272 108.754C459.506 108.754 455.235 104.456 455.235 99.0906V99.0372C455.235 93.6715 459.559 89.3202 465.325 89.3202C471.091 89.3202 475.363 93.6181 475.363 98.9838V99.0372C475.363 104.403 471.038 108.754 465.272 108.754ZM465.325 104.083C468.182 104.083 470.077 101.787 470.077 99.0906V99.0372C470.077 96.341 468.128 93.9918 465.272 93.9918C462.442 93.9918 460.547 96.2876 460.547 98.9838V99.0372C460.547 101.733 462.496 104.083 465.325 104.083Z" fill="white"/>
<path d="M435.086 108.38V89.694H443.922C446.779 89.694 448.754 90.4414 450.009 91.7228C451.103 92.7906 451.664 94.2321 451.664 96.0741V96.1275C451.664 98.9838 450.142 100.879 447.82 101.867L452.278 108.38H446.298L442.534 102.721H442.481H440.265V108.38H435.086ZM440.265 98.6635H443.682C445.444 98.6635 446.458 97.8092 446.458 96.4478V96.3944C446.458 94.9262 445.391 94.1787 443.656 94.1787H440.265V98.6635Z" fill="white"/>
<path d="M141.597 154.432V156.969H138.737V160.637H135.831V156.969H126.975V154.894L134.931 144.492H138.137L130.642 154.432H135.923V151.181H138.737V154.432H141.597Z" fill="black"/>
<path d="M118.202 158.1H125.813V160.637H113.912V158.63L120.324 152.541C121.892 151.042 122.169 150.097 122.169 149.197C122.169 147.721 121.154 146.868 119.17 146.868C117.602 146.868 116.288 147.398 115.388 148.551L113.289 146.937C114.535 145.253 116.772 144.262 119.424 144.262C122.93 144.262 125.19 146.037 125.19 148.897C125.19 150.466 124.752 151.896 122.515 153.994L118.202 158.1Z" fill="black"/>
<path d="M104.053 148.321H106.82L101.054 161.628C99.9244 164.419 98.3561 165.272 96.3034 165.272C95.0811 165.272 93.7895 164.857 93.0054 164.142L94.1585 162.02C94.7121 162.551 95.4962 162.874 96.2804 162.874C97.2951 162.874 97.8948 162.389 98.4483 161.167L98.6559 160.683L93.2821 148.321H96.2804L100.155 157.431L104.053 148.321Z" fill="black"/>
<path d="M86.2095 148.182C89.7612 148.182 91.8139 149.866 91.8139 153.418V160.637H89.0924V159.137C88.4005 160.198 87.0628 160.798 85.2178 160.798C82.404 160.798 80.6282 159.253 80.6282 157.108C80.6282 155.055 82.012 153.441 85.7482 153.441H88.931V153.256C88.931 151.573 87.9162 150.581 85.8635 150.581C84.4797 150.581 83.0498 151.042 82.1273 151.803L80.9972 149.705C82.3118 148.69 84.2261 148.182 86.2095 148.182ZM85.8174 158.699C87.2243 158.699 88.4466 158.053 88.931 156.785V155.355H85.9558C83.9954 155.355 83.465 156.093 83.465 156.993C83.465 158.03 84.3414 158.699 85.8174 158.699Z" fill="black"/>
<path d="M77.4206 160.637H74.5839L74.5608 149.935L69.2562 158.791H67.9186L62.614 150.074V160.637H59.7542V144.492H62.2219L68.6335 155.194L74.9298 144.492H77.3976L77.4206 160.637Z" fill="black"/>
<path d="M264.855 158.1H272.466V160.637H260.566V158.63L266.977 152.541C268.545 151.042 268.822 150.097 268.822 149.197C268.822 147.721 267.807 146.868 265.824 146.868C264.256 146.868 262.941 147.398 262.042 148.551L259.943 146.937C261.188 145.253 263.425 144.262 266.078 144.262C269.583 144.262 271.844 146.037 271.844 148.897C271.844 150.466 271.405 151.896 269.168 153.994L264.855 158.1Z" fill="black"/>
<path d="M251.159 144.492H257.571V160.637H254.572V147.006H251.159V144.492Z" fill="black"/>
<path d="M243.722 154.548C243.722 154.778 243.699 155.124 243.676 155.401H234.013C234.359 157.2 235.858 158.353 238.003 158.353C239.387 158.353 240.471 157.915 241.347 157.016L242.892 158.791C241.785 160.106 240.055 160.798 237.934 160.798C233.805 160.798 231.13 158.146 231.13 154.479C231.13 150.812 233.828 148.182 237.495 148.182C241.093 148.182 243.722 150.696 243.722 154.548ZM237.495 150.489C235.627 150.489 234.266 151.688 233.99 153.487H240.978C240.747 151.711 239.387 150.489 237.495 150.489Z" fill="black"/>
<path d="M223.232 148.182C226.184 148.182 228.375 149.866 228.375 153.579V160.637H225.492V153.948C225.492 151.757 224.408 150.696 222.563 150.696C220.51 150.696 219.127 151.942 219.127 154.409V160.637H216.244V148.321H218.988V149.912C219.934 148.782 221.433 148.182 223.232 148.182Z" fill="black"/>
<path d="M209.586 148.321H212.469V160.636H209.724V159.068C208.802 160.198 207.349 160.798 205.757 160.798C202.598 160.798 200.453 159.068 200.453 155.355V148.321H203.336V154.963C203.336 157.2 204.397 158.261 206.219 158.261C208.225 158.261 209.586 157.016 209.586 154.548V148.321Z" fill="black"/>
<path d="M191.174 160.867C189.144 160.867 187.299 160.037 186.192 158.538L187.899 156.485C188.775 157.684 189.836 158.33 191.104 158.33C192.765 158.33 193.618 157.338 193.618 155.355V147.006H187.876V144.492H196.617V155.194C196.617 158.999 194.725 160.867 191.174 160.867Z" fill="black"/>
<path d="M399.997 150.673C403.18 150.673 405.555 152.611 405.555 155.632C405.555 158.838 402.949 160.867 399.651 160.867C395.246 160.867 392.663 158.03 392.663 152.841C392.663 147.306 395.892 144.262 400.574 144.262C402.188 144.262 403.733 144.608 404.817 145.299L403.71 147.56C402.834 146.983 401.773 146.775 400.643 146.775C397.599 146.775 395.684 148.667 395.684 152.334V152.357C396.653 151.227 398.198 150.673 399.997 150.673ZM399.49 158.515C401.358 158.515 402.65 157.454 402.65 155.77C402.65 154.087 401.381 153.026 399.421 153.026C397.483 153.026 396.146 154.202 396.146 155.793C396.146 157.315 397.345 158.515 399.49 158.515Z" fill="black"/>
<path d="M383.389 158.1H391V160.637H379.1V158.63L385.511 152.541C387.079 151.042 387.356 150.097 387.356 149.197C387.356 147.721 386.341 146.868 384.358 146.868C382.79 146.868 381.475 147.398 380.576 148.551L378.477 146.937C379.722 145.253 381.959 144.262 384.612 144.262C388.117 144.262 390.377 146.037 390.377 148.897C390.377 150.466 389.939 151.896 387.702 153.994L383.389 158.1Z" fill="black"/>
<path d="M371.04 154.548C371.04 154.778 371.017 155.124 370.994 155.401H361.331C361.677 157.2 363.176 158.353 365.321 158.353C366.704 158.353 367.788 157.915 368.665 157.016L370.21 158.791C369.103 160.106 367.373 160.798 365.251 160.798C361.123 160.798 358.448 158.146 358.448 154.479C358.448 150.812 361.146 148.182 364.813 148.182C368.411 148.182 371.04 150.696 371.04 154.548ZM364.813 150.489C362.945 150.489 361.584 151.688 361.308 153.487H368.296C368.065 151.711 366.704 150.489 364.813 150.489Z" fill="black"/>
<path d="M350.55 148.182C353.502 148.182 355.693 149.866 355.693 153.579V160.637H352.81V153.948C352.81 151.757 351.726 150.696 349.881 150.696C347.828 150.696 346.444 151.942 346.444 154.409V160.637H343.562V148.321H346.306V149.912C347.252 148.782 348.751 148.182 350.55 148.182Z" fill="black"/>
<path d="M336.904 148.321H339.787V160.636H337.042V159.068C336.12 160.198 334.667 160.798 333.075 160.798C329.916 160.798 327.771 159.068 327.771 155.355V148.321H330.654V154.963C330.654 157.2 331.715 158.261 333.537 158.261C335.543 158.261 336.904 157.016 336.904 154.548V148.321Z" fill="black"/>
<path d="M318.491 160.867C316.462 160.867 314.617 160.037 313.51 158.538L315.216 156.485C316.093 157.684 317.154 158.33 318.422 158.33C320.083 158.33 320.936 157.338 320.936 155.355V147.006H315.193V144.492H323.934V155.194C323.934 158.999 322.043 160.867 318.491 160.867Z" fill="black"/>
<path d="M521.58 160.867C517.751 160.867 514.845 157.869 514.845 152.564C514.845 147.26 517.751 144.262 521.58 144.262C525.432 144.262 528.337 147.26 528.337 152.564C528.337 157.869 525.432 160.867 521.58 160.867ZM521.58 158.261C523.794 158.261 525.316 156.462 525.316 152.564C525.316 148.667 523.794 146.868 521.58 146.868C519.389 146.868 517.867 148.667 517.867 152.564C517.867 156.462 519.389 158.261 521.58 158.261Z" fill="black"/>
<path d="M505.231 144.492H511.643V160.637H508.645V147.006H505.231V144.492Z" fill="black"/>
<path d="M495.995 148.321H498.762L492.996 161.628C491.866 164.419 490.298 165.272 488.245 165.272C487.023 165.272 485.731 164.857 484.947 164.142L486.1 162.02C486.654 162.551 487.438 162.874 488.222 162.874C489.237 162.874 489.837 162.389 490.39 161.167L490.598 160.683L485.224 148.321H488.222L492.097 157.431L495.995 148.321Z" fill="black"/>
<path d="M480.564 160.637V143.524H483.447V160.637H480.564Z" fill="black"/>
<path d="M473.906 148.321H476.789V160.636H474.045V159.068C473.122 160.198 471.669 160.798 470.078 160.798C466.918 160.798 464.773 159.068 464.773 155.355V148.321H467.656V154.963C467.656 157.2 468.717 158.261 470.539 158.261C472.546 158.261 473.906 157.016 473.906 154.548V148.321Z" fill="black"/>
<path d="M455.494 160.867C453.464 160.867 451.619 160.037 450.512 158.538L452.219 156.485C453.095 157.684 454.156 158.33 455.425 158.33C457.085 158.33 457.939 157.338 457.939 155.355V147.006H452.196V144.492H460.937V155.194C460.937 158.999 459.046 160.867 455.494 160.867Z" fill="black"/>
<path d="M661.442 154.432V156.969H658.583V160.637H655.677V156.969H646.82V154.894L654.777 144.492H657.983L650.487 154.432H655.769V151.181H658.583V154.432H661.442Z" fill="black"/>
<path d="M638.047 158.1H645.658V160.637H633.758V158.63L640.169 152.541C641.738 151.042 642.014 150.097 642.014 149.197C642.014 147.721 641 146.868 639.016 146.868C637.448 146.868 636.133 147.398 635.234 148.551L633.135 146.937C634.38 145.253 636.618 144.262 639.27 144.262C642.775 144.262 645.036 146.037 645.036 148.897C645.036 150.466 644.597 151.896 642.36 153.994L638.047 158.1Z" fill="black"/>
<path d="M623.898 148.321H626.666L620.9 161.628C619.77 164.419 618.202 165.272 616.149 165.272C614.927 165.272 613.635 164.857 612.851 164.142L614.004 162.02C614.558 162.551 615.342 162.874 616.126 162.874C617.141 162.874 617.74 162.389 618.294 161.167L618.501 160.683L613.128 148.321H616.126L620 157.431L623.898 148.321Z" fill="black"/>
<path d="M608.468 160.637V143.524H611.35V160.637H608.468Z" fill="black"/>
<path d="M601.81 148.321H604.693V160.636H601.948V159.068C601.026 160.198 599.573 160.798 597.981 160.798C594.822 160.798 592.677 159.068 592.677 155.355V148.321H595.56V154.963C595.56 157.2 596.621 158.261 598.443 158.261C600.449 158.261 601.81 157.016 601.81 154.548V148.321Z" fill="black"/>
<path d="M583.397 160.867C581.368 160.867 579.523 160.037 578.416 158.538L580.122 156.485C580.999 157.684 582.06 158.33 583.328 158.33C584.989 158.33 585.842 157.338 585.842 155.355V147.006H580.099V144.492H588.84V155.194C588.84 158.999 586.949 160.867 583.397 160.867Z" fill="black"/>
<path d="M790.194 144.492H802.74V146.499L796.467 160.637H793.261L799.327 147.029H792.984V149.774H790.194V144.492Z" fill="black"/>
<path d="M781.886 157.915L782.694 159.968C782.002 160.521 780.964 160.798 779.926 160.798C777.228 160.798 775.682 159.368 775.682 156.647V150.719H773.653V148.413H775.682V145.599H778.565V148.413H781.863V150.719H778.565V156.577C778.565 157.777 779.165 158.422 780.272 158.422C780.872 158.422 781.448 158.261 781.886 157.915Z" fill="black"/>
<path d="M767.226 160.798C765.174 160.798 763.121 160.198 762.014 159.414L763.121 157.223C764.205 157.938 765.865 158.446 767.411 158.446C769.233 158.446 769.994 157.938 769.994 157.085C769.994 154.732 762.383 156.946 762.383 152.034C762.383 149.705 764.482 148.182 767.803 148.182C769.44 148.182 771.308 148.574 772.415 149.243L771.308 151.434C770.132 150.742 768.956 150.512 767.78 150.512C766.027 150.512 765.197 151.088 765.197 151.896C765.197 154.386 772.808 152.172 772.808 156.993C772.808 159.299 770.686 160.798 767.226 160.798Z" fill="black"/>
<path d="M756.763 148.321H759.646V160.636H756.902V159.068C755.979 160.198 754.526 160.798 752.935 160.798C749.775 160.798 747.63 159.068 747.63 155.355V148.321H750.513V154.963C750.513 157.2 751.574 158.261 753.396 158.261C755.402 158.261 756.763 157.016 756.763 154.548V148.321Z" fill="black"/>
<path d="M741.188 148.321H743.932V158.768C743.932 163.243 741.603 165.272 737.29 165.272C734.984 165.272 732.7 164.673 731.293 163.519L732.585 161.352C733.669 162.251 735.422 162.828 737.129 162.828C739.85 162.828 741.049 161.582 741.049 159.091V158.446C740.034 159.553 738.582 160.083 736.921 160.083C733.392 160.083 730.694 157.684 730.694 154.11C730.694 150.535 733.392 148.182 736.921 148.182C738.651 148.182 740.173 148.736 741.188 149.958V148.321ZM737.359 157.638C739.527 157.638 741.095 156.208 741.095 154.11C741.095 152.034 739.527 150.627 737.359 150.627C735.168 150.627 733.6 152.034 733.6 154.11C733.6 156.208 735.168 157.638 737.359 157.638Z" fill="black"/>
<path d="M725.051 148.321H727.934V160.636H725.189V159.068C724.267 160.198 722.814 160.798 721.223 160.798C718.063 160.798 715.918 159.068 715.918 155.355V148.321H718.801V154.963C718.801 157.2 719.862 158.261 721.684 158.261C723.69 158.261 725.051 157.016 725.051 154.548V148.321Z" fill="black"/>
<path d="M711.323 160.637L709.708 156.9H701.636L700.045 160.637H696.954L704.219 144.492H707.171L714.459 160.637H711.323ZM702.651 154.548H708.716L705.672 147.49L702.651 154.548Z" fill="black"/>
<path d="M949.427 144.492H955.839V160.637H952.84V147.006H949.427V144.492Z" fill="black"/>
<path d="M940.916 158.1H948.527V160.637H936.626V158.63L943.038 152.541C944.606 151.042 944.883 150.097 944.883 149.197C944.883 147.721 943.868 146.868 941.885 146.868C940.316 146.868 939.002 147.398 938.102 148.551L936.003 146.937C937.249 145.253 939.486 144.262 942.138 144.262C945.644 144.262 947.904 146.037 947.904 148.897C947.904 150.466 947.466 151.896 945.229 153.994L940.916 158.1Z" fill="black"/>
<path d="M928.157 157.915L928.965 159.968C928.273 160.521 927.235 160.798 926.197 160.798C923.499 160.798 921.953 159.368 921.953 156.647V150.719H919.924V148.413H921.953V145.599H924.836V148.413H928.134V150.719H924.836V156.577C924.836 157.777 925.436 158.422 926.543 158.422C927.143 158.422 927.719 158.261 928.157 157.915Z" fill="black"/>
<path d="M913.497 160.798C911.445 160.798 909.392 160.198 908.285 159.414L909.392 157.223C910.476 157.938 912.136 158.446 913.682 158.446C915.504 158.446 916.265 157.938 916.265 157.085C916.265 154.732 908.654 156.946 908.654 152.034C908.654 149.705 910.753 148.182 914.074 148.182C915.711 148.182 917.579 148.574 918.686 149.243L917.579 151.434C916.403 150.742 915.227 150.512 914.051 150.512C912.298 150.512 911.468 151.088 911.468 151.896C911.468 154.386 919.079 152.172 919.079 156.993C919.079 159.299 916.957 160.798 913.497 160.798Z" fill="black"/>
<path d="M903.034 148.321H905.917V160.636H903.173V159.068C902.25 160.198 900.797 160.798 899.206 160.798C896.046 160.798 893.901 159.068 893.901 155.355V148.321H896.784V154.963C896.784 157.2 897.845 158.261 899.667 158.261C901.673 158.261 903.034 157.016 903.034 154.548V148.321Z" fill="black"/>
<path d="M887.459 148.321H890.203V158.768C890.203 163.243 887.874 165.272 883.561 165.272C881.255 165.272 878.971 164.673 877.564 163.519L878.856 161.352C879.94 162.251 881.693 162.828 883.4 162.828C886.121 162.828 887.32 161.582 887.32 159.091V158.446C886.305 159.553 884.852 160.083 883.192 160.083C879.663 160.083 876.965 157.684 876.965 154.11C876.965 150.535 879.663 148.182 883.192 148.182C884.922 148.182 886.444 148.736 887.459 149.958V148.321ZM883.63 157.638C885.798 157.638 887.366 156.208 887.366 154.11C887.366 152.034 885.798 150.627 883.63 150.627C881.439 150.627 879.871 152.034 879.871 154.11C879.871 156.208 881.439 157.638 883.63 157.638Z" fill="black"/>
<path d="M871.322 148.321H874.205V160.636H871.46V159.068C870.538 160.198 869.085 160.798 867.494 160.798C864.334 160.798 862.189 159.068 862.189 155.355V148.321H865.072V154.963C865.072 157.2 866.133 158.261 867.955 158.261C869.961 158.261 871.322 157.016 871.322 154.548V148.321Z" fill="black"/>
<path d="M857.594 160.637L855.979 156.9H847.907L846.316 160.637H843.225L850.49 144.492H853.442L860.73 160.637H857.594ZM848.922 154.548H854.987L851.943 147.49L848.922 154.548Z" fill="black"/>
<path d="M164.385 507.595L179.336 502.447L177.504 496.455L182.3 494.804L187.656 512.322L182.86 513.973L181.028 507.982L166.077 513.13L164.385 507.595Z" fill="white"/>
<path d="M155.87 479.744L175.617 472.945L177.196 478.109L169.27 489.92L179.708 486.326L181.382 491.804L161.636 498.603L160.153 493.753L168.377 481.492L157.545 485.222L155.87 479.744Z" fill="white"/>
<path d="M149.878 460.143L169.624 453.344L174.535 469.407L169.881 471.01L166.645 460.425L163.654 461.454L166.585 471.041L162.269 472.527L159.338 462.94L156.207 464.019L159.487 474.746L154.832 476.349L149.878 460.143Z" fill="white"/>
<path d="M142.13 434.803L161.877 428.004L163.665 433.853L157.477 441.25L166.579 443.382L168.367 449.231L148.62 456.03L146.937 450.524L158.277 446.619L148.986 444.173L148.951 444.059L155.071 436.339L143.788 440.224L142.13 434.803Z" fill="white"/>
<path d="M136.138 415.202L155.884 408.403L160.795 424.466L156.141 426.069L152.905 415.484L149.914 416.513L152.845 426.1L148.529 427.586L145.598 417.999L142.467 419.078L145.747 429.805L141.092 431.408L136.138 415.202Z" fill="white"/>
<path d="M132.136 403.542C130.392 397.835 133.303 391.756 139.199 389.726L139.255 389.706C145.01 387.725 150.893 390.65 152.742 396.699C153.99 400.778 153.1 403.986 151.215 406.59L146.753 403.522C147.815 401.896 148.316 400.272 147.732 398.361C146.877 395.565 143.934 394.402 141.056 395.393L141 395.412C138.038 396.432 136.327 399.197 137.182 401.993C137.818 404.076 139.153 404.973 140.958 405.676L139.297 410.851C136.155 409.852 133.488 407.964 132.136 403.542Z" fill="white"/>
<path d="M122.568 370.818L142.315 364.019L143.894 369.183L135.969 380.994L146.406 377.4L148.081 382.878L128.334 389.678L126.851 384.827L135.076 372.567L124.243 376.296L122.568 370.818Z" fill="white"/>
<path d="M118.165 357.74C116.429 352.062 118.188 347.515 124.365 345.388L135.452 341.571L137.17 347.191L126.197 350.97C123.347 351.951 122.438 353.872 123.119 356.097C123.799 358.323 125.542 359.331 128.306 358.379L139.421 354.552L141.139 360.173L130.194 363.942C123.818 366.137 119.9 363.418 118.165 357.74Z" fill="white"/>
<path d="M111.035 334.524C109.151 328.361 112.297 322.233 117.967 320.28L118.024 320.261C123.694 318.308 129.705 321.347 131.589 327.51C133.473 333.673 130.327 339.801 124.657 341.754L124.601 341.773C118.931 343.726 112.92 340.687 111.035 334.524ZM115.989 332.881C116.923 335.934 119.968 337.125 122.817 336.143L122.874 336.124C125.723 335.143 127.568 332.205 126.635 329.153C125.711 326.128 122.665 324.938 119.816 325.919L119.76 325.938C116.91 326.919 115.065 329.857 115.989 332.881Z" fill="white"/>
<path d="M101.337 301.373L121.083 294.574L122.662 299.738L114.737 311.549L125.174 307.955L126.849 313.433L107.103 320.232L105.62 315.382L113.844 303.121L103.011 306.851L101.337 301.373Z" fill="white"/>
<path d="M94.3133 278.401L114.06 271.602L115.639 276.766L107.713 288.577L118.151 284.983L119.826 290.461L100.079 297.26L98.5962 292.41L106.82 280.149L95.9881 283.879L94.3133 278.401Z" fill="white"/>
<path d="M86.7164 253.553L109.203 255.207L110.835 260.542L93.5464 275.892L91.7321 269.958L94.8134 267.289L92.4582 259.585L88.4959 259.373L86.7164 253.553ZM97.215 259.745L98.5845 264.224L103.518 260.066L97.215 259.745Z" fill="white"/>
<path d="M304.909 527.475L319.859 522.327L318.028 516.335L322.823 514.684L328.179 532.202L323.383 533.854L321.552 527.862L306.601 533.01L304.909 527.475Z" fill="white"/>
<path d="M296.394 499.624L316.14 492.825L317.719 497.989L309.794 509.8L320.231 506.206L321.906 511.684L302.159 518.483L300.677 513.633L308.901 501.372L298.068 505.102L296.394 499.624Z" fill="white"/>
<path d="M290.401 480.024L310.147 473.224L315.058 489.287L310.404 490.89L307.168 480.305L304.178 481.334L307.108 490.921L302.792 492.407L299.861 482.821L296.73 483.899L300.01 494.627L295.355 496.229L290.401 480.024Z" fill="white"/>
<path d="M282.654 454.683L302.4 447.884L304.188 453.733L298 461.13L307.102 463.262L308.89 469.111L289.143 475.91L287.46 470.404L298.8 466.499L289.509 464.053L289.474 463.939L295.595 456.219L284.311 460.104L282.654 454.683Z" fill="white"/>
<path d="M276.661 435.082L296.408 428.283L301.319 444.346L296.664 445.949L293.428 435.364L290.438 436.393L293.369 445.98L289.053 447.466L286.122 437.88L282.99 438.958L286.27 449.685L281.616 451.288L276.661 435.082Z" fill="white"/>
<path d="M272.66 423.422C270.915 417.716 273.827 411.636 279.723 409.606L279.779 409.586C285.534 407.605 291.417 410.53 293.266 416.579C294.513 420.659 293.623 423.866 291.738 426.471L287.277 423.403C288.338 421.776 288.84 420.153 288.255 418.241C287.401 415.445 284.457 414.282 281.58 415.273L281.523 415.293C278.562 416.313 276.85 419.078 277.705 421.874C278.342 423.957 279.676 424.853 281.481 425.556L279.821 430.732C276.678 429.733 274.012 427.844 272.66 423.422Z" fill="white"/>
<path d="M263.092 390.699L282.838 383.899L284.417 389.064L276.492 400.874L286.929 397.281L288.604 402.759L268.857 409.558L267.375 404.707L275.599 392.447L264.766 396.177L263.092 390.699Z" fill="white"/>
<path d="M257.099 371.098L276.846 364.299L281.757 380.362L277.102 381.965L273.866 371.38L270.876 372.409L273.807 381.996L269.491 383.482L266.56 373.895L263.428 374.973L266.708 385.701L262.054 387.304L257.099 371.098Z" fill="white"/>
<path d="M249.352 345.758L269.098 338.958L270.887 344.807L264.699 352.204L273.8 354.337L275.588 360.186L255.842 366.985L254.158 361.478L265.498 357.574L256.208 355.128L256.173 355.014L262.293 347.293L251.009 351.179L249.352 345.758Z" fill="white"/>
<path d="M241.605 320.417L261.351 313.618L263.139 319.467L256.951 326.864L266.053 328.996L267.841 334.845L248.094 341.645L246.411 336.138L257.751 332.233L248.46 329.788L248.425 329.674L254.546 321.953L243.262 325.838L241.605 320.417Z" fill="white"/>
<path d="M236.856 306.315C234.972 300.152 238.118 294.023 243.788 292.071L243.845 292.051C249.515 290.099 255.526 293.138 257.41 299.301C259.294 305.463 256.148 311.592 250.478 313.545L250.422 313.564C244.752 315.516 238.741 312.478 236.856 306.315ZM241.811 304.672C242.744 307.725 245.789 308.915 248.638 307.934L248.695 307.915C251.544 306.934 253.39 303.996 252.456 300.943C251.532 297.919 248.486 296.729 245.637 297.71L245.581 297.729C242.732 298.71 240.886 301.648 241.811 304.672Z" fill="white"/>
<path d="M230.35 285.032C228.605 279.326 231.517 273.246 237.412 271.216L237.469 271.197C243.224 269.215 249.107 272.141 250.956 278.189C252.203 282.269 251.313 285.477 249.428 288.081L244.967 285.013C246.028 283.386 246.53 281.763 245.945 279.851C245.09 277.055 242.147 275.893 239.27 276.884L239.213 276.903C236.251 277.923 234.54 280.688 235.395 283.484C236.032 285.567 237.366 286.464 239.171 287.166L237.511 292.342C234.368 291.343 231.702 289.455 230.35 285.032Z" fill="white"/>
<path d="M420.13 479.625C418.952 475.773 419.506 472.586 421.029 469.918L425.534 472.214C424.532 474.136 424.176 475.929 424.734 477.755C425.214 479.325 426.309 480.051 427.522 479.634L427.579 479.614C428.848 479.177 429.252 477.745 428.615 475.662L427.9 473.323L430.505 471.543L436 474.728L433.662 467.081L438.091 465.557L442.505 479.993L438.583 481.343L433.093 477.968C433.345 481.035 432.471 483.889 429.114 485.045L429.058 485.065C425.052 486.444 421.491 484.075 420.13 479.625Z" fill="white"/>
<path d="M409.723 444.157L429.47 437.358L434.381 453.421L429.726 455.024L426.49 444.439L423.5 445.468L426.431 455.055L422.115 456.541L419.184 446.955L416.053 448.033L419.332 458.76L414.678 460.363L409.723 444.157Z" fill="white"/>
<path d="M402.7 421.185L422.447 414.386L424.025 419.55L416.1 431.361L426.538 427.767L428.212 433.245L408.466 440.044L406.983 435.194L415.207 422.933L404.375 426.663L402.7 421.185Z" fill="white"/>
<path d="M397.952 407.083C396.068 400.92 399.214 394.791 404.884 392.839L404.94 392.819C410.61 390.867 416.622 393.906 418.506 400.069C420.39 406.231 417.244 412.36 411.574 414.313L411.517 414.332C405.847 416.284 399.836 413.246 397.952 407.083ZM402.906 405.44C403.839 408.493 406.885 409.683 409.734 408.702L409.79 408.683C412.639 407.702 414.485 404.764 413.552 401.711C412.627 398.687 409.582 397.497 406.733 398.478L406.676 398.497C403.827 399.478 401.981 402.416 402.906 405.44Z" fill="white"/>
<path d="M391.099 383.241L406.05 378.093L404.218 372.101L409.014 370.45L414.37 387.968L409.574 389.619L407.742 383.628L392.791 388.776L391.099 383.241Z" fill="white"/>
<path d="M385.973 367.699C384.892 364.161 384.963 360.416 386.385 357.214L390.966 359.043C390.016 361.545 389.87 364.024 390.576 366.335C391.03 367.819 391.782 368.443 392.628 368.151L392.684 368.132C393.503 367.85 393.753 367.039 393.545 364.114C393.205 359.533 393.386 355.844 397.448 354.445L397.505 354.426C401.172 353.163 404.722 355.189 406.188 359.982C407.226 363.377 407.134 366.341 406.076 369.102L401.366 367.666C402.077 365.402 402.143 363.172 401.602 361.403C401.192 360.062 400.428 359.6 399.722 359.843L399.666 359.863C398.763 360.173 398.578 360.994 398.803 363.975C399.22 368.909 398.626 372.267 394.93 373.539L394.874 373.559C390.84 374.948 387.456 372.549 385.973 367.699Z" fill="white"/>
<path d="M377.921 340.136L397.667 333.337L402.578 349.4L397.924 351.002L394.687 340.417L391.697 341.447L394.628 351.033L390.312 352.519L387.381 342.933L384.25 344.011L387.53 354.739L382.875 356.342L377.921 340.136Z" fill="white"/>
<path d="M372.371 321.984L392.117 315.185L393.81 320.72L378.859 325.868L381.816 335.54L377.02 337.191L372.371 321.984Z" fill="white"/>
<path d="M369.378 312.194L389.124 305.394L390.825 310.958L371.079 317.757L369.378 312.194Z" fill="white"/>
<path d="M361.595 286.739L381.342 279.94L383.13 285.789L376.942 293.186L386.044 295.318L387.832 301.167L368.085 307.966L366.402 302.46L377.742 298.555L368.451 296.109L368.416 295.995L374.537 288.275L363.253 292.16L361.595 286.739Z" fill="white"/>
<path d="M554.608 480.454L558.444 479.133L555.487 469.46L559.073 467.217L574.425 473.377L576.135 478.97L564.174 483.088L564.951 485.627L560.86 487.036L560.084 484.496L556.248 485.817L554.608 480.454ZM561.05 472.969L562.506 477.734L568.176 475.781L561.05 472.969Z" fill="white"/>
<path d="M543.213 443.182L562.959 436.383L567.87 452.446L563.216 454.049L559.979 443.464L556.989 444.493L559.92 454.08L555.604 455.566L552.673 445.979L549.542 447.058L552.822 457.785L548.167 459.388L543.213 443.182Z" fill="white"/>
<path d="M536.189 420.21L555.936 413.411L557.515 418.575L549.59 430.386L560.027 426.792L561.702 432.27L541.955 439.069L540.472 434.219L548.697 421.958L537.864 425.688L536.189 420.21Z" fill="white"/>
<path d="M531.441 406.108C529.557 399.945 532.703 393.816 538.373 391.864L538.43 391.844C544.1 389.892 550.111 392.931 551.995 399.093C553.879 405.256 550.733 411.385 545.063 413.337L545.007 413.357C539.337 415.309 533.326 412.27 531.441 406.108ZM536.395 404.465C537.329 407.518 540.374 408.708 543.223 407.727L543.28 407.708C546.129 406.727 547.975 403.789 547.041 400.736C546.117 397.712 543.071 396.521 540.222 397.502L540.166 397.522C537.317 398.503 535.471 401.441 536.395 404.465Z" fill="white"/>
<path d="M524.588 382.266L539.539 377.118L537.708 371.126L542.503 369.475L547.859 386.993L543.063 388.644L541.232 382.653L526.281 387.801L524.588 382.266Z" fill="white"/>
<path d="M519.463 366.724C518.381 363.186 518.452 359.441 519.874 356.239L524.455 358.067C523.506 360.57 523.359 363.049 524.066 365.36C524.519 366.843 525.271 367.467 526.118 367.176L526.174 367.157C526.992 366.875 527.243 366.063 527.035 363.139C526.694 358.558 526.876 354.869 530.938 353.47L530.994 353.451C534.662 352.188 538.212 354.213 539.677 359.007C540.715 362.402 540.624 365.366 539.566 368.127L534.855 366.69C535.566 364.427 535.633 362.197 535.092 360.428C534.682 359.087 533.917 358.625 533.212 358.868L533.155 358.887C532.253 359.198 532.067 360.019 532.293 363C532.71 367.933 532.115 371.292 528.42 372.564L528.363 372.584C524.329 373.973 520.946 371.574 519.463 366.724Z" fill="white"/>
<path d="M511.41 339.161L531.156 332.361L536.067 348.424L531.413 350.027L528.177 339.442L525.187 340.472L528.117 350.058L523.801 351.544L520.871 341.958L517.739 343.036L521.019 353.764L516.365 355.366L511.41 339.161Z" fill="white"/>
<path d="M505.86 321.009L525.607 314.21L527.299 319.745L512.348 324.893L515.305 334.565L510.51 336.216L505.86 321.009Z" fill="white"/>
<path d="M502.867 311.218L522.614 304.419L524.315 309.983L504.568 316.782L502.867 311.218Z" fill="white"/>
<path d="M495.085 285.764L514.832 278.965L516.62 284.813L510.432 292.21L519.533 294.343L521.321 300.192L501.575 306.991L499.891 301.485L511.231 297.58L501.941 295.134L501.906 295.02L508.026 287.299L496.742 291.185L495.085 285.764Z" fill="white"/>
<path d="M688.385 479.128C687.303 475.59 687.757 472.691 689.039 469.947L693.674 471.852C692.817 473.944 692.498 475.757 693.013 477.44C693.571 479.266 694.814 480.068 696.225 479.582L696.281 479.563C697.692 479.077 698.2 477.578 697.668 475.837C697.292 474.61 696.555 473.729 695.703 472.982L696.506 469.079L706.694 466.202L710.777 479.554L706.263 481.108L703.515 472.121L700.473 472.979C701.175 473.747 701.745 474.591 702.155 475.932C703.254 479.527 702.274 483.459 697.986 484.936L697.93 484.955C693.529 486.47 689.868 483.979 688.385 479.128Z" fill="white"/>
<path d="M678.091 444.032L697.838 437.233L702.749 453.296L698.094 454.898L694.858 444.313L691.868 445.343L694.799 454.93L690.483 456.416L687.552 446.829L684.421 447.907L687.7 458.635L683.046 460.238L678.091 444.032Z" fill="white"/>
<path d="M671.068 421.06L690.815 414.261L692.394 419.425L684.468 431.236L694.906 427.642L696.58 433.12L676.834 439.919L675.351 435.069L683.575 422.808L672.743 426.538L671.068 421.06Z" fill="white"/>
<path d="M666.32 406.957C664.436 400.795 667.582 394.666 673.252 392.713L673.308 392.694C678.978 390.742 684.99 393.781 686.874 399.943C688.758 406.106 685.612 412.235 679.942 414.187L679.885 414.207C674.215 416.159 668.204 413.12 666.32 406.957ZM671.274 405.315C672.207 408.367 675.253 409.558 678.102 408.577L678.158 408.557C681.007 407.576 682.853 404.639 681.92 401.586C680.995 398.562 677.95 397.371 675.1 398.352L675.044 398.372C672.195 399.353 670.349 402.29 671.274 405.315Z" fill="white"/>
<path d="M659.467 383.115L674.418 377.967L672.586 371.976L677.382 370.325L682.738 387.843L677.942 389.494L676.11 383.502L661.159 388.65L659.467 383.115Z" fill="white"/>
<path d="M654.341 367.574C653.26 364.036 653.331 360.29 654.753 357.089L659.334 358.917C658.384 361.42 658.238 363.899 658.944 366.21C659.398 367.693 660.15 368.317 660.996 368.026L661.052 368.006C661.87 367.725 662.121 366.913 661.913 363.989C661.573 359.408 661.754 355.719 665.816 354.32L665.873 354.3C669.54 353.038 673.09 355.063 674.556 359.857C675.594 363.252 675.502 366.216 674.444 368.977L669.733 367.54C670.445 365.277 670.511 363.047 669.97 361.278C669.56 359.937 668.795 359.475 668.09 359.718L668.034 359.737C667.131 360.048 666.946 360.869 667.171 363.85C667.588 368.783 666.993 372.142 663.298 373.414L663.242 373.433C659.208 374.822 655.824 372.424 654.341 367.574Z" fill="white"/>
<path d="M646.289 340.01L666.035 333.211L670.946 349.274L666.292 350.877L663.055 340.292L660.065 341.321L662.996 350.908L658.68 352.394L655.749 342.808L652.618 343.886L655.898 354.613L651.243 356.216L646.289 340.01Z" fill="white"/>
<path d="M640.739 321.859L660.486 315.059L662.178 320.594L647.227 325.742L650.184 335.414L645.388 337.066L640.739 321.859Z" fill="white"/>
<path d="M637.746 312.068L657.492 305.269L659.193 310.832L639.447 317.632L637.746 312.068Z" fill="white"/>
<path d="M629.964 286.614L649.71 279.814L651.498 285.663L645.31 293.06L654.412 295.193L656.2 301.042L636.453 307.841L634.77 302.334L646.11 298.43L636.819 295.984L636.784 295.87L642.905 288.149L631.621 292.035L629.964 286.614Z" fill="white"/>
<path d="M815.968 479.753C815.104 476.928 815.383 474.782 816.358 472.87C817.371 470.881 819.303 469.144 822.998 467.872L823.055 467.852C829.204 465.735 834.812 467.146 836.722 473.395C837.577 476.191 837.408 478.393 836.582 480.791L831.924 479.525C832.452 477.987 832.695 476.642 832.207 475.044C831.491 472.705 829.413 472.127 826.852 472.725C827.965 473.509 829.091 474.54 829.692 476.509C830.765 480.018 829.507 483.857 825.558 485.217L825.501 485.237C821.072 486.762 817.302 484.118 815.968 479.753ZM820.157 478.058C820.69 479.798 822.104 480.447 823.542 479.951L823.599 479.932C825.009 479.446 825.806 477.973 825.274 476.233C824.742 474.493 823.328 473.844 821.917 474.33L821.861 474.349C820.422 474.845 819.625 476.317 820.157 478.058Z" fill="white"/>
<path d="M805.343 443.572L825.089 436.773L830 452.836L825.346 454.439L822.109 443.854L819.119 444.883L822.05 454.47L817.734 455.956L814.803 446.369L811.672 447.448L814.952 458.175L810.297 459.778L805.343 443.572Z" fill="white"/>
<path d="M798.319 420.6L818.066 413.801L819.645 418.965L811.719 430.776L822.157 427.182L823.832 432.66L804.085 439.459L802.602 434.609L810.827 422.348L799.994 426.078L798.319 420.6Z" fill="white"/>
<path d="M793.571 406.498C791.687 400.335 794.833 394.206 800.503 392.254L800.56 392.234C806.23 390.282 812.241 393.321 814.125 399.484C816.009 405.646 812.863 411.775 807.193 413.727L807.137 413.747C801.467 415.699 795.455 412.66 793.571 406.498ZM798.525 404.855C799.459 407.908 802.504 409.098 805.353 408.117L805.41 408.098C808.259 407.117 810.104 404.179 809.171 401.126C808.246 398.102 805.201 396.912 802.352 397.893L802.296 397.912C799.446 398.893 797.601 401.831 798.525 404.855Z" fill="white"/>
<path d="M786.719 382.656L801.67 377.508L799.838 371.516L804.633 369.865L809.989 387.383L805.194 389.034L803.362 383.043L788.411 388.191L786.719 382.656Z" fill="white"/>
<path d="M781.593 367.114C780.511 363.576 780.582 359.831 782.004 356.629L786.585 358.457C785.635 360.96 785.489 363.439 786.196 365.75C786.649 367.234 787.401 367.858 788.247 367.566L788.304 367.547C789.122 367.265 789.373 366.453 789.165 363.529C788.824 358.948 789.006 355.259 793.068 353.86L793.124 353.841C796.791 352.578 800.342 354.604 801.807 359.397C802.845 362.792 802.754 365.756 801.696 368.517L796.985 367.08C797.696 364.817 797.763 362.587 797.222 360.818C796.812 359.477 796.047 359.015 795.342 359.258L795.285 359.277C794.383 359.588 794.197 360.409 794.422 363.39C794.84 368.324 794.245 371.682 790.55 372.954L790.493 372.974C786.459 374.363 783.076 371.964 781.593 367.114Z" fill="white"/>
<path d="M773.54 339.551L793.287 332.751L798.198 348.814L793.543 350.417L790.307 339.832L787.317 340.862L790.248 350.448L785.932 351.934L783.001 342.348L779.869 343.426L783.149 354.154L778.495 355.756L773.54 339.551Z" fill="white"/>
<path d="M767.991 321.399L787.737 314.6L789.429 320.135L774.478 325.283L777.435 334.955L772.64 336.606L767.991 321.399Z" fill="white"/>
<path d="M764.997 311.608L784.744 304.809L786.445 310.373L766.698 317.172L764.997 311.608Z" fill="white"/>
<path d="M757.215 286.154L776.962 279.355L778.75 285.204L772.562 292.601L781.663 294.733L783.451 300.582L763.705 307.381L762.021 301.875L773.362 297.97L764.071 295.524L764.036 295.41L770.156 287.69L758.872 291.575L757.215 286.154Z" fill="white"/>
<path d="M938.243 483.365L957.99 476.566L959.682 482.101L944.731 487.249L947.688 496.921L942.893 498.573L938.243 483.365Z" fill="white"/>
<path d="M930.647 458.517L953.134 460.171L954.765 465.507L937.477 480.857L935.662 474.922L938.744 472.253L936.388 464.55L932.426 464.337L930.647 458.517ZM941.145 464.709L942.515 469.189L947.448 465.03L941.145 464.709Z" fill="white"/>
<path d="M925.143 440.514L944.889 433.715L949.8 449.778L945.146 451.381L941.909 440.795L938.919 441.825L941.85 451.412L937.534 452.898L934.603 443.311L931.472 444.389L934.752 455.117L930.097 456.72L925.143 440.514Z" fill="white"/>
<path d="M920.189 424.82L937.599 409.869L939.492 416.061L928.382 424.9L942.266 425.134L944.124 431.211L921.759 429.956L920.189 424.82Z" fill="white"/>
<path d="M912.348 398.666L932.095 391.866L937.006 407.929L932.351 409.532L929.115 398.947L926.125 399.977L929.056 409.563L924.74 411.049L921.809 401.463L918.678 402.541L921.957 413.269L917.303 414.871L912.348 398.666Z" fill="white"/>
<path d="M905.904 377.588L925.651 370.789L928.538 380.233C929.471 383.286 929.327 385.669 928.383 387.476C927.612 389.034 926.272 390.158 924.326 390.828L924.269 390.848C921.251 391.887 918.751 390.95 916.948 388.828L911.522 395.962L909.568 389.571L914.318 383.489L914.301 383.432L913.577 381.064L907.597 383.123L905.904 377.588ZM917.865 379.588L918.981 383.24C919.557 385.123 920.791 385.896 922.23 385.401L922.286 385.381C923.838 384.847 924.279 383.434 923.712 381.579L922.604 377.956L917.865 379.588Z" fill="white"/>
<path d="M897.761 350.953L917.508 344.154L919.2 349.689L904.249 354.837L907.206 364.509L902.41 366.16L897.761 350.953Z" fill="white"/>
<path d="M890.164 326.105L912.651 327.759L914.282 333.094L896.994 348.444L895.18 342.51L898.261 339.841L895.906 332.137L891.944 331.925L890.164 326.105ZM900.663 332.297L902.032 336.776L906.966 332.618L900.663 332.297Z" fill="white"/>
<path d="M883.629 304.73L903.376 297.931L904.955 303.095L897.03 314.906L907.467 311.312L909.142 316.79L889.395 323.589L887.912 318.739L896.137 306.478L885.304 310.208L883.629 304.73Z" fill="white"/>
<path d="M880.636 294.94L900.383 288.141L902.084 293.704L882.337 300.503L880.636 294.94Z" fill="white"/>
<path d="M874.771 275.754L894.517 268.955L899.402 284.933L894.606 286.584L891.414 276.141L888.057 277.297L890.944 286.741L886.402 288.305L883.515 278.861L876.463 281.29L874.771 275.754Z" fill="white"/>
<path fill-rule="evenodd" clip-rule="evenodd" d="M241.209 235.136C208.139 235.136 184.511 267.145 194.254 298.748L247.096 470.152C262.31 519.499 225.415 569.482 173.776 569.482C140.231 569.482 110.576 547.69 100.555 515.677L13.6855 238.174C13.3303 237.039 12.2791 236.267 11.0901 236.267V208.009C24.6337 208.009 36.6073 216.807 40.6533 229.732L127.522 507.235C133.853 527.458 152.586 541.223 173.776 541.223C206.396 541.223 229.702 509.65 220.092 478.477L167.25 307.073C151.904 257.296 189.12 206.878 241.209 206.878C275.051 206.878 304.969 228.866 315.073 261.164L391.886 506.694C398.313 527.238 417.342 541.223 438.868 541.223C472.111 541.223 495.797 508.953 485.832 477.239L432.304 306.88C416.73 257.313 453.749 206.878 505.705 206.878C539.166 206.878 568.791 228.505 578.986 260.375L657.859 506.935C664.393 527.362 683.38 541.223 704.827 541.223C738.175 541.223 761.907 508.813 751.839 477.022L697.804 306.401C682.196 257.119 718.985 206.878 770.679 206.878C804.083 206.878 833.618 228.567 843.617 260.438L919.969 503.808C926.954 526.072 947.586 541.223 970.92 541.223H1011V569.481H970.92C935.238 569.481 903.688 546.313 893.007 512.267L816.655 268.897C810.352 248.807 791.735 235.136 770.679 235.136C738.095 235.136 714.905 266.805 724.743 297.869L778.778 468.49C794.616 518.499 757.284 569.482 704.827 569.482C671.091 569.482 641.223 547.677 630.944 515.545L552.071 268.985C545.621 248.82 526.877 235.136 505.705 235.136C472.831 235.136 449.409 267.048 459.263 298.41L512.791 468.768C528.476 518.688 491.194 569.482 438.868 569.482C404.986 569.482 375.033 547.468 364.917 515.131L288.104 269.601C281.689 249.096 262.695 235.136 241.209 235.136Z" fill="#575757"/>
<path fill-rule="evenodd" clip-rule="evenodd" d="M241.209 221.76C239.565 221.76 237.94 221.822 236.334 221.944C235.92 221.976 235.558 221.665 235.526 221.25C235.495 220.835 235.806 220.474 236.22 220.442C237.864 220.317 239.527 220.254 241.209 220.254C242.911 220.254 244.601 220.321 246.276 220.453C246.691 220.486 247.001 220.849 246.968 221.263C246.935 221.678 246.572 221.988 246.158 221.955C244.522 221.826 242.872 221.76 241.209 221.76ZM505.705 221.76C504.068 221.76 502.45 221.822 500.852 221.944C500.437 221.975 500.075 221.665 500.043 221.25C500.012 220.835 500.323 220.473 500.737 220.442C502.373 220.317 504.03 220.254 505.705 220.254C507.386 220.254 509.056 220.32 510.711 220.45C511.125 220.483 511.435 220.845 511.402 221.26C511.37 221.675 511.007 221.984 510.593 221.952C508.977 221.825 507.347 221.76 505.705 221.76ZM770.679 221.76C769.053 221.76 767.446 221.822 765.859 221.943C765.444 221.974 765.082 221.664 765.05 221.249C765.019 220.834 765.33 220.472 765.744 220.441C767.37 220.317 769.015 220.254 770.679 220.254C772.355 220.254 774.018 220.32 775.668 220.45C776.082 220.483 776.392 220.846 776.359 221.26C776.327 221.675 775.964 221.985 775.549 221.952C773.939 221.825 772.315 221.76 770.679 221.76ZM10.3369 222.138C10.3369 221.722 10.6741 221.385 11.0901 221.385C12.9905 221.385 14.8371 221.69 16.5751 222.26C16.9703 222.389 17.1856 222.815 17.056 223.21C16.9263 223.605 16.5008 223.821 16.1055 223.691C14.517 223.17 12.8288 222.891 11.0901 222.891C10.6741 222.891 10.3369 222.554 10.3369 222.138ZM756.908 222.51C757.004 222.915 756.753 223.321 756.348 223.416C753.182 224.165 750.123 225.155 747.187 226.365C746.803 226.524 746.362 226.341 746.204 225.956C746.045 225.571 746.229 225.131 746.613 224.973C749.622 223.733 752.757 222.717 756.002 221.95C756.406 221.855 756.812 222.105 756.908 222.51ZM491.836 222.52C491.931 222.924 491.681 223.33 491.276 223.426C488.088 224.178 485.008 225.175 482.051 226.392C481.666 226.55 481.226 226.366 481.068 225.982C480.91 225.597 481.093 225.157 481.478 224.998C484.507 223.752 487.664 222.731 490.93 221.96C491.335 221.864 491.74 222.115 491.836 222.52ZM227.276 222.523C227.371 222.928 227.121 223.333 226.716 223.429C223.514 224.183 220.418 225.181 217.447 226.4C217.062 226.557 216.622 226.373 216.465 225.989C216.307 225.604 216.491 225.164 216.875 225.006C219.92 223.757 223.09 222.735 226.37 221.962C226.775 221.867 227.181 222.118 227.276 222.523ZM519.689 222.574C519.787 222.17 520.193 221.921 520.598 222.019C523.866 222.806 527.047 223.847 530.115 225.124C530.499 225.284 530.68 225.725 530.521 226.109C530.361 226.493 529.92 226.675 529.536 226.515C526.541 225.268 523.435 224.252 520.245 223.483C519.841 223.386 519.592 222.979 519.689 222.574ZM784.611 222.575C784.709 222.171 785.116 221.922 785.52 222.02C788.777 222.808 791.945 223.851 795 225.128C795.384 225.289 795.565 225.73 795.404 226.114C795.244 226.498 794.803 226.679 794.419 226.518C791.437 225.271 788.344 224.253 785.166 223.484C784.762 223.387 784.513 222.979 784.611 222.575ZM255.374 222.604C255.472 222.2 255.879 221.951 256.283 222.049C259.591 222.85 262.809 223.909 265.912 225.208C266.296 225.369 266.477 225.81 266.316 226.194C266.155 226.577 265.714 226.758 265.33 226.598C262.301 225.33 259.158 224.295 255.929 223.513C255.525 223.415 255.276 223.008 255.374 222.604ZM24.3638 228.58C24.7023 228.338 25.1727 228.417 25.4145 228.755C26.4778 230.243 27.3206 231.914 27.8883 233.728L29.4395 238.683C29.5638 239.08 29.3427 239.503 28.9457 239.627C28.5487 239.752 28.1262 239.531 28.0019 239.134L26.4507 234.178C25.9313 232.519 25.1607 230.991 24.1888 229.631C23.947 229.292 24.0253 228.822 24.3638 228.58ZM738.859 229.689C739.076 230.044 738.965 230.508 738.61 230.725C735.858 232.41 733.255 234.304 730.821 236.38C730.505 236.65 730.029 236.612 729.759 236.296C729.49 235.979 729.527 235.504 729.844 235.234C732.337 233.107 735.003 231.167 737.823 229.44C738.178 229.223 738.642 229.335 738.859 229.689ZM473.662 229.741C473.879 230.096 473.767 230.559 473.412 230.776C470.64 232.471 468.019 234.375 465.566 236.464C465.25 236.733 464.774 236.695 464.504 236.379C464.235 236.062 464.273 235.587 464.59 235.317C467.101 233.178 469.787 231.227 472.627 229.491C472.982 229.274 473.445 229.386 473.662 229.741ZM209.016 229.757C209.232 230.112 209.12 230.575 208.764 230.792C205.977 232.49 203.341 234.398 200.873 236.49C200.556 236.759 200.08 236.72 199.811 236.403C199.542 236.086 199.581 235.61 199.899 235.341C202.425 233.198 205.126 231.244 207.981 229.505C208.336 229.289 208.799 229.401 209.016 229.757ZM537.989 229.933C538.207 229.579 538.671 229.468 539.025 229.686C541.87 231.439 544.574 233.412 547.11 235.589C547.426 235.86 547.462 236.335 547.191 236.651C546.92 236.966 546.445 237.003 546.129 236.732C543.653 234.607 541.013 232.68 538.235 230.969C537.881 230.751 537.77 230.287 537.989 229.933ZM802.834 229.938C803.053 229.584 803.517 229.475 803.871 229.694C806.702 231.447 809.391 233.422 811.912 235.599C812.227 235.871 812.261 236.346 811.989 236.661C811.718 236.976 811.242 237.011 810.927 236.739C808.467 234.614 805.842 232.686 803.078 230.975C802.724 230.756 802.615 230.291 802.834 229.938ZM273.883 230.092C274.103 229.738 274.567 229.629 274.92 229.848C277.796 231.63 280.526 233.637 283.086 235.849C283.4 236.121 283.435 236.597 283.163 236.911C282.891 237.226 282.415 237.261 282.1 236.989C279.601 234.828 276.935 232.869 274.127 231.129C273.773 230.909 273.664 230.445 273.883 230.092ZM723.924 242.115C724.239 242.386 724.276 242.862 724.005 243.178C721.912 245.616 720.01 248.213 718.317 250.945C718.098 251.298 717.634 251.407 717.28 251.188C716.927 250.969 716.818 250.505 717.037 250.151C718.77 247.354 720.718 244.693 722.862 242.196C723.132 241.881 723.608 241.844 723.924 242.115ZM458.616 242.239C458.932 242.51 458.968 242.986 458.696 243.301C456.587 245.754 454.669 248.367 452.961 251.115C452.742 251.468 452.277 251.577 451.924 251.357C451.57 251.138 451.462 250.673 451.682 250.32C453.43 247.506 455.394 244.83 457.554 242.319C457.826 242.003 458.301 241.968 458.616 242.239ZM193.88 242.28C194.194 242.552 194.229 243.028 193.957 243.342C191.832 245.8 189.898 248.42 188.175 251.175C187.955 251.528 187.49 251.635 187.137 251.414C186.785 251.194 186.677 250.729 186.898 250.376C188.662 247.556 190.642 244.874 192.817 242.357C193.089 242.042 193.565 242.008 193.88 242.28ZM553.109 242.599C553.426 242.329 553.901 242.368 554.17 242.685C556.321 245.218 558.282 247.93 560.028 250.803C560.244 251.159 560.131 251.622 559.775 251.838C559.42 252.054 558.956 251.941 558.74 251.586C557.036 248.781 555.122 246.133 553.022 243.66C552.753 243.343 552.792 242.868 553.109 242.599ZM817.862 242.605C818.18 242.337 818.655 242.378 818.923 242.696C821.057 245.228 823 247.939 824.727 250.811C824.941 251.167 824.826 251.63 824.469 251.844C824.113 252.059 823.65 251.943 823.436 251.587C821.75 248.785 819.854 246.138 817.771 243.666C817.503 243.348 817.544 242.873 817.862 242.605ZM289.142 242.97C289.461 242.702 289.936 242.743 290.204 243.061C292.37 245.635 294.341 248.39 296.093 251.307C296.307 251.664 296.192 252.127 295.835 252.341C295.479 252.555 295.016 252.439 294.802 252.083C293.091 249.234 291.166 246.544 289.051 244.031C288.783 243.713 288.824 243.238 289.142 242.97ZM31.5982 248.101C31.9951 247.976 32.4177 248.197 32.542 248.594L35.6444 258.505C35.7687 258.902 35.5476 259.325 35.1507 259.449C34.7537 259.573 34.3311 259.352 34.2068 258.955L31.1044 249.044C30.9801 248.647 31.2012 248.225 31.5982 248.101ZM713.494 258.509C713.877 258.671 714.057 259.112 713.895 259.496C712.65 262.443 711.631 265.496 710.855 268.628C710.755 269.032 710.347 269.278 709.943 269.178C709.539 269.078 709.293 268.67 709.393 268.266C710.188 265.056 711.232 261.929 712.507 258.91C712.669 258.526 713.111 258.347 713.494 258.509ZM448.098 258.731C448.481 258.893 448.66 259.336 448.497 259.719C447.24 262.684 446.209 265.756 445.423 268.909C445.323 269.312 444.914 269.558 444.51 269.458C444.107 269.357 443.861 268.948 443.962 268.544C444.767 265.315 445.823 262.168 447.11 259.131C447.273 258.748 447.715 258.569 448.098 258.731ZM183.269 258.814C183.651 258.978 183.828 259.42 183.665 259.803C182.392 262.777 181.346 265.859 180.544 269.023C180.442 269.426 180.032 269.67 179.629 269.568C179.226 269.466 178.982 269.056 179.084 268.653C179.905 265.412 180.976 262.256 182.28 259.21C182.443 258.828 182.886 258.65 183.269 258.814ZM828.194 259.324C828.58 259.169 829.019 259.355 829.174 259.741C829.792 261.276 830.353 262.844 830.855 264.442L832.445 269.513C832.57 269.909 832.349 270.332 831.952 270.457C831.555 270.581 831.132 270.36 831.008 269.963L829.417 264.893C828.928 263.332 828.38 261.802 827.777 260.304C827.621 259.918 827.808 259.479 828.194 259.324ZM563.552 259.33C563.937 259.173 564.377 259.358 564.534 259.743C565.162 261.279 565.734 262.849 566.246 264.45L567.889 269.587C568.016 269.983 567.798 270.407 567.401 270.534C567.005 270.661 566.581 270.442 566.454 270.046L564.811 264.909C564.311 263.346 563.753 261.813 563.14 260.313C562.982 259.928 563.167 259.488 563.552 259.33ZM299.624 259.963C300.01 259.808 300.449 259.996 300.604 260.382C301.231 261.941 301.799 263.534 302.307 265.158L303.908 270.273C304.032 270.67 303.811 271.093 303.414 271.217C303.017 271.341 302.594 271.12 302.47 270.723L300.87 265.608C300.373 264.021 299.818 262.466 299.206 260.943C299.051 260.557 299.238 260.119 299.624 259.963ZM37.8031 267.922C38.2001 267.798 38.6226 268.019 38.7469 268.416L41.8494 278.327C41.9736 278.724 41.7526 279.146 41.3556 279.271C40.9586 279.395 40.536 279.174 40.4117 278.777L37.3093 268.866C37.185 268.469 37.4061 268.046 37.8031 267.922ZM708.602 277.308C709.016 277.343 709.324 277.707 709.289 278.121C709.022 281.286 709.001 284.501 709.243 287.745C709.274 288.16 708.963 288.521 708.548 288.552C708.133 288.583 707.772 288.272 707.741 287.857C707.493 284.533 707.514 281.238 707.788 277.995C707.823 277.58 708.187 277.273 708.602 277.308ZM443.144 277.649C443.558 277.685 443.866 278.05 443.83 278.465C443.555 281.65 443.528 284.887 443.766 288.154C443.796 288.569 443.484 288.93 443.069 288.96C442.654 288.99 442.293 288.678 442.263 288.263C442.02 284.917 442.048 281.599 442.329 278.335C442.365 277.921 442.73 277.614 443.144 277.649ZM178.223 277.796C178.637 277.834 178.942 278.2 178.905 278.614C178.615 281.813 178.573 285.064 178.796 288.346C178.825 288.761 178.511 289.121 178.096 289.149C177.681 289.177 177.322 288.864 177.293 288.449C177.065 285.087 177.108 281.755 177.405 278.478C177.442 278.064 177.808 277.759 178.223 277.796ZM834.682 279.16C835.079 279.035 835.502 279.256 835.627 279.653L838.808 289.793C838.932 290.19 838.712 290.613 838.315 290.737C837.918 290.862 837.495 290.641 837.371 290.244L834.189 280.104C834.065 279.707 834.286 279.284 834.682 279.16ZM570.229 279.373C570.625 279.246 571.049 279.464 571.176 279.86L574.462 290.134C574.589 290.53 574.37 290.954 573.974 291.081C573.578 291.207 573.154 290.989 573.027 290.593L569.741 280.319C569.614 279.923 569.833 279.499 570.229 279.373ZM306.165 280.009C306.562 279.885 306.984 280.106 307.108 280.503L310.309 290.734C310.433 291.131 310.212 291.553 309.815 291.678C309.418 291.802 308.995 291.581 308.871 291.184L305.671 280.953C305.546 280.556 305.768 280.134 306.165 280.009ZM44.008 287.744C44.405 287.62 44.8276 287.841 44.9518 288.238L48.0543 298.148C48.1786 298.545 47.9575 298.968 47.5605 299.092C47.1635 299.217 46.7409 298.995 46.6167 298.598L43.5142 288.688C43.3899 288.291 43.611 287.868 44.008 287.744ZM709.805 296.696C710.209 296.601 710.615 296.852 710.71 297.257C711.074 298.806 711.5 300.357 711.991 301.907L713.492 306.647C713.618 307.044 713.398 307.467 713.002 307.592C712.605 307.718 712.182 307.498 712.056 307.102L710.555 302.362C710.053 300.776 709.616 299.188 709.244 297.601C709.148 297.196 709.4 296.791 709.805 296.696ZM444.318 297.171C444.723 297.077 445.128 297.329 445.222 297.734C445.585 299.295 446.011 300.857 446.502 302.419L447.989 307.151C448.114 307.548 447.893 307.971 447.496 308.096C447.099 308.22 446.676 308 446.552 307.603L445.065 302.871C444.563 301.273 444.127 299.673 443.755 298.075C443.661 297.67 443.913 297.265 444.318 297.171ZM179.31 297.408C179.716 297.316 180.119 297.57 180.212 297.976C180.568 299.546 180.988 301.117 181.472 302.688L182.94 307.45C183.062 307.847 182.839 308.269 182.442 308.391C182.044 308.514 181.623 308.291 181.5 307.893L180.032 303.132C179.537 301.525 179.107 299.916 178.743 298.309C178.65 297.904 178.905 297.5 179.31 297.408ZM841.045 299.441C841.442 299.316 841.865 299.537 841.989 299.934L845.171 310.074C845.295 310.471 845.074 310.894 844.677 311.018C844.28 311.143 843.858 310.922 843.733 310.525L840.552 300.385C840.427 299.988 840.648 299.565 841.045 299.441ZM576.801 299.919C577.198 299.792 577.622 300.011 577.748 300.407L581.035 310.68C581.161 311.077 580.943 311.501 580.547 311.627C580.151 311.754 579.727 311.536 579.6 311.139L576.314 300.866C576.187 300.47 576.405 300.046 576.801 299.919ZM312.566 300.47C312.963 300.346 313.385 300.567 313.509 300.964L316.71 311.195C316.834 311.592 316.613 312.014 316.216 312.138C315.819 312.263 315.396 312.041 315.272 311.644L312.072 301.414C311.947 301.017 312.169 300.594 312.566 300.47ZM50.2129 307.565C50.6099 307.441 51.0325 307.662 51.1568 308.059L54.2592 317.97C54.3835 318.367 54.1624 318.79 53.7654 318.914C53.3684 319.038 52.9459 318.817 52.8216 318.42L49.7191 308.509C49.5949 308.112 49.8159 307.69 50.2129 307.565ZM715.549 315.635C715.945 315.51 716.369 315.729 716.494 316.126L719.496 325.605C719.622 326.001 719.402 326.425 719.006 326.55C718.609 326.676 718.186 326.456 718.06 326.06L715.058 316.581C714.933 316.184 715.152 315.761 715.549 315.635ZM450.018 316.123C450.415 315.998 450.838 316.219 450.963 316.616L453.936 326.08C454.061 326.477 453.84 326.9 453.444 327.024C453.047 327.149 452.624 326.928 452.499 326.532L449.525 317.067C449.401 316.67 449.621 316.248 450.018 316.123ZM184.934 316.474C185.331 316.352 185.753 316.575 185.875 316.972L188.811 326.495C188.934 326.892 188.711 327.314 188.313 327.436C187.916 327.559 187.494 327.336 187.372 326.938L184.436 317.416C184.313 317.018 184.536 316.597 184.934 316.474ZM847.408 319.721C847.805 319.597 848.227 319.818 848.352 320.215L851.533 330.355C851.658 330.752 851.437 331.175 851.04 331.299C850.643 331.424 850.22 331.203 850.096 330.806L846.915 320.665C846.79 320.269 847.011 319.846 847.408 319.721ZM583.374 320.466C583.77 320.339 584.194 320.558 584.321 320.954L587.607 331.227C587.734 331.623 587.516 332.047 587.119 332.174C586.723 332.301 586.299 332.082 586.173 331.686L582.886 321.413C582.759 321.016 582.978 320.593 583.374 320.466ZM318.967 320.931C319.364 320.807 319.786 321.028 319.91 321.425L323.111 331.655C323.235 332.052 323.014 332.475 322.617 332.599C322.22 332.723 321.797 332.502 321.673 332.105L318.473 321.875C318.348 321.478 318.57 321.055 318.967 320.931ZM56.4179 327.387C56.8148 327.263 57.2374 327.484 57.3617 327.881L60.4641 337.792C60.5884 338.189 60.3673 338.611 59.9704 338.736C59.5734 338.86 59.1508 338.639 59.0265 338.242L55.9241 328.331C55.7998 327.934 56.0209 327.511 56.4179 327.387ZM721.553 334.593C721.949 334.467 722.373 334.687 722.498 335.084L725.5 344.563C725.626 344.959 725.406 345.383 725.01 345.508C724.613 345.634 724.19 345.414 724.064 345.017L721.062 335.539C720.937 335.142 721.156 334.719 721.553 334.593ZM455.966 335.052C456.363 334.927 456.786 335.147 456.91 335.544L459.884 345.009C460.009 345.406 459.788 345.828 459.391 345.953C458.994 346.078 458.572 345.857 458.447 345.46L455.473 335.996C455.348 335.599 455.569 335.176 455.966 335.052ZM190.805 335.519C191.203 335.397 191.624 335.62 191.747 336.017L194.682 345.54C194.805 345.937 194.582 346.359 194.185 346.481C193.787 346.604 193.365 346.381 193.243 345.983L190.307 336.461C190.185 336.063 190.408 335.642 190.805 335.519ZM853.77 340.002C854.167 339.878 854.59 340.098 854.715 340.495L857.896 350.636C858.02 351.033 857.8 351.455 857.403 351.58C857.006 351.704 856.583 351.484 856.458 351.087L853.277 340.946C853.153 340.549 853.374 340.127 853.77 340.002ZM589.947 341.012C590.343 340.886 590.767 341.104 590.894 341.5L594.18 351.774C594.307 352.17 594.088 352.594 593.692 352.721C593.296 352.847 592.872 352.629 592.745 352.233L589.459 341.959C589.332 341.563 589.551 341.139 589.947 341.012ZM325.368 341.392C325.765 341.268 326.187 341.489 326.311 341.886L329.512 352.116C329.636 352.513 329.415 352.936 329.018 353.06C328.621 353.184 328.198 352.963 328.074 352.566L324.874 342.336C324.75 341.939 324.971 341.516 325.368 341.392ZM62.6228 347.209C63.0198 347.084 63.4423 347.306 63.5666 347.703L66.6691 357.613C66.7934 358.01 66.5723 358.433 66.1753 358.557C65.7783 358.682 65.3557 358.46 65.2315 358.063L62.129 348.153C62.0047 347.756 62.2258 347.333 62.6228 347.209ZM727.557 353.551C727.953 353.425 728.377 353.645 728.502 354.042L731.504 363.52C731.63 363.917 731.41 364.34 731.013 364.466C730.617 364.592 730.194 364.372 730.068 363.975L727.066 354.496C726.94 354.1 727.16 353.677 727.557 353.551ZM461.913 353.98C462.31 353.856 462.733 354.076 462.858 354.473L465.832 363.937C465.956 364.334 465.736 364.757 465.339 364.882C464.942 365.007 464.519 364.786 464.394 364.389L461.421 354.925C461.296 354.528 461.517 354.105 461.913 353.98ZM196.676 354.564C197.074 354.442 197.496 354.664 197.618 355.062L200.554 364.584C200.676 364.982 200.453 365.404 200.056 365.526C199.658 365.649 199.237 365.426 199.114 365.028L196.179 355.506C196.056 355.108 196.279 354.687 196.676 354.564ZM860.133 360.283C860.53 360.158 860.953 360.379 861.077 360.776L864.259 370.917C864.383 371.313 864.162 371.736 863.765 371.861C863.368 371.985 862.946 371.764 862.821 371.367L859.64 361.227C859.515 360.83 859.736 360.407 860.133 360.283ZM596.52 361.559C596.916 361.432 597.34 361.651 597.466 362.047L600.753 372.32C600.88 372.717 600.661 373.141 600.265 373.267C599.869 373.394 599.445 373.176 599.318 372.779L596.032 362.506C595.905 362.11 596.123 361.686 596.52 361.559ZM331.769 361.853C332.166 361.728 332.588 361.95 332.712 362.347L335.913 372.577C336.037 372.974 335.816 373.396 335.419 373.521C335.022 373.645 334.599 373.424 334.475 373.027L331.275 362.796C331.151 362.399 331.372 361.977 331.769 361.853ZM68.8277 367.03C69.2247 366.906 69.6473 367.127 69.7715 367.524L72.874 377.435C72.9983 377.832 72.7772 378.255 72.3802 378.379C71.9832 378.503 71.5607 378.282 71.4364 377.885L68.3339 367.974C68.2097 367.577 68.4307 367.155 68.8277 367.03ZM733.561 372.509C733.957 372.383 734.38 372.603 734.506 372.999L737.508 382.478C737.634 382.875 737.414 383.298 737.017 383.424C736.621 383.549 736.198 383.33 736.072 382.933L733.07 373.454C732.944 373.058 733.164 372.634 733.561 372.509ZM467.861 372.909C468.258 372.784 468.681 373.005 468.805 373.402L471.779 382.866C471.904 383.263 471.683 383.686 471.286 383.811C470.89 383.935 470.467 383.715 470.342 383.318L467.368 373.853C467.244 373.457 467.464 373.034 467.861 372.909ZM202.548 373.609C202.945 373.486 203.367 373.709 203.489 374.107L206.425 383.629C206.548 384.027 206.325 384.449 205.927 384.571C205.53 384.694 205.108 384.471 204.986 384.073L202.05 374.551C201.927 374.153 202.15 373.732 202.548 373.609ZM866.496 380.564C866.893 380.439 867.315 380.66 867.44 381.057L870.621 391.197C870.746 391.594 870.525 392.017 870.128 392.141C869.731 392.266 869.308 392.045 869.184 391.648L866.003 381.508C865.878 381.111 866.099 380.688 866.496 380.564ZM603.092 382.106C603.488 381.979 603.912 382.197 604.039 382.594L607.325 392.867C607.452 393.263 607.234 393.687 606.838 393.814C606.441 393.941 606.017 393.722 605.891 393.326L602.604 383.053C602.478 382.656 602.696 382.233 603.092 382.106ZM338.17 382.313C338.567 382.189 338.989 382.41 339.114 382.807L342.314 393.038C342.438 393.435 342.217 393.857 341.82 393.981C341.423 394.106 341.001 393.885 340.876 393.488L337.676 383.257C337.552 382.86 337.773 382.438 338.17 382.313ZM75.0326 386.852C75.4296 386.728 75.8522 386.949 75.9765 387.346L79.0789 397.257C79.2032 397.654 78.9821 398.076 78.5851 398.201C78.1881 398.325 77.7656 398.104 77.6413 397.707L74.5388 387.796C74.4146 387.399 74.6357 386.976 75.0326 386.852ZM739.565 391.467C739.961 391.341 740.384 391.561 740.51 391.957L743.512 401.436C743.638 401.833 743.418 402.256 743.021 402.382C742.625 402.507 742.201 402.288 742.076 401.891L739.074 392.412C738.948 392.016 739.168 391.592 739.565 391.467ZM473.809 391.838C474.206 391.713 474.628 391.934 474.753 392.331L477.727 401.795C477.852 402.192 477.631 402.615 477.234 402.739C476.837 402.864 476.414 402.643 476.29 402.246L473.316 392.782C473.191 392.385 473.412 391.962 473.809 391.838ZM208.419 392.654C208.817 392.531 209.238 392.754 209.361 393.152L212.297 402.674C212.419 403.072 212.196 403.493 211.799 403.616C211.401 403.739 210.98 403.516 210.857 403.118L207.921 393.596C207.799 393.198 208.022 392.777 208.419 392.654ZM872.858 400.845C873.255 400.72 873.678 400.941 873.802 401.338L876.984 411.478C877.108 411.875 876.888 412.298 876.491 412.422C876.094 412.547 875.671 412.326 875.546 411.929L872.365 401.789C872.241 401.392 872.461 400.969 872.858 400.845ZM609.665 402.652C610.061 402.526 610.485 402.744 610.612 403.14L613.898 413.414C614.025 413.81 613.806 414.234 613.41 414.361C613.014 414.487 612.59 414.269 612.463 413.873L609.177 403.599C609.05 403.203 609.269 402.779 609.665 402.652ZM344.571 402.774C344.968 402.65 345.39 402.871 345.515 403.268L348.715 413.499C348.839 413.896 348.618 414.318 348.221 414.442C347.824 414.566 347.402 414.345 347.277 413.948L344.077 403.718C343.953 403.321 344.174 402.898 344.571 402.774ZM81.2376 406.674C81.6346 406.549 82.0571 406.771 82.1814 407.168L85.2839 417.078C85.4081 417.475 85.1871 417.898 84.7901 418.022C84.3931 418.146 83.9705 417.925 83.8462 417.528L80.7438 407.618C80.6195 407.221 80.8406 406.798 81.2376 406.674ZM745.568 410.424C745.965 410.299 746.388 410.519 746.514 410.915L749.516 420.394C749.641 420.791 749.422 421.214 749.025 421.34C748.629 421.465 748.205 421.245 748.08 420.849L745.078 411.37C744.952 410.973 745.172 410.55 745.568 410.424ZM479.756 410.766C480.153 410.642 480.576 410.862 480.701 411.259L483.674 420.724C483.799 421.12 483.578 421.543 483.182 421.668C482.785 421.793 482.362 421.572 482.237 421.175L479.263 411.711C479.139 411.314 479.359 410.891 479.756 410.766ZM214.291 411.699C214.688 411.576 215.11 411.799 215.232 412.197L218.168 421.719C218.29 422.117 218.068 422.538 217.67 422.661C217.272 422.783 216.851 422.561 216.728 422.163L213.793 412.641C213.67 412.243 213.893 411.821 214.291 411.699ZM879.221 421.125C879.618 421.001 880.041 421.222 880.165 421.619L883.346 431.759C883.471 432.156 883.25 432.579 882.853 432.703C882.456 432.828 882.034 432.607 881.909 432.21L878.728 422.069C878.603 421.673 878.824 421.25 879.221 421.125ZM616.238 423.199C616.634 423.072 617.058 423.291 617.185 423.687L620.471 433.96C620.598 434.357 620.379 434.78 619.983 434.907C619.587 435.034 619.163 434.815 619.036 434.419L615.75 424.146C615.623 423.75 615.841 423.326 616.238 423.199ZM350.972 423.235C351.369 423.111 351.791 423.332 351.916 423.729L355.116 433.959C355.24 434.356 355.019 434.779 354.622 434.903C354.225 435.027 353.803 434.806 353.678 434.409L350.478 424.179C350.354 423.782 350.575 423.359 350.972 423.235ZM87.4425 426.495C87.8395 426.371 88.2621 426.592 88.3863 426.989L91.4888 436.9C91.6131 437.297 91.392 437.72 90.995 437.844C90.598 437.968 90.1754 437.747 90.0512 437.35L86.9487 427.439C86.8244 427.042 87.0455 426.62 87.4425 426.495ZM751.572 429.382C751.969 429.257 752.392 429.476 752.518 429.873L755.52 439.352C755.645 439.749 755.426 440.172 755.029 440.297C754.633 440.423 754.209 440.203 754.084 439.807L751.082 430.328C750.956 429.931 751.176 429.508 751.572 429.382ZM485.704 429.695C486.101 429.571 486.523 429.791 486.648 430.188L489.622 439.652C489.747 440.049 489.526 440.472 489.129 440.597C488.732 440.721 488.31 440.501 488.185 440.104L485.211 430.64C485.086 430.243 485.307 429.82 485.704 429.695ZM220.162 430.744C220.559 430.621 220.981 430.844 221.104 431.242L224.039 440.764C224.162 441.162 223.939 441.583 223.541 441.706C223.144 441.828 222.722 441.605 222.6 441.208L219.664 431.685C219.541 431.288 219.764 430.866 220.162 430.744ZM885.584 441.406C885.981 441.282 886.403 441.502 886.528 441.899L889.709 452.04C889.834 452.437 889.613 452.859 889.216 452.984C888.819 453.108 888.396 452.888 888.272 452.491L885.091 442.35C884.966 441.953 885.187 441.531 885.584 441.406ZM357.373 443.696C357.77 443.572 358.193 443.793 358.317 444.19L361.517 454.42C361.641 454.817 361.42 455.24 361.023 455.364C360.626 455.488 360.204 455.267 360.08 454.87L356.879 444.64C356.755 444.243 356.976 443.82 357.373 443.696ZM622.81 443.746C623.207 443.619 623.63 443.837 623.757 444.234L627.044 454.507C627.17 454.903 626.952 455.327 626.556 455.454C626.159 455.581 625.736 455.362 625.609 454.966L622.322 444.693C622.196 444.296 622.414 443.872 622.81 443.746ZM93.6474 446.317C94.0444 446.193 94.467 446.414 94.5913 446.811L97.6937 456.722C97.818 457.119 97.5969 457.541 97.1999 457.666C96.8029 457.79 96.3804 457.569 96.2561 457.172L93.1536 447.261C93.0294 446.864 93.2505 446.441 93.6474 446.317ZM757.576 448.34C757.973 448.215 758.396 448.434 758.522 448.831L761.524 458.31C761.649 458.706 761.43 459.13 761.033 459.255C760.637 459.381 760.213 459.161 760.088 458.765L757.086 449.286C756.96 448.889 757.18 448.466 757.576 448.34ZM491.651 448.624C492.048 448.499 492.471 448.72 492.596 449.117L495.57 458.581C495.694 458.978 495.474 459.401 495.077 459.525C494.68 459.65 494.257 459.43 494.132 459.033L491.159 449.568C491.034 449.171 491.255 448.749 491.651 448.624ZM226.033 449.789C226.431 449.666 226.852 449.889 226.975 450.287L229.911 459.809C230.033 460.207 229.81 460.628 229.413 460.751C229.015 460.873 228.594 460.65 228.471 460.253L225.535 450.73C225.413 450.333 225.636 449.911 226.033 449.789ZM891.946 461.687C892.343 461.562 892.766 461.783 892.89 462.18L896.072 472.321C896.196 472.717 895.976 473.14 895.579 473.265C895.182 473.389 894.759 473.168 894.635 472.771L891.453 462.631C891.329 462.234 891.549 461.811 891.946 461.687ZM363.774 464.157C364.171 464.032 364.594 464.254 364.718 464.651L367.918 474.881C368.042 475.278 367.821 475.7 367.424 475.825C367.027 475.949 366.605 475.728 366.481 475.331L363.28 465.1C363.156 464.703 363.377 464.281 363.774 464.157ZM629.383 464.292C629.779 464.166 630.203 464.384 630.33 464.78L633.616 475.054C633.743 475.45 633.525 475.874 633.128 476.001C632.732 476.127 632.308 475.909 632.181 475.513L628.895 465.239C628.768 464.843 628.987 464.419 629.383 464.292ZM99.8524 466.139C100.249 466.014 100.672 466.236 100.796 466.633L103.899 476.543C104.023 476.94 103.802 477.363 103.405 477.487C103.008 477.611 102.585 477.39 102.461 476.993L99.3586 467.083C99.2343 466.686 99.4554 466.263 99.8524 466.139ZM763.58 467.298C763.977 467.172 764.4 467.392 764.526 467.789L766.027 472.528C766.538 474.143 766.983 475.759 767.362 477.374C767.457 477.779 767.206 478.185 766.801 478.28C766.396 478.375 765.99 478.124 765.895 477.719C765.525 476.141 765.09 474.561 764.591 472.983L763.09 468.244C762.964 467.847 763.184 467.424 763.58 467.298ZM497.599 467.553C497.996 467.428 498.419 467.649 498.543 468.045L500.03 472.778C500.537 474.389 500.976 476.003 501.351 477.615C501.446 478.02 501.194 478.425 500.788 478.519C500.383 478.613 499.978 478.361 499.884 477.956C499.518 476.381 499.088 474.805 498.593 473.229L497.106 468.497C496.982 468.1 497.202 467.677 497.599 467.553ZM231.905 468.834C232.302 468.711 232.724 468.934 232.846 469.332L234.314 474.093C234.804 475.683 235.229 477.275 235.59 478.865C235.683 479.271 235.428 479.674 235.023 479.767C234.617 479.859 234.214 479.605 234.121 479.199C233.769 477.646 233.354 476.091 232.875 474.537L231.407 469.775C231.284 469.378 231.507 468.956 231.905 468.834ZM898.309 481.968C898.706 481.843 899.129 482.064 899.253 482.461L902.434 492.601C902.559 492.998 902.338 493.421 901.941 493.545C901.544 493.67 901.122 493.449 900.997 493.052L897.816 482.912C897.691 482.515 897.912 482.092 898.309 481.968ZM370.175 484.617C370.572 484.493 370.995 484.714 371.119 485.111L374.319 495.342C374.444 495.739 374.222 496.161 373.825 496.285C373.428 496.41 373.006 496.189 372.882 495.792L369.681 485.561C369.557 485.164 369.778 484.742 370.175 484.617ZM635.956 484.839C636.352 484.712 636.776 484.931 636.903 485.327L640.189 495.6C640.316 495.996 640.097 496.42 639.701 496.547C639.305 496.674 638.881 496.455 638.754 496.059L635.468 485.786C635.341 485.39 635.56 484.966 635.956 484.839ZM106.057 485.96C106.454 485.836 106.877 486.057 107.001 486.454L110.104 496.365C110.228 496.762 110.007 497.185 109.61 497.309C109.213 497.433 108.79 497.212 108.666 496.815L105.563 486.904C105.439 486.507 105.66 486.085 106.057 485.96ZM768.084 486.598C768.499 486.567 768.86 486.878 768.891 487.293C769.144 490.676 769.122 494.031 768.844 497.332C768.809 497.746 768.444 498.054 768.03 498.019C767.615 497.984 767.308 497.62 767.343 497.205C767.615 493.983 767.636 490.708 767.389 487.405C767.358 486.99 767.669 486.629 768.084 486.598ZM502.05 486.814C502.465 486.784 502.826 487.096 502.856 487.511C503.101 490.886 503.074 494.232 502.79 497.524C502.754 497.939 502.389 498.246 501.975 498.21C501.56 498.174 501.253 497.809 501.289 497.395C501.566 494.181 501.593 490.915 501.354 487.62C501.323 487.205 501.635 486.844 502.05 486.814ZM236.222 487.923C236.637 487.894 236.996 488.208 237.024 488.623C237.25 491.95 237.208 495.246 236.914 498.489C236.877 498.903 236.511 499.209 236.096 499.171C235.682 499.134 235.377 498.768 235.414 498.353C235.701 495.189 235.742 491.972 235.521 488.725C235.493 488.31 235.807 487.951 236.222 487.923ZM904.672 502.249C905.069 502.124 905.491 502.345 905.616 502.742L907.206 507.812C907.738 509.505 908.332 511.165 908.986 512.79C909.141 513.176 908.955 513.615 908.569 513.77C908.183 513.925 907.744 513.738 907.589 513.353C906.92 511.691 906.312 509.994 905.769 508.263L904.178 503.193C904.054 502.796 904.275 502.373 904.672 502.249ZM376.576 505.078C376.973 504.954 377.396 505.175 377.52 505.572L379.12 510.687C379.617 512.276 380.173 513.834 380.786 515.359C380.941 515.745 380.754 516.183 380.368 516.338C379.982 516.493 379.543 516.306 379.388 515.92C378.761 514.359 378.191 512.764 377.682 511.137L376.082 506.022C375.958 505.625 376.179 505.202 376.576 505.078ZM642.528 505.386C642.925 505.259 643.349 505.477 643.475 505.874L645.119 511.01C645.624 512.59 646.188 514.138 646.807 515.654C646.964 516.039 646.78 516.479 646.395 516.636C646.01 516.794 645.57 516.609 645.413 516.224C644.778 514.672 644.201 513.086 643.684 511.469L642.041 506.333C641.914 505.936 642.132 505.512 642.528 505.386ZM112.262 505.782C112.659 505.658 113.082 505.879 113.206 506.276L114.757 511.231C115.248 512.8 115.798 514.339 116.403 515.845C116.559 516.231 116.371 516.669 115.985 516.825C115.599 516.98 115.161 516.793 115.006 516.407C114.386 514.864 113.823 513.288 113.32 511.681L111.768 506.726C111.644 506.329 111.865 505.906 112.262 505.782ZM766.659 506.322C767.063 506.422 767.31 506.831 767.209 507.234C766.401 510.502 765.338 513.685 764.04 516.758C763.878 517.141 763.436 517.321 763.053 517.159C762.67 516.997 762.49 516.555 762.652 516.172C763.919 513.171 764.958 510.062 765.747 506.872C765.847 506.469 766.256 506.222 766.659 506.322ZM500.594 506.486C500.998 506.587 501.244 506.996 501.143 507.399C500.331 510.657 499.266 513.831 497.967 516.894C497.805 517.277 497.363 517.456 496.98 517.294C496.597 517.131 496.418 516.689 496.58 516.306C497.848 513.314 498.888 510.215 499.681 507.035C499.782 506.631 500.191 506.386 500.594 506.486ZM234.707 507.297C235.111 507.399 235.355 507.809 235.253 508.212C234.44 511.419 233.38 514.542 232.09 517.556C231.926 517.939 231.484 518.116 231.101 517.952C230.719 517.789 230.542 517.346 230.705 516.964C231.964 514.021 233 510.972 233.792 507.842C233.895 507.439 234.304 507.195 234.707 507.297ZM912.661 521.988C913.018 521.774 913.48 521.889 913.695 522.245C915.523 525.285 917.58 528.156 919.839 530.837C920.107 531.155 920.067 531.63 919.748 531.898C919.43 532.166 918.955 532.126 918.687 531.808C916.377 529.066 914.273 526.13 912.404 523.022C912.189 522.665 912.305 522.203 912.661 521.988ZM384.163 523.974C384.52 523.76 384.983 523.875 385.197 524.232C386.91 527.085 388.838 529.779 390.956 532.295C391.224 532.614 391.183 533.089 390.865 533.357C390.547 533.625 390.072 533.584 389.804 533.265C387.635 530.688 385.66 527.929 383.905 525.008C383.691 524.651 383.807 524.188 384.163 523.974ZM650.217 524.217C650.572 524.001 651.035 524.114 651.251 524.47C652.973 527.303 654.907 529.978 657.028 532.476C657.297 532.793 657.258 533.268 656.941 533.538C656.624 533.807 656.149 533.768 655.88 533.451C653.707 530.893 651.727 528.154 649.964 525.252C649.748 524.897 649.861 524.433 650.217 524.217ZM119.728 524.351C120.085 524.137 120.547 524.252 120.762 524.609C122.454 527.426 124.359 530.087 126.451 532.572C126.719 532.89 126.678 533.365 126.36 533.633C126.042 533.901 125.567 533.861 125.299 533.542C123.155 530.996 121.204 528.271 119.47 525.384C119.256 525.028 119.371 524.565 119.728 524.351ZM759.186 524.636C759.539 524.855 759.648 525.32 759.429 525.673C757.665 528.521 755.682 531.229 753.5 533.771C753.229 534.086 752.754 534.122 752.438 533.851C752.122 533.581 752.086 533.105 752.357 532.789C754.488 530.307 756.425 527.661 758.149 524.88C758.368 524.526 758.832 524.417 759.186 524.636ZM493.114 524.743C493.468 524.963 493.576 525.427 493.357 525.781C491.593 528.618 489.612 531.318 487.433 533.851C487.162 534.166 486.686 534.202 486.371 533.93C486.056 533.659 486.02 533.184 486.291 532.868C488.42 530.394 490.355 527.758 492.077 524.986C492.297 524.632 492.761 524.524 493.114 524.743ZM227.281 525.26C227.634 525.48 227.741 525.945 227.52 526.298C225.775 529.089 223.816 531.743 221.663 534.233C221.391 534.548 220.915 534.582 220.6 534.31C220.286 534.038 220.251 533.563 220.523 533.248C222.625 530.816 224.538 528.224 226.243 525.499C226.464 525.146 226.928 525.039 227.281 525.26ZM926.201 538.429C926.473 538.114 926.948 538.08 927.263 538.351C929.932 540.656 932.779 542.747 935.777 544.604C936.131 544.823 936.24 545.287 936.021 545.641C935.802 545.994 935.338 546.104 934.984 545.885C931.919 543.986 929.007 541.848 926.278 539.492C925.963 539.22 925.929 538.744 926.201 538.429ZM396.855 539.426C397.127 539.111 397.602 539.076 397.917 539.348C400.42 541.512 403.09 543.474 405.902 545.217C406.256 545.436 406.365 545.9 406.146 546.254C405.927 546.608 405.462 546.717 405.109 546.497C402.229 544.713 399.495 542.703 396.932 540.488C396.617 540.216 396.583 539.74 396.855 539.426ZM662.929 539.556C663.2 539.24 663.675 539.204 663.991 539.475C666.492 541.621 669.159 543.568 671.966 545.296C672.32 545.515 672.43 545.979 672.212 546.333C671.994 546.687 671.53 546.797 671.176 546.579C668.302 544.81 665.571 542.816 663.01 540.618C662.694 540.347 662.658 539.872 662.929 539.556ZM132.265 539.615C132.537 539.3 133.013 539.266 133.327 539.538C135.799 541.674 138.437 543.613 141.215 545.333C141.568 545.553 141.677 546.017 141.458 546.37C141.239 546.724 140.775 546.833 140.421 546.614C137.576 544.851 134.874 542.866 132.342 540.677C132.027 540.405 131.993 539.93 132.265 539.615ZM746.477 539.796C746.747 540.112 746.71 540.588 746.393 540.858C743.855 543.023 741.141 544.997 738.271 546.755C737.916 546.972 737.452 546.86 737.235 546.506C737.018 546.151 737.129 545.687 737.484 545.47C740.287 543.754 742.937 541.826 745.415 539.711C745.732 539.441 746.207 539.479 746.477 539.796ZM480.423 539.851C480.692 540.168 480.654 540.643 480.338 540.913C477.804 543.07 475.096 545.038 472.231 546.789C471.876 547.006 471.413 546.894 471.196 546.539C470.979 546.184 471.091 545.721 471.445 545.504C474.242 543.794 476.887 541.873 479.361 539.766C479.678 539.496 480.153 539.534 480.423 539.851ZM214.743 540.114C215.012 540.431 214.973 540.907 214.655 541.176C212.155 543.296 209.483 545.23 206.658 546.951C206.302 547.167 205.839 547.054 205.623 546.699C205.406 546.344 205.519 545.88 205.874 545.664C208.631 543.984 211.24 542.097 213.681 540.027C213.998 539.758 214.474 539.797 214.743 540.114ZM944.184 549.842C944.344 549.458 944.786 549.277 945.169 549.438C948.404 550.791 951.759 551.894 955.206 552.729C955.611 552.827 955.859 553.234 955.761 553.638C955.663 554.042 955.256 554.291 954.852 554.193C951.326 553.34 947.896 552.211 944.588 550.828C944.204 550.667 944.023 550.226 944.184 549.842ZM413.726 550.158C413.887 549.775 414.328 549.594 414.712 549.755C417.746 551.025 420.893 552.06 424.127 552.844C424.531 552.941 424.78 553.349 424.682 553.753C424.584 554.157 424.177 554.406 423.772 554.308C420.46 553.506 417.237 552.445 414.13 551.144C413.746 550.983 413.566 550.542 413.726 550.158ZM679.769 550.202C679.928 549.818 680.369 549.636 680.753 549.796C683.779 551.055 686.916 552.082 690.139 552.859C690.543 552.956 690.792 553.363 690.695 553.767C690.597 554.172 690.19 554.421 689.786 554.323C686.485 553.528 683.273 552.477 680.175 551.187C679.791 551.027 679.609 550.586 679.769 550.202ZM148.931 550.219C149.091 549.835 149.533 549.654 149.916 549.815C152.913 551.069 156.022 552.092 159.216 552.865C159.62 552.963 159.869 553.37 159.771 553.775C159.673 554.179 159.266 554.427 158.862 554.329C155.589 553.537 152.405 552.489 149.335 551.204C148.951 551.044 148.77 550.602 148.931 550.219ZM729.733 550.319C729.891 550.704 729.708 551.144 729.323 551.302C726.261 552.565 723.069 553.598 719.767 554.379C719.362 554.474 718.957 554.224 718.861 553.819C718.765 553.414 719.016 553.008 719.421 552.913C722.644 552.151 725.76 551.142 728.749 549.91C729.134 549.751 729.574 549.934 729.733 550.319ZM463.714 550.337C463.872 550.721 463.689 551.162 463.304 551.32C460.248 552.578 457.065 553.607 453.771 554.385C453.366 554.481 452.96 554.23 452.865 553.825C452.769 553.42 453.02 553.014 453.425 552.919C456.64 552.16 459.748 551.154 462.731 549.927C463.115 549.769 463.556 549.952 463.714 550.337ZM198.267 550.42C198.425 550.805 198.241 551.245 197.856 551.403C194.844 552.639 191.706 553.651 188.46 554.415C188.055 554.51 187.65 554.259 187.554 553.854C187.459 553.449 187.71 553.044 188.115 552.948C191.283 552.203 194.345 551.215 197.284 550.009C197.669 549.852 198.109 550.036 198.267 550.42ZM964.828 555.083C964.86 554.668 965.223 554.358 965.638 554.391C967.384 554.529 969.146 554.599 970.92 554.599H975.919C976.335 554.599 976.672 554.936 976.672 555.352C976.672 555.768 976.335 556.105 975.919 556.105H970.92C969.106 556.105 967.305 556.034 965.519 555.893C965.105 555.86 964.795 555.497 964.828 555.083ZM433.102 555.096C433.135 554.681 433.498 554.371 433.913 554.404C435.551 554.533 437.204 554.599 438.868 554.599C440.52 554.599 442.152 554.536 443.764 554.414C444.179 554.382 444.541 554.693 444.573 555.108C444.604 555.523 444.294 555.884 443.879 555.916C442.229 556.041 440.558 556.105 438.868 556.105C437.164 556.105 435.472 556.038 433.794 555.906C433.379 555.873 433.07 555.51 433.102 555.096ZM699.08 555.098C699.112 554.683 699.475 554.373 699.89 554.406C701.522 554.534 703.169 554.599 704.827 554.599C706.483 554.599 708.12 554.536 709.736 554.413C710.151 554.382 710.512 554.692 710.544 555.107C710.576 555.522 710.265 555.884 709.85 555.915C708.196 556.041 706.521 556.106 704.827 556.106C703.129 556.106 701.443 556.039 699.772 555.907C699.357 555.875 699.047 555.512 699.08 555.098ZM168.071 555.098C168.104 554.683 168.467 554.374 168.882 554.406C170.499 554.534 172.132 554.599 173.776 554.599C175.403 554.599 177.011 554.538 178.599 554.417C179.014 554.386 179.375 554.696 179.407 555.111C179.438 555.526 179.128 555.888 178.713 555.919C177.087 556.043 175.441 556.105 173.776 556.105C172.092 556.105 170.42 556.039 168.763 555.908C168.348 555.875 168.039 555.513 168.071 555.098ZM985.163 555.352C985.163 554.936 985.5 554.599 985.916 554.599H995.914C996.33 554.599 996.667 554.936 996.667 555.352C996.667 555.768 996.33 556.105 995.914 556.105H985.916C985.5 556.105 985.163 555.768 985.163 555.352ZM1005.16 555.352C1005.16 554.936 1005.49 554.599 1005.91 554.599H1010.91V556.105H1005.91C1005.49 556.105 1005.16 555.768 1005.16 555.352Z" fill="white"/>
</svg>
