<svg width="155" height="118" viewBox="0 0 155 118" fill="none" xmlns="http://www.w3.org/2000/svg">
<path opacity="0.2" d="M131.241 9.83394C121.062 5.1737 110.316 1.86757 99.2777 0C97.7673 2.70023 96.4005 5.4784 95.1833 8.3229C83.4254 6.55111 71.4683 6.55111 59.7104 8.3229C58.4925 5.4787 57.1258 2.70056 55.616 0C44.5706 1.88334 33.8175 5.19732 23.6282 9.85831C3.39973 39.7866 -2.08389 68.9716 0.657917 97.7423C12.5042 106.495 25.7636 113.151 39.8597 117.422C43.0337 113.153 45.8423 108.625 48.2557 103.884C43.6718 102.172 39.2475 100.06 35.0341 97.5717C36.143 96.7674 37.2276 95.9388 38.2755 95.1345C50.5357 100.9 63.917 103.89 77.4651 103.89C91.0133 103.89 104.395 100.9 116.655 95.1345C117.715 95.9997 118.799 96.8284 119.896 97.5717C115.675 100.064 111.242 102.18 106.65 103.896C109.061 108.635 111.869 113.16 115.046 117.422C129.154 113.168 142.424 106.515 154.272 97.7545C157.489 64.3898 148.777 35.4729 131.241 9.83394ZM51.7287 80.0485C44.0882 80.0485 37.7759 73.1148 37.7759 64.5847C37.7759 56.0547 43.8688 49.06 51.7043 49.06C59.5398 49.06 65.8033 56.0547 65.6693 64.5847C65.5352 73.1148 59.5154 80.0485 51.7287 80.0485ZM103.202 80.0485C95.5489 80.0485 89.261 73.1148 89.261 64.5847C89.261 56.0547 95.3539 49.06 103.202 49.06C111.049 49.06 117.264 56.0547 117.13 64.5847C116.996 73.1148 110.988 80.0485 103.202 80.0485Z" fill="white"/>
</svg>
