<svg width="177" height="160" viewBox="0 0 177 160" fill="none" xmlns="http://www.w3.org/2000/svg">
<g opacity="0.2">
<path d="M104.911 32.6763C106.481 39.3294 112.455 44.2857 119.589 44.2857C127.918 44.2857 134.67 37.5336 134.67 29.2048C134.67 20.8759 127.918 14.1238 119.589 14.1238C112.307 14.1238 106.233 19.2851 104.819 26.1504C92.6229 27.4584 83.0992 37.8023 83.0992 50.3379C83.0992 50.3662 83.0992 50.3874 83.0992 50.4157C69.8353 50.9742 57.7239 54.7498 48.1082 60.7101C44.5377 57.9456 40.0552 56.2982 35.1908 56.2982C23.5177 56.2982 14.0576 65.7583 14.0576 77.4314C14.0576 85.9016 19.0351 93.1982 26.2256 96.5707C26.9256 121.105 53.6584 140.838 86.5425 140.838C119.426 140.838 146.195 121.083 146.859 96.5283C153.993 93.1345 158.928 85.8592 158.928 77.4384C158.928 65.7653 149.468 56.3053 137.795 56.3053C132.952 56.3053 128.491 57.9385 124.927 60.6818C115.227 54.6791 102.981 50.9035 89.5827 50.4016C89.5827 50.3803 89.5827 50.3662 89.5827 50.345C89.5827 41.3657 96.2571 33.9136 104.911 32.6904V32.6763ZM47.2598 90.8438C47.6133 83.1795 52.7039 77.297 58.6218 77.297C64.5397 77.297 69.0646 83.5118 68.7111 91.1761C68.3576 98.8403 63.9387 101.626 58.0138 101.626C52.0888 101.626 46.9063 98.508 47.2598 90.8438ZM114.47 77.297C120.395 77.297 125.486 83.1795 125.832 90.8438C126.186 98.508 120.996 101.626 115.078 101.626C109.16 101.626 104.734 98.8473 104.381 91.1761C104.027 83.5118 108.545 77.297 114.47 77.297ZM107.428 108.576C108.538 108.689 109.245 109.842 108.814 110.874C105.173 119.578 96.5752 125.693 86.5425 125.693C76.5097 125.693 67.9193 119.578 64.271 110.874C63.8397 109.842 64.5467 108.689 65.6568 108.576C72.1614 107.919 79.1964 107.558 86.5425 107.558C93.8885 107.558 100.916 107.919 107.428 108.576Z" fill="white"/>
</g>
</svg>
