<svg width="138" height="138" viewBox="0 0 138 138" fill="none" xmlns="http://www.w3.org/2000/svg">
<g opacity="0.2" clip-path="url(#clip0_130_1618)">
<path d="M69 12.4254C87.4359 12.4254 89.6191 12.5062 96.8695 12.8297C103.608 13.1262 107.246 14.2582 109.672 15.2016C112.88 16.4414 115.198 17.9508 117.596 20.3496C120.022 22.7754 121.505 25.0664 122.745 28.2738C123.688 30.6996 124.82 34.3652 125.116 41.0766C125.44 48.3539 125.521 50.5371 125.521 68.9461C125.521 87.382 125.44 89.5652 125.116 96.8156C124.82 103.554 123.688 107.193 122.745 109.618C121.505 112.826 119.995 115.144 117.596 117.543C115.171 119.968 112.88 121.451 109.672 122.691C107.246 123.634 103.581 124.766 96.8695 125.062C89.5922 125.386 87.409 125.467 69 125.467C50.5641 125.467 48.3809 125.386 41.1305 125.062C34.3922 124.766 30.7535 123.634 28.3277 122.691C25.1203 121.451 22.8023 119.941 20.4035 117.543C17.9777 115.117 16.4953 112.826 15.2555 109.618C14.3121 107.193 13.1801 103.527 12.8836 96.8156C12.5602 89.5383 12.4793 87.3551 12.4793 68.9461C12.4793 50.5102 12.5602 48.327 12.8836 41.0766C13.1801 34.3383 14.3121 30.6996 15.2555 28.2738C16.4953 25.0664 18.0047 22.7484 20.4035 20.3496C22.8293 17.9238 25.1203 16.4414 28.3277 15.2016C30.7535 14.2582 34.4191 13.1262 41.1305 12.8297C48.3809 12.5062 50.5641 12.4254 69 12.4254ZM69 0C50.2676 0 47.9227 0.0808594 40.5645 0.404297C33.2332 0.727734 28.193 1.91367 23.8266 3.61172C19.2715 5.39062 15.4172 7.73555 11.5898 11.5898C7.73555 15.4172 5.39062 19.2715 3.61172 23.7996C1.91367 28.193 0.727734 33.2062 0.404297 40.5375C0.0808594 47.9227 0 50.2676 0 69C0 87.7324 0.0808594 90.0773 0.404297 97.4355C0.727734 104.767 1.91367 109.807 3.61172 114.173C5.39062 118.729 7.73555 122.583 11.5898 126.41C15.4172 130.238 19.2715 132.609 23.7996 134.361C28.193 136.059 33.2062 137.245 40.5375 137.569C47.8957 137.892 50.2406 137.973 68.973 137.973C87.7055 137.973 90.0504 137.892 97.4086 137.569C104.74 137.245 109.78 136.059 114.146 134.361C118.675 132.609 122.529 130.238 126.356 126.41C130.184 122.583 132.555 118.729 134.307 114.2C136.005 109.807 137.191 104.794 137.515 97.4625C137.838 90.1043 137.919 87.7594 137.919 69.027C137.919 50.2945 137.838 47.9496 137.515 40.5914C137.191 33.2602 136.005 28.2199 134.307 23.8535C132.609 19.2715 130.264 15.4172 126.41 11.5898C122.583 7.7625 118.729 5.39062 114.2 3.63867C109.807 1.94062 104.794 0.754688 97.4625 0.43125C90.0773 0.0808594 87.7324 0 69 0Z" fill="white"/>
<path d="M69 33.5566C49.432 33.5566 33.5566 49.432 33.5566 69C33.5566 88.568 49.432 104.443 69 104.443C88.568 104.443 104.443 88.568 104.443 69C104.443 49.432 88.568 33.5566 69 33.5566ZM69 91.991C56.3051 91.991 46.009 81.6949 46.009 69C46.009 56.3051 56.3051 46.009 69 46.009C81.6949 46.009 91.991 56.3051 91.991 69C91.991 81.6949 81.6949 91.991 69 91.991Z" fill="white"/>
<path d="M114.12 32.1552C114.12 36.7373 110.4 40.4299 105.845 40.4299C101.263 40.4299 97.5703 36.7103 97.5703 32.1552C97.5703 27.5732 101.29 23.8806 105.845 23.8806C110.4 23.8806 114.12 27.6002 114.12 32.1552Z" fill="white"/>
</g>
<defs>
<clipPath id="clip0_130_1618">
<rect width="138" height="138" fill="white"/>
</clipPath>
</defs>
</svg>
