<svg width="93" height="129" viewBox="0 0 93 129" fill="none" xmlns="http://www.w3.org/2000/svg">
<g clip-path="url(#clip0_130_1444)">
<g opacity="0.2">
<path d="M58.1263 0H8.71587C4.0715 0 0 4.1022 0 8.7978V120.207C0 124.898 4.06638 129.005 8.72099 129.005H84.2841C88.9336 129.005 93.0051 124.903 93.0051 120.207V35.1809L72.663 20.5213L58.1263 0Z" fill="white"/>
<path d="M23.2471 93.8191H69.7471V87.9574H23.2522L23.2471 93.8191ZM23.2471 105.548H58.1208V99.686H23.2471V105.548ZM23.2471 64.5V70.3618H69.7471V64.5H23.2471ZM23.2471 82.0904H69.7471V76.2287H23.2522L23.2471 82.0904Z" fill="#B5B5B5"/>
<path d="M58.126 0V26.3882C58.126 31.0787 62.1924 35.1809 66.8419 35.1809H92.9997L58.126 0Z" fill="#E6E6E6"/>
</g>
</g>
<defs>
<clipPath id="clip0_130_1444">
<rect width="93" height="129" fill="white"/>
</clipPath>
</defs>
</svg>
