<svg width="135" height="135" viewBox="0 0 135 135" fill="none" xmlns="http://www.w3.org/2000/svg">
<g opacity="0.2" clip-path="url(#clip0_130_1622)">
<path fill-rule="evenodd" clip-rule="evenodd" d="M135 67.5C135 104.779 104.779 135 67.5 135C30.2208 135 0 104.779 0 67.5C0 30.2208 30.2208 0 67.5 0C104.779 0 135 30.2208 135 67.5ZM69.9189 49.8315C63.3535 52.5622 50.232 58.2142 30.5544 66.7874C27.3591 68.0581 25.6852 69.3012 25.5328 70.5167C25.2753 72.5709 27.8477 73.3798 31.3508 74.4813C31.8273 74.6311 32.321 74.7864 32.8271 74.9509C36.2736 76.0712 40.9096 77.3819 43.3197 77.4339C45.5059 77.4812 47.946 76.5799 50.6399 74.73C69.0253 62.3194 78.5159 56.0464 79.1117 55.9112C79.5321 55.8158 80.1146 55.6958 80.5093 56.0466C80.904 56.3974 80.8652 57.0618 80.8234 57.24C80.5685 58.3264 70.4707 67.7143 65.2451 72.5725C63.616 74.087 62.4604 75.1614 62.2242 75.4067C61.695 75.9563 61.1557 76.4762 60.6374 76.9759C57.4356 80.0625 55.0345 82.3771 60.7703 86.1569C63.5267 87.9734 65.7324 89.4754 67.9329 90.974C70.336 92.6105 72.7329 94.2428 75.8341 96.2756C76.6242 96.7935 77.3788 97.3315 78.1138 97.8555C80.9104 99.8492 83.423 101.64 86.527 101.355C88.3307 101.189 90.1938 99.4928 91.14 94.4345C93.3762 82.4802 97.7716 56.5788 98.7875 45.9055C98.8765 44.9704 98.7645 43.7736 98.6746 43.2482C98.5847 42.7229 98.3968 41.9744 97.7139 41.4202C96.9052 40.764 95.6567 40.6256 95.0983 40.6355C92.5595 40.6802 88.6644 42.0346 69.9189 49.8315Z" fill="white"/>
</g>
<defs>
<clipPath id="clip0_130_1622">
<rect width="135" height="135" fill="white"/>
</clipPath>
</defs>
</svg>
